<svg width="353" height="421" viewBox="0 0 353 421" fill="none" xmlns="http://www.w3.org/2000/svg">
<g clip-path="url(#clip0_5_8350)">
<rect y="1" width="353" height="420" rx="22" fill="white" fill-opacity="0.03"/>
<rect x="1.5" y="2.5" width="350" height="417" rx="20.5" stroke="white" stroke-opacity="0.6" stroke-width="3"/>
<path d="M37.96 388.416C36.808 388.416 35.7093 388.187 34.664 387.728C33.6187 387.259 32.7067 386.603 31.928 385.76C31.16 384.917 30.6107 383.925 30.28 382.784L34.504 381.664C34.728 382.507 35.1653 383.163 35.816 383.632C36.4773 384.091 37.192 384.32 37.96 384.32C38.6213 384.32 39.224 384.16 39.768 383.84C40.3227 383.52 40.76 383.088 41.08 382.544C41.4107 382 41.576 381.397 41.576 380.736C41.576 379.744 41.2347 378.896 40.552 378.192C39.88 377.477 39.016 377.12 37.96 377.12C37.64 377.12 37.3307 377.168 37.032 377.264C36.7333 377.349 36.4453 377.472 36.168 377.632L34.216 374.208L41.544 368.128L41.864 369.056H31.176V364.96H45.576V369.056L39.88 374.56L39.848 373.344C41.1707 373.547 42.2853 374.011 43.192 374.736C44.1093 375.451 44.8027 376.336 45.272 377.392C45.752 378.437 45.992 379.552 45.992 380.736C45.992 382.187 45.624 383.493 44.888 384.656C44.152 385.808 43.176 386.725 41.96 387.408C40.744 388.08 39.4107 388.416 37.96 388.416ZM50.1463 388V364.96H57.6023C57.7836 364.96 58.1569 364.965 58.7223 364.976C59.2876 364.987 59.8316 365.024 60.3543 365.088C62.2103 365.312 63.7836 365.957 65.0743 367.024C66.3649 368.091 67.3463 369.445 68.0183 371.088C68.6903 372.731 69.0263 374.528 69.0263 376.48C69.0263 378.432 68.6903 380.229 68.0183 381.872C67.3463 383.515 66.3649 384.869 65.0743 385.936C63.7836 387.003 62.2103 387.648 60.3543 387.872C59.8316 387.936 59.2876 387.973 58.7223 387.984C58.1569 387.995 57.7836 388 57.6023 388H50.1463ZM54.5623 383.904H57.6023C57.8903 383.904 58.2796 383.899 58.7703 383.888C59.2609 383.867 59.7036 383.819 60.0983 383.744C61.1009 383.541 61.9169 383.072 62.5463 382.336C63.1863 381.6 63.6556 380.715 63.9543 379.68C64.2636 378.645 64.4183 377.579 64.4183 376.48C64.4183 375.328 64.2583 374.235 63.9383 373.2C63.6289 372.165 63.1543 371.291 62.5143 370.576C61.8743 369.861 61.0689 369.408 60.0983 369.216C59.7036 369.131 59.2609 369.083 58.7703 369.072C58.2796 369.061 57.8903 369.056 57.6023 369.056H54.5623V383.904ZM84.2313 388L77.1913 364.96H81.6713L87.4313 383.904L93.2873 364.96H97.7673L90.7273 388H84.2313ZM99.8725 368.32V364.48H104.225V368.32H99.8725ZM99.8725 388V370.72H104.225V388H99.8725ZM115.773 388.48C113.597 388.48 111.837 387.989 110.493 387.008C109.16 386.016 108.349 384.619 108.061 382.816L112.509 382.144C112.691 382.955 113.091 383.589 113.709 384.048C114.339 384.507 115.133 384.736 116.093 384.736C116.883 384.736 117.491 384.587 117.917 384.288C118.344 383.979 118.557 383.552 118.557 383.008C118.557 382.667 118.472 382.395 118.301 382.192C118.131 381.979 117.747 381.771 117.149 381.568C116.563 381.365 115.645 381.099 114.397 380.768C112.989 380.405 111.864 380 111.021 379.552C110.179 379.104 109.571 378.571 109.197 377.952C108.824 377.323 108.637 376.565 108.637 375.68C108.637 374.571 108.92 373.611 109.485 372.8C110.051 371.979 110.845 371.349 111.869 370.912C112.904 370.464 114.12 370.24 115.517 370.24C116.872 370.24 118.072 370.448 119.117 370.864C120.163 371.28 121.005 371.872 121.645 372.64C122.296 373.408 122.696 374.315 122.845 375.36L118.397 376.16C118.323 375.52 118.045 375.013 117.565 374.64C117.085 374.267 116.435 374.048 115.613 373.984C114.813 373.931 114.168 374.037 113.677 374.304C113.197 374.571 112.957 374.955 112.957 375.456C112.957 375.755 113.059 376.005 113.261 376.208C113.475 376.411 113.907 376.619 114.557 376.832C115.219 377.045 116.221 377.323 117.565 377.664C118.877 378.005 119.928 378.405 120.717 378.864C121.517 379.312 122.099 379.856 122.461 380.496C122.824 381.125 123.005 381.888 123.005 382.784C123.005 384.555 122.365 385.947 121.085 386.96C119.805 387.973 118.035 388.48 115.773 388.48ZM132.953 388.512C131.599 388.512 130.495 388.283 129.641 387.824C128.788 387.365 128.121 386.784 127.641 386.08C127.172 385.376 126.836 384.645 126.633 383.888C126.431 383.12 126.308 382.421 126.265 381.792C126.223 381.163 126.201 380.704 126.201 380.416V370.72H130.617V378.88C130.617 379.275 130.639 379.781 130.681 380.4C130.724 381.008 130.857 381.621 131.081 382.24C131.305 382.859 131.668 383.376 132.169 383.792C132.681 384.208 133.401 384.416 134.329 384.416C134.703 384.416 135.103 384.357 135.529 384.24C135.956 384.123 136.356 383.899 136.729 383.568C137.103 383.227 137.407 382.731 137.641 382.08C137.887 381.419 138.009 380.555 138.009 379.488L140.505 380.672C140.505 382.037 140.228 383.317 139.673 384.512C139.119 385.707 138.281 386.672 137.161 387.408C136.052 388.144 134.649 388.512 132.953 388.512ZM138.553 388V382.272H138.009V370.72H142.393V388H138.553ZM151.665 388.48C150.428 388.48 149.377 388.245 148.513 387.776C147.66 387.296 147.009 386.661 146.561 385.872C146.124 385.072 145.905 384.192 145.905 383.232C145.905 382.432 146.028 381.701 146.273 381.04C146.518 380.379 146.913 379.797 147.457 379.296C148.012 378.784 148.753 378.357 149.681 378.016C150.321 377.781 151.084 377.573 151.969 377.392C152.854 377.211 153.857 377.04 154.977 376.88C156.097 376.709 157.329 376.523 158.673 376.32L157.105 377.184C157.105 376.16 156.86 375.408 156.369 374.928C155.878 374.448 155.057 374.208 153.905 374.208C153.265 374.208 152.598 374.363 151.905 374.672C151.212 374.981 150.726 375.531 150.449 376.32L146.513 375.072C146.95 373.643 147.772 372.48 148.977 371.584C150.182 370.688 151.825 370.24 153.905 370.24C155.43 370.24 156.785 370.475 157.969 370.944C159.153 371.413 160.049 372.224 160.657 373.376C160.998 374.016 161.201 374.656 161.265 375.296C161.329 375.936 161.361 376.651 161.361 377.44V388H157.553V384.448L158.097 385.184C157.254 386.347 156.342 387.189 155.361 387.712C154.39 388.224 153.158 388.48 151.665 388.48ZM152.593 385.056C153.393 385.056 154.065 384.917 154.609 384.64C155.164 384.352 155.601 384.027 155.921 383.664C156.252 383.301 156.476 382.997 156.593 382.752C156.817 382.283 156.945 381.739 156.977 381.12C157.02 380.491 157.041 379.968 157.041 379.552L158.321 379.872C157.03 380.085 155.985 380.267 155.185 380.416C154.385 380.555 153.74 380.683 153.249 380.8C152.758 380.917 152.326 381.045 151.953 381.184C151.526 381.355 151.18 381.541 150.913 381.744C150.657 381.936 150.465 382.149 150.337 382.384C150.22 382.619 150.161 382.88 150.161 383.168C150.161 383.563 150.257 383.904 150.449 384.192C150.652 384.469 150.934 384.683 151.297 384.832C151.66 384.981 152.092 385.056 152.593 385.056ZM165.841 388V364.48H170.193V388H165.841ZM175.31 368.32V364.48H179.662V368.32H175.31ZM175.31 388V370.72H179.662V388H175.31ZM182.859 388V387.456L191.339 374.496H183.819V370.72H198.059V371.264L189.611 384.224H197.739V388H182.859ZM205.415 388.48C204.178 388.48 203.127 388.245 202.263 387.776C201.41 387.296 200.759 386.661 200.311 385.872C199.874 385.072 199.655 384.192 199.655 383.232C199.655 382.432 199.778 381.701 200.023 381.04C200.268 380.379 200.663 379.797 201.207 379.296C201.762 378.784 202.503 378.357 203.431 378.016C204.071 377.781 204.834 377.573 205.719 377.392C206.604 377.211 207.607 377.04 208.727 376.88C209.847 376.709 211.079 376.523 212.423 376.32L210.855 377.184C210.855 376.16 210.61 375.408 210.119 374.928C209.628 374.448 208.807 374.208 207.655 374.208C207.015 374.208 206.348 374.363 205.655 374.672C204.962 374.981 204.476 375.531 204.199 376.32L200.263 375.072C200.7 373.643 201.522 372.48 202.727 371.584C203.932 370.688 205.575 370.24 207.655 370.24C209.18 370.24 210.535 370.475 211.719 370.944C212.903 371.413 213.799 372.224 214.407 373.376C214.748 374.016 214.951 374.656 215.015 375.296C215.079 375.936 215.111 376.651 215.111 377.44V388H211.303V384.448L211.847 385.184C211.004 386.347 210.092 387.189 209.111 387.712C208.14 388.224 206.908 388.48 205.415 388.48ZM206.343 385.056C207.143 385.056 207.815 384.917 208.359 384.64C208.914 384.352 209.351 384.027 209.671 383.664C210.002 383.301 210.226 382.997 210.343 382.752C210.567 382.283 210.695 381.739 210.727 381.12C210.77 380.491 210.791 379.968 210.791 379.552L212.071 379.872C210.78 380.085 209.735 380.267 208.935 380.416C208.135 380.555 207.49 380.683 206.999 380.8C206.508 380.917 206.076 381.045 205.703 381.184C205.276 381.355 204.93 381.541 204.663 381.744C204.407 381.936 204.215 382.149 204.087 382.384C203.97 382.619 203.911 382.88 203.911 383.168C203.911 383.563 204.007 383.904 204.199 384.192C204.402 384.469 204.684 384.683 205.047 384.832C205.41 384.981 205.842 385.056 206.343 385.056ZM229.639 388C228.445 388.224 227.271 388.32 226.119 388.288C224.978 388.267 223.954 388.069 223.047 387.696C222.151 387.312 221.469 386.699 220.999 385.856C220.573 385.067 220.349 384.267 220.327 383.456C220.306 382.635 220.295 381.707 220.295 380.672V365.92H224.647V380.416C224.647 381.088 224.653 381.696 224.663 382.24C224.685 382.773 224.797 383.2 224.999 383.52C225.383 384.128 225.997 384.459 226.839 384.512C227.682 384.565 228.615 384.523 229.639 384.384V388ZM217.351 374.08V370.72H229.639V374.08H217.351ZM233.81 368.32V364.48H238.162V368.32H233.81ZM233.81 388V370.72H238.162V388H233.81ZM250.735 388.48C248.996 388.48 247.471 388.091 246.159 387.312C244.847 386.533 243.823 385.461 243.087 384.096C242.361 382.72 241.999 381.141 241.999 379.36C241.999 377.557 242.372 375.973 243.119 374.608C243.865 373.232 244.895 372.16 246.207 371.392C247.519 370.624 249.028 370.24 250.735 370.24C252.473 370.24 253.999 370.629 255.311 371.408C256.633 372.187 257.663 373.264 258.399 374.64C259.135 376.005 259.503 377.579 259.503 379.36C259.503 381.152 259.129 382.736 258.383 384.112C257.647 385.477 256.617 386.549 255.295 387.328C253.983 388.096 252.463 388.48 250.735 388.48ZM250.735 384.416C252.132 384.416 253.172 383.947 253.855 383.008C254.548 382.059 254.895 380.843 254.895 379.36C254.895 377.824 254.543 376.597 253.839 375.68C253.145 374.763 252.111 374.304 250.735 374.304C249.785 374.304 249.007 374.517 248.399 374.944C247.791 375.371 247.337 375.963 247.039 376.72C246.751 377.477 246.607 378.357 246.607 379.36C246.607 380.907 246.953 382.139 247.647 383.056C248.351 383.963 249.38 384.416 250.735 384.416ZM274.797 388V379.84C274.797 379.445 274.776 378.944 274.733 378.336C274.691 377.717 274.557 377.099 274.333 376.48C274.109 375.861 273.741 375.344 273.229 374.928C272.728 374.512 272.013 374.304 271.085 374.304C270.712 374.304 270.312 374.363 269.885 374.48C269.459 374.597 269.059 374.827 268.685 375.168C268.312 375.499 268.003 375.989 267.757 376.64C267.523 377.291 267.405 378.155 267.405 379.232L264.909 378.048C264.909 376.683 265.187 375.403 265.741 374.208C266.296 373.013 267.128 372.048 268.237 371.312C269.357 370.576 270.765 370.208 272.461 370.208C273.816 370.208 274.92 370.437 275.773 370.896C276.627 371.355 277.288 371.936 277.757 372.64C278.237 373.344 278.579 374.08 278.781 374.848C278.984 375.605 279.107 376.299 279.149 376.928C279.192 377.557 279.213 378.016 279.213 378.304V388H274.797ZM262.989 388V370.72H266.861V376.448H267.405V388H262.989Z" fill="white"/>
<g clip-path="url(#clip1_5_8350)">
<path d="M53.3851 39.9766H29.5078V63.8467" stroke="white" stroke-width="3" stroke-miterlimit="10"/>
<path d="M177.016 40.2988H200.893V64.1761" stroke="white" stroke-width="3" stroke-miterlimit="10"/>
<path d="M29.3594 189.773V213.644H53.2366" stroke="white" stroke-width="3" stroke-miterlimit="10"/>
<path d="M201.51 189.652V213.53H177.633" stroke="white" stroke-width="3" stroke-miterlimit="10"/>
<path d="M43.7031 85.3611V169.111L115.762 211.059L187.821 169.111V85.3611L115.762 43.4121L43.7031 85.3611Z" stroke="white" stroke-width="3"/>
<path d="M115.766 211.059V129.441" stroke="white" stroke-width="3"/>
<path d="M43.7026 86.0594L115.762 130.177L187.817 86.0594" stroke="white" stroke-width="3"/>
<path d="M43.7031 168.411L115.762 130.176" stroke="white"/>
<path d="M115.764 130.175L186.352 168.41" stroke="white"/>
</g>
</g>
<defs>
<clipPath id="clip0_5_8350">
<rect width="353" height="421" fill="white"/>
</clipPath>
<clipPath id="clip1_5_8350">
<rect width="172.868" height="175" fill="white" transform="translate(29 39)"/>
</clipPath>
</defs>
</svg>
