<svg width="353" height="420" viewBox="0 0 353 420" fill="none" xmlns="http://www.w3.org/2000/svg">
<g clip-path="url(#clip0_5_8170)">
<rect width="353" height="420" rx="22" fill="white" fill-opacity="0.03"/>
<rect x="1.5" y="1.5" width="350" height="417" rx="20.5" stroke="white" stroke-opacity="0.6" stroke-width="3"/>
<path d="M41.128 343.48C38.824 343.48 36.8347 342.979 35.16 341.976C33.496 340.973 32.2107 339.571 31.304 337.768C30.408 335.965 29.96 333.869 29.96 331.48C29.96 329.091 30.408 326.995 31.304 325.192C32.2107 323.389 33.496 321.987 35.16 320.984C36.8347 319.981 38.824 319.48 41.128 319.48C43.7733 319.48 45.992 320.136 47.784 321.448C49.5867 322.76 50.856 324.536 51.592 326.776L47.208 327.992C46.7813 326.595 46.0613 325.512 45.048 324.744C44.0347 323.965 42.728 323.576 41.128 323.576C39.6667 323.576 38.4453 323.901 37.464 324.552C36.4933 325.203 35.7627 326.12 35.272 327.304C34.7813 328.488 34.536 329.88 34.536 331.48C34.536 333.08 34.7813 334.472 35.272 335.656C35.7627 336.84 36.4933 337.757 37.464 338.408C38.4453 339.059 39.6667 339.384 41.128 339.384C42.728 339.384 44.0347 338.995 45.048 338.216C46.0613 337.437 46.7813 336.355 47.208 334.968L51.592 336.184C50.856 338.424 49.5867 340.2 47.784 341.512C45.992 342.824 43.7733 343.48 41.128 343.48ZM62.891 343.48C61.1523 343.48 59.627 343.091 58.315 342.312C57.003 341.533 55.979 340.461 55.243 339.096C54.5177 337.72 54.155 336.141 54.155 334.36C54.155 332.557 54.5283 330.973 55.275 329.608C56.0217 328.232 57.051 327.16 58.363 326.392C59.675 325.624 61.1843 325.24 62.891 325.24C64.6297 325.24 66.155 325.629 67.467 326.408C68.7897 327.187 69.819 328.264 70.555 329.64C71.291 331.005 71.659 332.579 71.659 334.36C71.659 336.152 71.2857 337.736 70.539 339.112C69.803 340.477 68.7737 341.549 67.451 342.328C66.139 343.096 64.619 343.48 62.891 343.48ZM62.891 339.416C64.2883 339.416 65.3283 338.947 66.011 338.008C66.7043 337.059 67.051 335.843 67.051 334.36C67.051 332.824 66.699 331.597 65.995 330.68C65.3017 329.763 64.267 329.304 62.891 329.304C61.9417 329.304 61.163 329.517 60.555 329.944C59.947 330.371 59.4937 330.963 59.195 331.72C58.907 332.477 58.763 333.357 58.763 334.36C58.763 335.907 59.1097 337.139 59.803 338.056C60.507 338.963 61.5363 339.416 62.891 339.416ZM95.9775 343V332.792C95.9775 331.651 95.7055 330.765 95.1615 330.136C94.6282 329.496 93.8868 329.176 92.9375 329.176C92.3295 329.176 91.8015 329.32 91.3535 329.608C90.9055 329.885 90.5535 330.28 90.2975 330.792C90.0522 331.293 89.9295 331.875 89.9295 332.536L88.1055 331.32C88.1055 330.136 88.3828 329.091 88.9375 328.184C89.5028 327.277 90.2548 326.573 91.1935 326.072C92.1428 325.56 93.1935 325.304 94.3455 325.304C96.3188 325.304 97.8068 325.891 98.8095 327.064C99.8228 328.227 100.33 329.752 100.33 331.64V343H95.9775ZM75.1455 343V325.72H78.9855V331.448H79.5295V343H75.1455ZM85.5775 343V332.792C85.5775 331.651 85.3055 330.765 84.7615 330.136C84.2282 329.496 83.4868 329.176 82.5375 329.176C81.6308 329.176 80.9002 329.491 80.3455 330.12C79.8015 330.739 79.5295 331.544 79.5295 332.536L77.7055 331.256C77.7055 330.125 77.9882 329.112 78.5535 328.216C79.1188 327.32 79.8762 326.611 80.8255 326.088C81.7855 325.565 82.8575 325.304 84.0415 325.304C85.3962 325.304 86.5055 325.592 87.3695 326.168C88.2442 326.744 88.8895 327.512 89.3055 328.472C89.7215 329.432 89.9295 330.488 89.9295 331.64V343H85.5775ZM125.29 343V332.792C125.29 331.651 125.018 330.765 124.474 330.136C123.941 329.496 123.199 329.176 122.25 329.176C121.642 329.176 121.114 329.32 120.666 329.608C120.218 329.885 119.866 330.28 119.61 330.792C119.365 331.293 119.242 331.875 119.242 332.536L117.418 331.32C117.418 330.136 117.695 329.091 118.25 328.184C118.815 327.277 119.567 326.573 120.506 326.072C121.455 325.56 122.506 325.304 123.658 325.304C125.631 325.304 127.119 325.891 128.122 327.064C129.135 328.227 129.642 329.752 129.642 331.64V343H125.29ZM104.458 343V325.72H108.298V331.448H108.842V343H104.458ZM114.89 343V332.792C114.89 331.651 114.618 330.765 114.074 330.136C113.541 329.496 112.799 329.176 111.85 329.176C110.943 329.176 110.213 329.491 109.658 330.12C109.114 330.739 108.842 331.544 108.842 332.536L107.018 331.256C107.018 330.125 107.301 329.112 107.866 328.216C108.431 327.32 109.189 326.611 110.138 326.088C111.098 325.565 112.17 325.304 113.354 325.304C114.709 325.304 115.818 325.592 116.682 326.168C117.557 326.744 118.202 327.512 118.618 328.472C119.034 329.432 119.242 330.488 119.242 331.64V343H114.89ZM141.522 343.48C139.751 343.48 138.189 343.101 136.834 342.344C135.49 341.576 134.434 340.525 133.666 339.192C132.909 337.848 132.53 336.312 132.53 334.584C132.53 332.696 132.903 331.053 133.65 329.656C134.397 328.259 135.426 327.176 136.738 326.408C138.05 325.629 139.559 325.24 141.266 325.24C143.079 325.24 144.621 325.667 145.89 326.52C147.159 327.373 148.098 328.573 148.706 330.12C149.314 331.667 149.527 333.485 149.346 335.576H145.042V333.976C145.042 332.216 144.759 330.952 144.194 330.184C143.639 329.405 142.727 329.016 141.458 329.016C139.975 329.016 138.882 329.469 138.178 330.376C137.485 331.272 137.138 332.6 137.138 334.36C137.138 335.971 137.485 337.219 138.178 338.104C138.882 338.979 139.911 339.416 141.266 339.416C142.119 339.416 142.85 339.229 143.458 338.856C144.066 338.483 144.53 337.944 144.85 337.24L149.202 338.488C148.551 340.067 147.522 341.293 146.114 342.168C144.717 343.043 143.186 343.48 141.522 343.48ZM135.794 335.576V332.344H147.25V335.576H135.794ZM152.959 343V325.72H156.799V329.944L156.383 329.4C156.607 328.803 156.905 328.259 157.279 327.768C157.652 327.277 158.111 326.872 158.655 326.552C159.071 326.296 159.524 326.099 160.015 325.96C160.505 325.811 161.012 325.72 161.535 325.688C162.057 325.645 162.58 325.656 163.103 325.72V329.784C162.623 329.635 162.063 329.587 161.423 329.64C160.793 329.683 160.223 329.827 159.711 330.072C159.199 330.307 158.767 330.621 158.415 331.016C158.063 331.4 157.796 331.859 157.615 332.392C157.433 332.915 157.343 333.507 157.343 334.168V343H152.959ZM173.45 343.48C171.658 343.48 170.122 343.08 168.842 342.28C167.562 341.48 166.58 340.392 165.898 339.016C165.215 337.64 164.874 336.088 164.874 334.36C164.874 332.611 165.226 331.048 165.93 329.672C166.644 328.296 167.647 327.213 168.938 326.424C170.228 325.635 171.754 325.24 173.514 325.24C175.551 325.24 177.258 325.757 178.634 326.792C180.02 327.816 180.906 329.219 181.29 331L176.938 332.152C176.682 331.256 176.234 330.557 175.594 330.056C174.964 329.555 174.25 329.304 173.45 329.304C172.532 329.304 171.78 329.528 171.194 329.976C170.607 330.413 170.175 331.016 169.898 331.784C169.62 332.541 169.482 333.4 169.482 334.36C169.482 335.864 169.812 337.085 170.474 338.024C171.146 338.952 172.138 339.416 173.45 339.416C174.431 339.416 175.178 339.192 175.69 338.744C176.202 338.296 176.586 337.656 176.842 336.824L181.29 337.752C180.799 339.587 179.871 341 178.506 341.992C177.14 342.984 175.455 343.48 173.45 343.48ZM184.341 323.32V319.48H188.693V323.32H184.341ZM184.341 343V325.72H188.693V343H184.341ZM198.29 343.48C197.053 343.48 196.002 343.245 195.138 342.776C194.285 342.296 193.634 341.661 193.186 340.872C192.749 340.072 192.53 339.192 192.53 338.232C192.53 337.432 192.653 336.701 192.898 336.04C193.143 335.379 193.538 334.797 194.082 334.296C194.637 333.784 195.378 333.357 196.306 333.016C196.946 332.781 197.709 332.573 198.594 332.392C199.479 332.211 200.482 332.04 201.602 331.88C202.722 331.709 203.954 331.523 205.298 331.32L203.73 332.184C203.73 331.16 203.485 330.408 202.994 329.928C202.503 329.448 201.682 329.208 200.53 329.208C199.89 329.208 199.223 329.363 198.53 329.672C197.837 329.981 197.351 330.531 197.074 331.32L193.138 330.072C193.575 328.643 194.397 327.48 195.602 326.584C196.807 325.688 198.45 325.24 200.53 325.24C202.055 325.24 203.41 325.475 204.594 325.944C205.778 326.413 206.674 327.224 207.282 328.376C207.623 329.016 207.826 329.656 207.89 330.296C207.954 330.936 207.986 331.651 207.986 332.44V343H204.178V339.448L204.722 340.184C203.879 341.347 202.967 342.189 201.986 342.712C201.015 343.224 199.783 343.48 198.29 343.48ZM199.218 340.056C200.018 340.056 200.69 339.917 201.234 339.64C201.789 339.352 202.226 339.027 202.546 338.664C202.877 338.301 203.101 337.997 203.218 337.752C203.442 337.283 203.57 336.739 203.602 336.12C203.645 335.491 203.666 334.968 203.666 334.552L204.946 334.872C203.655 335.085 202.61 335.267 201.81 335.416C201.01 335.555 200.365 335.683 199.874 335.8C199.383 335.917 198.951 336.045 198.578 336.184C198.151 336.355 197.805 336.541 197.538 336.744C197.282 336.936 197.09 337.149 196.962 337.384C196.845 337.619 196.786 337.88 196.786 338.168C196.786 338.563 196.882 338.904 197.074 339.192C197.277 339.469 197.559 339.683 197.922 339.832C198.285 339.981 198.717 340.056 199.218 340.056ZM212.466 343V319.48H216.818V343H212.466ZM31.24 387V363.96H46.28V368.024H35.592V372.952H44.36V377.016H35.592V382.936H46.28V387H31.24ZM56.867 387.48C54.691 387.48 52.931 386.989 51.587 386.008C50.2537 385.016 49.443 383.619 49.155 381.816L53.603 381.144C53.7843 381.955 54.1843 382.589 54.803 383.048C55.4323 383.507 56.227 383.736 57.187 383.736C57.9763 383.736 58.5843 383.587 59.011 383.288C59.4377 382.979 59.651 382.552 59.651 382.008C59.651 381.667 59.5657 381.395 59.395 381.192C59.2243 380.979 58.8403 380.771 58.243 380.568C57.6563 380.365 56.739 380.099 55.491 379.768C54.083 379.405 52.9577 379 52.115 378.552C51.2723 378.104 50.6643 377.571 50.291 376.952C49.9177 376.323 49.731 375.565 49.731 374.68C49.731 373.571 50.0137 372.611 50.579 371.8C51.1443 370.979 51.939 370.349 52.963 369.912C53.9977 369.464 55.2137 369.24 56.611 369.24C57.9657 369.24 59.1657 369.448 60.211 369.864C61.2563 370.28 62.099 370.872 62.739 371.64C63.3897 372.408 63.7897 373.315 63.939 374.36L59.491 375.16C59.4163 374.52 59.139 374.013 58.659 373.64C58.179 373.267 57.5283 373.048 56.707 372.984C55.907 372.931 55.2617 373.037 54.771 373.304C54.291 373.571 54.051 373.955 54.051 374.456C54.051 374.755 54.1523 375.005 54.355 375.208C54.5683 375.411 55.0003 375.619 55.651 375.832C56.3123 376.045 57.315 376.323 58.659 376.664C59.971 377.005 61.0217 377.405 61.811 377.864C62.611 378.312 63.1923 378.856 63.555 379.496C63.9177 380.125 64.099 380.888 64.099 381.784C64.099 383.555 63.459 384.947 62.179 385.96C60.899 386.973 59.1283 387.48 56.867 387.48ZM77.983 387C76.7883 387.224 75.615 387.32 74.463 387.288C73.3217 387.267 72.2977 387.069 71.391 386.696C70.495 386.312 69.8123 385.699 69.343 384.856C68.9163 384.067 68.6923 383.267 68.671 382.456C68.6497 381.635 68.639 380.707 68.639 379.672V364.92H72.991V379.416C72.991 380.088 72.9963 380.696 73.007 381.24C73.0283 381.773 73.1403 382.2 73.343 382.52C73.727 383.128 74.3403 383.459 75.183 383.512C76.0257 383.565 76.959 383.523 77.983 383.384V387ZM65.695 373.08V369.72H77.983V373.08H65.695ZM82.1538 367.32V363.48H86.5058V367.32H82.1538ZM82.1538 387V369.72H86.5058V387H82.1538ZM112.103 387V376.792C112.103 375.651 111.831 374.765 111.287 374.136C110.753 373.496 110.012 373.176 109.062 373.176C108.455 373.176 107.927 373.32 107.479 373.608C107.031 373.885 106.679 374.28 106.423 374.792C106.177 375.293 106.055 375.875 106.055 376.536L104.231 375.32C104.231 374.136 104.508 373.091 105.062 372.184C105.628 371.277 106.38 370.573 107.319 370.072C108.268 369.56 109.319 369.304 110.471 369.304C112.444 369.304 113.932 369.891 114.935 371.064C115.948 372.227 116.455 373.752 116.455 375.64V387H112.103ZM91.2705 387V369.72H95.1105V375.448H95.6545V387H91.2705ZM101.703 387V376.792C101.703 375.651 101.431 374.765 100.887 374.136C100.353 373.496 99.6118 373.176 98.6625 373.176C97.7558 373.176 97.0252 373.491 96.4705 374.12C95.9265 374.739 95.6545 375.544 95.6545 376.536L93.8305 375.256C93.8305 374.125 94.1132 373.112 94.6785 372.216C95.2438 371.32 96.0012 370.611 96.9505 370.088C97.9105 369.565 98.9825 369.304 100.167 369.304C101.521 369.304 102.631 369.592 103.495 370.168C104.369 370.744 105.015 371.512 105.431 372.472C105.847 373.432 106.055 374.488 106.055 375.64V387H101.703ZM125.415 387.48C124.178 387.48 123.127 387.245 122.263 386.776C121.41 386.296 120.759 385.661 120.311 384.872C119.874 384.072 119.655 383.192 119.655 382.232C119.655 381.432 119.778 380.701 120.023 380.04C120.268 379.379 120.663 378.797 121.207 378.296C121.762 377.784 122.503 377.357 123.431 377.016C124.071 376.781 124.834 376.573 125.719 376.392C126.604 376.211 127.607 376.04 128.727 375.88C129.847 375.709 131.079 375.523 132.423 375.32L130.855 376.184C130.855 375.16 130.61 374.408 130.119 373.928C129.628 373.448 128.807 373.208 127.655 373.208C127.015 373.208 126.348 373.363 125.655 373.672C124.962 373.981 124.476 374.531 124.199 375.32L120.263 374.072C120.7 372.643 121.522 371.48 122.727 370.584C123.932 369.688 125.575 369.24 127.655 369.24C129.18 369.24 130.535 369.475 131.719 369.944C132.903 370.413 133.799 371.224 134.407 372.376C134.748 373.016 134.951 373.656 135.015 374.296C135.079 374.936 135.111 375.651 135.111 376.44V387H131.303V383.448L131.847 384.184C131.004 385.347 130.092 386.189 129.111 386.712C128.14 387.224 126.908 387.48 125.415 387.48ZM126.343 384.056C127.143 384.056 127.815 383.917 128.359 383.64C128.914 383.352 129.351 383.027 129.671 382.664C130.002 382.301 130.226 381.997 130.343 381.752C130.567 381.283 130.695 380.739 130.727 380.12C130.77 379.491 130.791 378.968 130.791 378.552L132.071 378.872C130.78 379.085 129.735 379.267 128.935 379.416C128.135 379.555 127.49 379.683 126.999 379.8C126.508 379.917 126.076 380.045 125.703 380.184C125.276 380.355 124.93 380.541 124.663 380.744C124.407 380.936 124.215 381.149 124.087 381.384C123.97 381.619 123.911 381.88 123.911 382.168C123.911 382.563 124.007 382.904 124.199 383.192C124.402 383.469 124.684 383.683 125.047 383.832C125.41 383.981 125.842 384.056 126.343 384.056ZM149.639 387C148.445 387.224 147.271 387.32 146.119 387.288C144.978 387.267 143.954 387.069 143.047 386.696C142.151 386.312 141.469 385.699 140.999 384.856C140.573 384.067 140.349 383.267 140.327 382.456C140.306 381.635 140.295 380.707 140.295 379.672V364.92H144.647V379.416C144.647 380.088 144.653 380.696 144.663 381.24C144.685 381.773 144.797 382.2 144.999 382.52C145.383 383.128 145.997 383.459 146.839 383.512C147.682 383.565 148.615 383.523 149.639 383.384V387ZM137.351 373.08V369.72H149.639V373.08H137.351ZM153.81 367.32V363.48H158.162V367.32H153.81ZM153.81 387V369.72H158.162V387H153.81ZM174.735 387V378.84C174.735 378.445 174.713 377.944 174.671 377.336C174.628 376.717 174.495 376.099 174.271 375.48C174.047 374.861 173.679 374.344 173.167 373.928C172.665 373.512 171.951 373.304 171.023 373.304C170.649 373.304 170.249 373.363 169.823 373.48C169.396 373.597 168.996 373.827 168.623 374.168C168.249 374.499 167.94 374.989 167.695 375.64C167.46 376.291 167.343 377.155 167.343 378.232L164.847 377.048C164.847 375.683 165.124 374.403 165.679 373.208C166.233 372.013 167.065 371.048 168.175 370.312C169.295 369.576 170.703 369.208 172.399 369.208C173.753 369.208 174.857 369.437 175.711 369.896C176.564 370.355 177.225 370.936 177.695 371.64C178.175 372.344 178.516 373.08 178.719 373.848C178.921 374.605 179.044 375.299 179.087 375.928C179.129 376.557 179.151 377.016 179.151 377.304V387H174.735ZM162.927 387V369.72H166.799V375.448H167.343V387H162.927ZM190.695 395.16C189.713 395.16 188.78 395 187.895 394.68C187.009 394.371 186.215 393.933 185.511 393.368C184.817 392.813 184.252 392.163 183.815 391.416L187.847 389.464C188.124 389.976 188.519 390.365 189.031 390.632C189.553 390.899 190.119 391.032 190.727 391.032C191.377 391.032 191.991 390.92 192.567 390.696C193.143 390.483 193.601 390.157 193.943 389.72C194.295 389.293 194.46 388.76 194.439 388.12V383.096H194.983V369.72H198.791V388.184C198.791 388.611 198.769 389.011 198.727 389.384C198.695 389.768 198.631 390.147 198.535 390.52C198.257 391.576 197.74 392.445 196.983 393.128C196.236 393.811 195.319 394.317 194.231 394.648C193.143 394.989 191.964 395.16 190.695 395.16ZM190.311 387.48C188.721 387.48 187.329 387.08 186.135 386.28C184.94 385.48 184.007 384.392 183.335 383.016C182.673 381.64 182.343 380.088 182.343 378.36C182.343 376.6 182.679 375.037 183.351 373.672C184.033 372.296 184.988 371.213 186.215 370.424C187.441 369.635 188.881 369.24 190.535 369.24C192.177 369.24 193.559 369.64 194.679 370.44C195.799 371.24 196.647 372.328 197.222 373.704C197.799 375.08 198.087 376.632 198.087 378.36C198.087 380.088 197.793 381.64 197.207 383.016C196.631 384.392 195.767 385.48 194.615 386.28C193.463 387.08 192.028 387.48 190.311 387.48ZM191.015 383.608C191.985 383.608 192.759 383.389 193.335 382.952C193.921 382.515 194.343 381.901 194.599 381.112C194.855 380.323 194.983 379.405 194.983 378.36C194.983 377.315 194.855 376.397 194.599 375.608C194.343 374.819 193.932 374.205 193.367 373.768C192.812 373.331 192.081 373.112 191.175 373.112C190.204 373.112 189.404 373.352 188.775 373.832C188.156 374.301 187.697 374.936 187.399 375.736C187.1 376.525 186.951 377.4 186.951 378.36C186.951 379.331 187.095 380.216 187.383 381.016C187.671 381.805 188.113 382.435 188.711 382.904C189.308 383.373 190.076 383.608 191.015 383.608Z" fill="white"/>
<path d="M29 226.031H202" stroke="white" stroke-width="3" stroke-miterlimit="10"/>
<path d="M195.771 226.031V57.9453H130.926V137.09" stroke="white" stroke-width="3" stroke-miterlimit="10"/>
<path d="M40.3125 226.032V100.695H103.161V226.032V141.96H163.348V226.032" stroke="white" stroke-width="3" stroke-miterlimit="10"/>
<path d="M71.2227 100.694V71.4235H130.926H120.643V50.168H81.5059V71.4235" stroke="white" stroke-width="3" stroke-miterlimit="10"/>
<path d="M101.828 50.1682V32" stroke="white" stroke-width="3" stroke-miterlimit="10"/>
<path d="M87.6758 88.8203H115.259" stroke="white" stroke-width="3" stroke-miterlimit="10"/>
<path d="M53.4375 126.758H87.6746" stroke="white" stroke-width="3" stroke-miterlimit="10"/>
<path d="M53.4375 147.48H87.6746" stroke="white" stroke-width="3" stroke-miterlimit="10"/>
<path d="M54.1016 165.945H88.3386" stroke="white" stroke-width="3" stroke-miterlimit="10"/>
<path d="M54.1016 186.668H88.3386" stroke="white" stroke-width="3" stroke-miterlimit="10"/>
<path d="M81.7456 206.559H58.5781V222.233H81.7456V206.559Z" fill="white"/>
<path d="M119.855 155.793V214.394" stroke="white" stroke-width="3" stroke-miterlimit="10"/>
<path d="M145.32 154.785V214.396" stroke="white" stroke-width="3" stroke-miterlimit="10"/>
<path d="M145.32 71.3359H153.305" stroke="white" stroke-width="3" stroke-miterlimit="10"/>
<path d="M174 71.3359H181.985" stroke="white" stroke-width="3" stroke-miterlimit="10"/>
<path d="M174 151H181.985" stroke="white" stroke-width="3" stroke-miterlimit="10"/>
<path d="M145.32 90H153.305" stroke="white" stroke-width="3" stroke-miterlimit="10"/>
<path d="M174 90H181.985" stroke="white" stroke-width="3" stroke-miterlimit="10"/>
<path d="M174 169.664H181.985" stroke="white" stroke-width="3" stroke-miterlimit="10"/>
<path d="M145.32 110H153.305" stroke="white" stroke-width="3" stroke-miterlimit="10"/>
<path d="M174 110H181.985" stroke="white" stroke-width="3" stroke-miterlimit="10"/>
<path d="M174 189.664H181.985" stroke="white" stroke-width="3" stroke-miterlimit="10"/>
<path d="M145.32 131H153.305" stroke="white" stroke-width="3" stroke-miterlimit="10"/>
<path d="M174 131H181.985" stroke="white" stroke-width="3" stroke-miterlimit="10"/>
<path d="M174 210.664H181.985" stroke="white" stroke-width="3" stroke-miterlimit="10"/>
</g>
<defs>
<clipPath id="clip0_5_8170">
<rect width="353" height="420" fill="white"/>
</clipPath>
</defs>
</svg>
