<svg width="353" height="420" viewBox="0 0 353 420" fill="none" xmlns="http://www.w3.org/2000/svg">
<g clip-path="url(#clip0_5_8027)">
<rect width="353" height="420" rx="22" fill="white" fill-opacity="0.03"/>
<rect x="1.5" y="1.5" width="350" height="417" rx="20.5" stroke="white" stroke-opacity="0.6" stroke-width="3"/>
<path d="M41.128 343.48C38.824 343.48 36.8347 342.979 35.16 341.976C33.496 340.973 32.2107 339.571 31.304 337.768C30.408 335.965 29.96 333.869 29.96 331.48C29.96 329.091 30.408 326.995 31.304 325.192C32.2107 323.389 33.496 321.987 35.16 320.984C36.8347 319.981 38.824 319.48 41.128 319.48C43.7733 319.48 45.992 320.136 47.784 321.448C49.5867 322.76 50.856 324.536 51.592 326.776L47.208 327.992C46.7813 326.595 46.0613 325.512 45.048 324.744C44.0347 323.965 42.728 323.576 41.128 323.576C39.6667 323.576 38.4453 323.901 37.464 324.552C36.4933 325.203 35.7627 326.12 35.272 327.304C34.7813 328.488 34.536 329.88 34.536 331.48C34.536 333.08 34.7813 334.472 35.272 335.656C35.7627 336.84 36.4933 337.757 37.464 338.408C38.4453 339.059 39.6667 339.384 41.128 339.384C42.728 339.384 44.0347 338.995 45.048 338.216C46.0613 337.437 46.7813 336.355 47.208 334.968L51.592 336.184C50.856 338.424 49.5867 340.2 47.784 341.512C45.992 342.824 43.7733 343.48 41.128 343.48ZM62.891 343.48C61.1523 343.48 59.627 343.091 58.315 342.312C57.003 341.533 55.979 340.461 55.243 339.096C54.5177 337.72 54.155 336.141 54.155 334.36C54.155 332.557 54.5283 330.973 55.275 329.608C56.0217 328.232 57.051 327.16 58.363 326.392C59.675 325.624 61.1843 325.24 62.891 325.24C64.6297 325.24 66.155 325.629 67.467 326.408C68.7897 327.187 69.819 328.264 70.555 329.64C71.291 331.005 71.659 332.579 71.659 334.36C71.659 336.152 71.2857 337.736 70.539 339.112C69.803 340.477 68.7737 341.549 67.451 342.328C66.139 343.096 64.619 343.48 62.891 343.48ZM62.891 339.416C64.2883 339.416 65.3283 338.947 66.011 338.008C66.7043 337.059 67.051 335.843 67.051 334.36C67.051 332.824 66.699 331.597 65.995 330.68C65.3017 329.763 64.267 329.304 62.891 329.304C61.9417 329.304 61.163 329.517 60.555 329.944C59.947 330.371 59.4937 330.963 59.195 331.72C58.907 332.477 58.763 333.357 58.763 334.36C58.763 335.907 59.1097 337.139 59.803 338.056C60.507 338.963 61.5363 339.416 62.891 339.416ZM86.9535 343V334.84C86.9535 334.445 86.9322 333.944 86.8895 333.336C86.8468 332.717 86.7135 332.099 86.4895 331.48C86.2655 330.861 85.8975 330.344 85.3855 329.928C84.8842 329.512 84.1695 329.304 83.2415 329.304C82.8682 329.304 82.4682 329.363 82.0415 329.48C81.6148 329.597 81.2148 329.827 80.8415 330.168C80.4682 330.499 80.1588 330.989 79.9135 331.64C79.6788 332.291 79.5615 333.155 79.5615 334.232L77.0655 333.048C77.0655 331.683 77.3428 330.403 77.8975 329.208C78.4522 328.013 79.2842 327.048 80.3935 326.312C81.5135 325.576 82.9215 325.208 84.6175 325.208C85.9722 325.208 87.0762 325.437 87.9295 325.896C88.7828 326.355 89.4442 326.936 89.9135 327.64C90.3935 328.344 90.7348 329.08 90.9375 329.848C91.1402 330.605 91.2628 331.299 91.3055 331.928C91.3482 332.557 91.3695 333.016 91.3695 333.304V343H86.9535ZM75.1455 343V325.72H79.0175V331.448H79.5615V343H75.1455ZM102.273 343.48C100.097 343.48 98.3373 342.989 96.9933 342.008C95.6599 341.016 94.8493 339.619 94.5613 337.816L99.0093 337.144C99.1906 337.955 99.5906 338.589 100.209 339.048C100.839 339.507 101.633 339.736 102.593 339.736C103.383 339.736 103.991 339.587 104.417 339.288C104.844 338.979 105.057 338.552 105.057 338.008C105.057 337.667 104.972 337.395 104.801 337.192C104.631 336.979 104.247 336.771 103.649 336.568C103.063 336.365 102.145 336.099 100.897 335.768C99.4893 335.405 98.3639 335 97.5213 334.552C96.6786 334.104 96.0706 333.571 95.6973 332.952C95.3239 332.323 95.1373 331.565 95.1373 330.68C95.1373 329.571 95.4199 328.611 95.9853 327.8C96.5506 326.979 97.3453 326.349 98.3693 325.912C99.4039 325.464 100.62 325.24 102.017 325.24C103.372 325.24 104.572 325.448 105.617 325.864C106.663 326.28 107.505 326.872 108.145 327.64C108.796 328.408 109.196 329.315 109.345 330.36L104.897 331.16C104.823 330.52 104.545 330.013 104.065 329.64C103.585 329.267 102.935 329.048 102.113 328.984C101.313 328.931 100.668 329.037 100.177 329.304C99.6973 329.571 99.4573 329.955 99.4573 330.456C99.4573 330.755 99.5586 331.005 99.7613 331.208C99.9746 331.411 100.407 331.619 101.057 331.832C101.719 332.045 102.721 332.323 104.065 332.664C105.377 333.005 106.428 333.405 107.217 333.864C108.017 334.312 108.599 334.856 108.961 335.496C109.324 336.125 109.505 336.888 109.505 337.784C109.505 339.555 108.865 340.947 107.585 341.96C106.305 342.973 104.535 343.48 102.273 343.48ZM123.389 343C122.195 343.224 121.021 343.32 119.869 343.288C118.728 343.267 117.704 343.069 116.797 342.696C115.901 342.312 115.219 341.699 114.749 340.856C114.323 340.067 114.099 339.267 114.077 338.456C114.056 337.635 114.045 336.707 114.045 335.672V320.92H118.397V335.416C118.397 336.088 118.403 336.696 118.413 337.24C118.435 337.773 118.547 338.2 118.749 338.52C119.133 339.128 119.747 339.459 120.589 339.512C121.432 339.565 122.365 339.523 123.389 339.384V343ZM111.101 329.08V325.72H123.389V329.08H111.101ZM127.24 343V325.72H131.08V329.944L130.664 329.4C130.888 328.803 131.187 328.259 131.56 327.768C131.933 327.277 132.392 326.872 132.936 326.552C133.352 326.296 133.805 326.099 134.296 325.96C134.787 325.811 135.293 325.72 135.816 325.688C136.339 325.645 136.861 325.656 137.384 325.72V329.784C136.904 329.635 136.344 329.587 135.704 329.64C135.075 329.683 134.504 329.827 133.992 330.072C133.48 330.307 133.048 330.621 132.696 331.016C132.344 331.4 132.077 331.859 131.896 332.392C131.715 332.915 131.624 333.507 131.624 334.168V343H127.24ZM146.86 343.512C145.505 343.512 144.401 343.283 143.548 342.824C142.694 342.365 142.028 341.784 141.548 341.08C141.078 340.376 140.742 339.645 140.539 338.888C140.337 338.12 140.214 337.421 140.172 336.792C140.129 336.163 140.108 335.704 140.108 335.416V325.72H144.524V333.88C144.524 334.275 144.545 334.781 144.588 335.4C144.63 336.008 144.764 336.621 144.988 337.24C145.212 337.859 145.574 338.376 146.076 338.792C146.588 339.208 147.308 339.416 148.236 339.416C148.609 339.416 149.009 339.357 149.436 339.24C149.862 339.123 150.262 338.899 150.636 338.568C151.009 338.227 151.313 337.731 151.548 337.08C151.793 336.419 151.916 335.555 151.916 334.488L154.412 335.672C154.412 337.037 154.134 338.317 153.58 339.512C153.025 340.707 152.188 341.672 151.068 342.408C149.958 343.144 148.556 343.512 146.86 343.512ZM152.46 343V337.272H151.916V325.72H156.3V343H152.46ZM168.387 343.48C166.595 343.48 165.059 343.08 163.779 342.28C162.499 341.48 161.518 340.392 160.835 339.016C160.153 337.64 159.811 336.088 159.811 334.36C159.811 332.611 160.163 331.048 160.867 329.672C161.582 328.296 162.585 327.213 163.875 326.424C165.166 325.635 166.691 325.24 168.451 325.24C170.489 325.24 172.195 325.757 173.571 326.792C174.958 327.816 175.843 329.219 176.227 331L171.875 332.152C171.619 331.256 171.171 330.557 170.531 330.056C169.902 329.555 169.187 329.304 168.387 329.304C167.47 329.304 166.718 329.528 166.131 329.976C165.545 330.413 165.113 331.016 164.835 331.784C164.558 332.541 164.419 333.4 164.419 334.36C164.419 335.864 164.75 337.085 165.411 338.024C166.083 338.952 167.075 339.416 168.387 339.416C169.369 339.416 170.115 339.192 170.627 338.744C171.139 338.296 171.523 337.656 171.779 336.824L176.227 337.752C175.737 339.587 174.809 341 173.443 341.992C172.078 342.984 170.393 343.48 168.387 343.48ZM189.796 343C188.601 343.224 187.428 343.32 186.276 343.288C185.134 343.267 184.11 343.069 183.204 342.696C182.308 342.312 181.625 341.699 181.156 340.856C180.729 340.067 180.505 339.267 180.484 338.456C180.462 337.635 180.452 336.707 180.452 335.672V320.92H184.804V335.416C184.804 336.088 184.809 336.696 184.82 337.24C184.841 337.773 184.953 338.2 185.156 338.52C185.54 339.128 186.153 339.459 186.996 339.512C187.838 339.565 188.772 339.523 189.796 339.384V343ZM177.508 329.08V325.72H189.796V329.08H177.508ZM193.966 323.32V319.48H198.318V323.32H193.966ZM193.966 343V325.72H198.318V343H193.966ZM210.891 343.48C209.152 343.48 207.627 343.091 206.315 342.312C205.003 341.533 203.979 340.461 203.243 339.096C202.518 337.72 202.155 336.141 202.155 334.36C202.155 332.557 202.528 330.973 203.275 329.608C204.022 328.232 205.051 327.16 206.363 326.392C207.675 325.624 209.184 325.24 210.891 325.24C212.63 325.24 214.155 325.629 215.467 326.408C216.79 327.187 217.819 328.264 218.555 329.64C219.291 331.005 219.659 332.579 219.659 334.36C219.659 336.152 219.286 337.736 218.539 339.112C217.803 340.477 216.774 341.549 215.451 342.328C214.139 343.096 212.619 343.48 210.891 343.48ZM210.891 339.416C212.288 339.416 213.328 338.947 214.011 338.008C214.704 337.059 215.051 335.843 215.051 334.36C215.051 332.824 214.699 331.597 213.995 330.68C213.302 329.763 212.267 329.304 210.891 329.304C209.942 329.304 209.163 329.517 208.555 329.944C207.947 330.371 207.494 330.963 207.195 331.72C206.907 332.477 206.763 333.357 206.763 334.36C206.763 335.907 207.11 337.139 207.803 338.056C208.507 338.963 209.536 339.416 210.891 339.416ZM234.954 343V334.84C234.954 334.445 234.932 333.944 234.89 333.336C234.847 332.717 234.714 332.099 234.49 331.48C234.266 330.861 233.898 330.344 233.386 329.928C232.884 329.512 232.17 329.304 231.242 329.304C230.868 329.304 230.468 329.363 230.042 329.48C229.615 329.597 229.215 329.827 228.842 330.168C228.468 330.499 228.159 330.989 227.914 331.64C227.679 332.291 227.562 333.155 227.562 334.232L225.066 333.048C225.066 331.683 225.343 330.403 225.898 329.208C226.452 328.013 227.284 327.048 228.394 326.312C229.514 325.576 230.922 325.208 232.618 325.208C233.972 325.208 235.076 325.437 235.93 325.896C236.783 326.355 237.444 326.936 237.914 327.64C238.394 328.344 238.735 329.08 238.938 329.848C239.14 330.605 239.263 331.299 239.306 331.928C239.348 332.557 239.37 333.016 239.37 333.304V343H234.954ZM223.146 343V325.72H227.018V331.448H227.562V343H223.146ZM31.24 387V363.96H46.28V368.024H35.592V372.952H44.36V377.016H35.592V382.936H46.28V387H31.24ZM56.867 387.48C54.691 387.48 52.931 386.989 51.587 386.008C50.2537 385.016 49.443 383.619 49.155 381.816L53.603 381.144C53.7843 381.955 54.1843 382.589 54.803 383.048C55.4323 383.507 56.227 383.736 57.187 383.736C57.9763 383.736 58.5843 383.587 59.011 383.288C59.4377 382.979 59.651 382.552 59.651 382.008C59.651 381.667 59.5657 381.395 59.395 381.192C59.2243 380.979 58.8403 380.771 58.243 380.568C57.6563 380.365 56.739 380.099 55.491 379.768C54.083 379.405 52.9577 379 52.115 378.552C51.2723 378.104 50.6643 377.571 50.291 376.952C49.9177 376.323 49.731 375.565 49.731 374.68C49.731 373.571 50.0137 372.611 50.579 371.8C51.1443 370.979 51.939 370.349 52.963 369.912C53.9977 369.464 55.2137 369.24 56.611 369.24C57.9657 369.24 59.1657 369.448 60.211 369.864C61.2563 370.28 62.099 370.872 62.739 371.64C63.3897 372.408 63.7897 373.315 63.939 374.36L59.491 375.16C59.4163 374.52 59.139 374.013 58.659 373.64C58.179 373.267 57.5283 373.048 56.707 372.984C55.907 372.931 55.2617 373.037 54.771 373.304C54.291 373.571 54.051 373.955 54.051 374.456C54.051 374.755 54.1523 375.005 54.355 375.208C54.5683 375.411 55.0003 375.619 55.651 375.832C56.3123 376.045 57.315 376.323 58.659 376.664C59.971 377.005 61.0217 377.405 61.811 377.864C62.611 378.312 63.1923 378.856 63.555 379.496C63.9177 380.125 64.099 380.888 64.099 381.784C64.099 383.555 63.459 384.947 62.179 385.96C60.899 386.973 59.1283 387.48 56.867 387.48ZM77.983 387C76.7883 387.224 75.615 387.32 74.463 387.288C73.3217 387.267 72.2977 387.069 71.391 386.696C70.495 386.312 69.8123 385.699 69.343 384.856C68.9163 384.067 68.6923 383.267 68.671 382.456C68.6497 381.635 68.639 380.707 68.639 379.672V364.92H72.991V379.416C72.991 380.088 72.9963 380.696 73.007 381.24C73.0283 381.773 73.1403 382.2 73.343 382.52C73.727 383.128 74.3403 383.459 75.183 383.512C76.0257 383.565 76.959 383.523 77.983 383.384V387ZM65.695 373.08V369.72H77.983V373.08H65.695ZM82.1538 367.32V363.48H86.5058V367.32H82.1538ZM82.1538 387V369.72H86.5058V387H82.1538ZM112.103 387V376.792C112.103 375.651 111.831 374.765 111.287 374.136C110.753 373.496 110.012 373.176 109.062 373.176C108.455 373.176 107.927 373.32 107.479 373.608C107.031 373.885 106.679 374.28 106.423 374.792C106.177 375.293 106.055 375.875 106.055 376.536L104.231 375.32C104.231 374.136 104.508 373.091 105.062 372.184C105.628 371.277 106.38 370.573 107.319 370.072C108.268 369.56 109.319 369.304 110.471 369.304C112.444 369.304 113.932 369.891 114.935 371.064C115.948 372.227 116.455 373.752 116.455 375.64V387H112.103ZM91.2705 387V369.72H95.1105V375.448H95.6545V387H91.2705ZM101.703 387V376.792C101.703 375.651 101.431 374.765 100.887 374.136C100.353 373.496 99.6118 373.176 98.6625 373.176C97.7558 373.176 97.0252 373.491 96.4705 374.12C95.9265 374.739 95.6545 375.544 95.6545 376.536L93.8305 375.256C93.8305 374.125 94.1132 373.112 94.6785 372.216C95.2438 371.32 96.0012 370.611 96.9505 370.088C97.9105 369.565 98.9825 369.304 100.167 369.304C101.521 369.304 102.631 369.592 103.495 370.168C104.369 370.744 105.015 371.512 105.431 372.472C105.847 373.432 106.055 374.488 106.055 375.64V387H101.703ZM125.415 387.48C124.178 387.48 123.127 387.245 122.263 386.776C121.41 386.296 120.759 385.661 120.311 384.872C119.874 384.072 119.655 383.192 119.655 382.232C119.655 381.432 119.778 380.701 120.023 380.04C120.268 379.379 120.663 378.797 121.207 378.296C121.762 377.784 122.503 377.357 123.431 377.016C124.071 376.781 124.834 376.573 125.719 376.392C126.604 376.211 127.607 376.04 128.727 375.88C129.847 375.709 131.079 375.523 132.423 375.32L130.855 376.184C130.855 375.16 130.61 374.408 130.119 373.928C129.628 373.448 128.807 373.208 127.655 373.208C127.015 373.208 126.348 373.363 125.655 373.672C124.962 373.981 124.476 374.531 124.199 375.32L120.263 374.072C120.7 372.643 121.522 371.48 122.727 370.584C123.932 369.688 125.575 369.24 127.655 369.24C129.18 369.24 130.535 369.475 131.719 369.944C132.903 370.413 133.799 371.224 134.407 372.376C134.748 373.016 134.951 373.656 135.015 374.296C135.079 374.936 135.111 375.651 135.111 376.44V387H131.303V383.448L131.847 384.184C131.004 385.347 130.092 386.189 129.111 386.712C128.14 387.224 126.908 387.48 125.415 387.48ZM126.343 384.056C127.143 384.056 127.815 383.917 128.359 383.64C128.914 383.352 129.351 383.027 129.671 382.664C130.002 382.301 130.226 381.997 130.343 381.752C130.567 381.283 130.695 380.739 130.727 380.12C130.77 379.491 130.791 378.968 130.791 378.552L132.071 378.872C130.78 379.085 129.735 379.267 128.935 379.416C128.135 379.555 127.49 379.683 126.999 379.8C126.508 379.917 126.076 380.045 125.703 380.184C125.276 380.355 124.93 380.541 124.663 380.744C124.407 380.936 124.215 381.149 124.087 381.384C123.97 381.619 123.911 381.88 123.911 382.168C123.911 382.563 124.007 382.904 124.199 383.192C124.402 383.469 124.684 383.683 125.047 383.832C125.41 383.981 125.842 384.056 126.343 384.056ZM149.639 387C148.445 387.224 147.271 387.32 146.119 387.288C144.978 387.267 143.954 387.069 143.047 386.696C142.151 386.312 141.469 385.699 140.999 384.856C140.573 384.067 140.349 383.267 140.327 382.456C140.306 381.635 140.295 380.707 140.295 379.672V364.92H144.647V379.416C144.647 380.088 144.653 380.696 144.663 381.24C144.685 381.773 144.797 382.2 144.999 382.52C145.383 383.128 145.997 383.459 146.839 383.512C147.682 383.565 148.615 383.523 149.639 383.384V387ZM137.351 373.08V369.72H149.639V373.08H137.351ZM153.81 367.32V363.48H158.162V367.32H153.81ZM153.81 387V369.72H158.162V387H153.81ZM170.735 387.48C168.996 387.48 167.471 387.091 166.159 386.312C164.847 385.533 163.823 384.461 163.087 383.096C162.361 381.72 161.999 380.141 161.999 378.36C161.999 376.557 162.372 374.973 163.119 373.608C163.865 372.232 164.895 371.16 166.207 370.392C167.519 369.624 169.028 369.24 170.735 369.24C172.473 369.24 173.999 369.629 175.311 370.408C176.633 371.187 177.663 372.264 178.399 373.64C179.135 375.005 179.503 376.579 179.503 378.36C179.503 380.152 179.129 381.736 178.383 383.112C177.647 384.477 176.617 385.549 175.295 386.328C173.983 387.096 172.463 387.48 170.735 387.48ZM170.735 383.416C172.132 383.416 173.172 382.947 173.855 382.008C174.548 381.059 174.895 379.843 174.895 378.36C174.895 376.824 174.543 375.597 173.839 374.68C173.145 373.763 172.111 373.304 170.735 373.304C169.785 373.304 169.007 373.517 168.399 373.944C167.791 374.371 167.337 374.963 167.039 375.72C166.751 376.477 166.607 377.357 166.607 378.36C166.607 379.907 166.953 381.139 167.647 382.056C168.351 382.963 169.38 383.416 170.735 383.416ZM194.797 387V378.84C194.797 378.445 194.776 377.944 194.733 377.336C194.691 376.717 194.557 376.099 194.333 375.48C194.109 374.861 193.741 374.344 193.229 373.928C192.728 373.512 192.013 373.304 191.085 373.304C190.712 373.304 190.312 373.363 189.885 373.48C189.459 373.597 189.059 373.827 188.685 374.168C188.312 374.499 188.003 374.989 187.757 375.64C187.523 376.291 187.405 377.155 187.405 378.232L184.909 377.048C184.909 375.683 185.187 374.403 185.741 373.208C186.296 372.013 187.128 371.048 188.237 370.312C189.357 369.576 190.765 369.208 192.461 369.208C193.816 369.208 194.92 369.437 195.773 369.896C196.627 370.355 197.288 370.936 197.757 371.64C198.237 372.344 198.579 373.08 198.781 373.848C198.984 374.605 199.107 375.299 199.149 375.928C199.192 376.557 199.213 377.016 199.213 377.304V387H194.797ZM182.989 387V369.72H186.861V375.448H187.405V387H182.989Z" fill="white"/>
<path d="M78.1914 131.044V159.873H45.3359V127.777H78.1914V131.044Z" stroke="white" stroke-width="3" stroke-miterlimit="10"/>
<path d="M120.3 131.044V159.873H87.4961V127.777H120.3V131.044Z" stroke="white" stroke-width="3" stroke-miterlimit="10"/>
<path d="M78.1914 175.584V204.361H45.3359V172.266H78.1914V175.584Z" stroke="white" stroke-width="3" stroke-miterlimit="10"/>
<path d="M120.3 175.584V204.361H87.4961V172.266H120.3V175.584Z" stroke="white" stroke-width="3" stroke-miterlimit="10"/>
<path d="M166.465 134.466V204.36H133.609V126.43H166.465V134.466Z" stroke="white" stroke-width="3" stroke-miterlimit="10"/>
<path d="M54.2773 143.801H69.2495" stroke="white" stroke-width="3" stroke-miterlimit="10"/>
<path d="M61.7578 137.059V151.94" stroke="white" stroke-width="3" stroke-miterlimit="10"/>
<path d="M97.4258 143.801H111.098" stroke="white" stroke-width="3" stroke-miterlimit="10"/>
<path d="M84.3555 106.371H98.0279" stroke="white" stroke-width="3" stroke-miterlimit="10"/>
<path d="M54.2773 182.379L69.2495 195.964" stroke="white" stroke-width="3" stroke-miterlimit="10"/>
<path d="M69.2495 182.379L54.2773 197.26" stroke="white" stroke-width="3" stroke-miterlimit="10"/>
<path d="M111.354 182.379L96.4336 195.964" stroke="white" stroke-width="3" stroke-miterlimit="10"/>
<path d="M141.25 159.875H159.809" stroke="white" stroke-width="3" stroke-miterlimit="10"/>
<path d="M141.25 168.48H159.809" stroke="white" stroke-width="3" stroke-miterlimit="10"/>
<rect x="31.5" y="38.9805" width="148.254" height="185.52" rx="25.5" stroke="white" stroke-width="3"/>
<rect x="44.2812" y="52.2422" width="121.381" height="65.1541" rx="12.5" stroke="white" stroke-width="3"/>
<path d="M65.154 108.87V60.1133H68.4045V108.87H65.154ZM76.0945 74.7402C75.8567 72.8103 74.8921 71.312 73.2008 70.2455C71.5095 69.1789 69.4351 68.6456 66.9775 68.6456C65.1805 68.6456 63.6081 68.925 62.2604 69.4836C60.9258 70.0423 59.882 70.8105 59.1289 71.7881C58.3889 72.7658 58.019 73.8768 58.019 75.1211C58.019 76.1623 58.2766 77.0574 58.7919 77.8065C59.3205 78.5429 59.9943 79.1587 60.8135 79.6539C61.6327 80.1364 62.4916 80.5364 63.3901 80.8538C64.2886 81.1585 65.1144 81.4061 65.8675 81.5966L69.99 82.6631C71.0471 82.9297 72.2231 83.298 73.5179 83.7677C74.826 84.2375 76.0747 84.8787 77.2639 85.6913C78.4662 86.4912 79.4572 87.5197 80.2368 88.7767C81.0164 90.0337 81.4062 91.5764 81.4062 93.4047C81.4062 95.5124 80.8314 97.417 79.6819 99.1184C78.5455 100.82 76.8807 102.172 74.6873 103.175C72.5071 104.178 69.8579 104.68 66.7396 104.68C63.8327 104.68 61.3156 104.229 59.1883 103.327C57.0742 102.426 55.4094 101.169 54.1938 99.5564C52.9914 97.9439 52.3109 96.0711 52.1523 93.938H57.2262C57.3583 95.4109 57.8736 96.6298 58.7721 97.5947C59.6838 98.547 60.8334 99.258 62.2207 99.7278C63.6213 100.185 65.1276 100.413 66.7396 100.413C68.6159 100.413 70.3005 100.121 71.7936 99.5374C73.2867 98.9406 74.4693 98.1153 75.3413 97.0615C76.2134 95.9949 76.6494 94.7506 76.6494 93.3286C76.6494 92.0335 76.2729 90.9796 75.5197 90.167C74.7666 89.3544 73.7756 88.6942 72.5468 88.1863C71.318 87.6784 69.99 87.234 68.563 86.8531L63.5685 85.4818C60.3973 84.6057 57.8868 83.3551 56.037 81.7299C54.1872 80.1047 53.2622 77.9779 53.2622 75.3496C53.2622 73.1658 53.8767 71.2612 55.1055 69.636C56.3475 67.9981 58.0124 66.7284 60.1 65.8269C62.2009 64.9127 64.5462 64.4556 67.136 64.4556C69.7522 64.4556 72.0777 64.9064 74.1125 65.8079C76.1473 66.6967 77.7593 67.9156 78.9485 69.4646C80.1509 71.0136 80.7852 72.7722 80.8512 74.7402H76.0945Z" fill="white"/>
<rect x="127.77" y="33.5" width="66.8579" height="71.1176" rx="12.5" fill="#525252" stroke="white" stroke-width="3"/>
<path d="M143.732 76.6934L179.021 76.6939M143.732 76.6934C142.805 59.7073 148.843 50.3164 161.622 50.3164C180.365 50.3164 179.407 70.0096 179.021 76.6939M143.732 76.6934L140.324 80.8225L142.028 86.0979L147.157 89.0796H174.384L179.513 86.0979L182.069 80.8225L179.021 76.6939" stroke="white" stroke-width="3"/>
<path d="M151.824 52.8711L151.824 75.8731" stroke="white" stroke-width="3"/>
<path d="M161.625 50.7422V76.3" stroke="white" stroke-width="3"/>
<path d="M171.844 53.2988L171.844 75.4489" stroke="white" stroke-width="3"/>
</g>
<defs>
<clipPath id="clip0_5_8027">
<rect width="353" height="420" fill="white"/>
</clipPath>
</defs>
</svg>
