<svg width="353" height="420" viewBox="0 0 353 420" fill="none" xmlns="http://www.w3.org/2000/svg">
<g clip-path="url(#clip0_5_8088)">
<rect width="353" height="420" rx="22" fill="white" fill-opacity="0.03"/>
<rect x="1.5" y="1.5" width="350" height="417" rx="20.5" stroke="white" stroke-opacity="0.6" stroke-width="3"/>
<path d="M41.128 343.48C38.824 343.48 36.8347 342.979 35.16 341.976C33.496 340.973 32.2107 339.571 31.304 337.768C30.408 335.965 29.96 333.869 29.96 331.48C29.96 329.091 30.408 326.995 31.304 325.192C32.2107 323.389 33.496 321.987 35.16 320.984C36.8347 319.981 38.824 319.48 41.128 319.48C43.7733 319.48 45.992 320.136 47.784 321.448C49.5867 322.76 50.856 324.536 51.592 326.776L47.208 327.992C46.7813 326.595 46.0613 325.512 45.048 324.744C44.0347 323.965 42.728 323.576 41.128 323.576C39.6667 323.576 38.4453 323.901 37.464 324.552C36.4933 325.203 35.7627 326.12 35.272 327.304C34.7813 328.488 34.536 329.88 34.536 331.48C34.536 333.08 34.7813 334.472 35.272 335.656C35.7627 336.84 36.4933 337.757 37.464 338.408C38.4453 339.059 39.6667 339.384 41.128 339.384C42.728 339.384 44.0347 338.995 45.048 338.216C46.0613 337.437 46.7813 336.355 47.208 334.968L51.592 336.184C50.856 338.424 49.5867 340.2 47.784 341.512C45.992 342.824 43.7733 343.48 41.128 343.48ZM62.891 343.48C61.1523 343.48 59.627 343.091 58.315 342.312C57.003 341.533 55.979 340.461 55.243 339.096C54.5177 337.72 54.155 336.141 54.155 334.36C54.155 332.557 54.5283 330.973 55.275 329.608C56.0217 328.232 57.051 327.16 58.363 326.392C59.675 325.624 61.1843 325.24 62.891 325.24C64.6297 325.24 66.155 325.629 67.467 326.408C68.7897 327.187 69.819 328.264 70.555 329.64C71.291 331.005 71.659 332.579 71.659 334.36C71.659 336.152 71.2857 337.736 70.539 339.112C69.803 340.477 68.7737 341.549 67.451 342.328C66.139 343.096 64.619 343.48 62.891 343.48ZM62.891 339.416C64.2883 339.416 65.3283 338.947 66.011 338.008C66.7043 337.059 67.051 335.843 67.051 334.36C67.051 332.824 66.699 331.597 65.995 330.68C65.3017 329.763 64.267 329.304 62.891 329.304C61.9417 329.304 61.163 329.517 60.555 329.944C59.947 330.371 59.4937 330.963 59.195 331.72C58.907 332.477 58.763 333.357 58.763 334.36C58.763 335.907 59.1097 337.139 59.803 338.056C60.507 338.963 61.5363 339.416 62.891 339.416ZM86.9535 343V334.84C86.9535 334.445 86.9322 333.944 86.8895 333.336C86.8468 332.717 86.7135 332.099 86.4895 331.48C86.2655 330.861 85.8975 330.344 85.3855 329.928C84.8842 329.512 84.1695 329.304 83.2415 329.304C82.8682 329.304 82.4682 329.363 82.0415 329.48C81.6148 329.597 81.2148 329.827 80.8415 330.168C80.4682 330.499 80.1588 330.989 79.9135 331.64C79.6788 332.291 79.5615 333.155 79.5615 334.232L77.0655 333.048C77.0655 331.683 77.3428 330.403 77.8975 329.208C78.4522 328.013 79.2842 327.048 80.3935 326.312C81.5135 325.576 82.9215 325.208 84.6175 325.208C85.9722 325.208 87.0762 325.437 87.9295 325.896C88.7828 326.355 89.4442 326.936 89.9135 327.64C90.3935 328.344 90.7348 329.08 90.9375 329.848C91.1402 330.605 91.2628 331.299 91.3055 331.928C91.3482 332.557 91.3695 333.016 91.3695 333.304V343H86.9535ZM75.1455 343V325.72H79.0175V331.448H79.5615V343H75.1455ZM102.273 343.48C100.097 343.48 98.3373 342.989 96.9933 342.008C95.6599 341.016 94.8493 339.619 94.5613 337.816L99.0093 337.144C99.1906 337.955 99.5906 338.589 100.209 339.048C100.839 339.507 101.633 339.736 102.593 339.736C103.383 339.736 103.991 339.587 104.417 339.288C104.844 338.979 105.057 338.552 105.057 338.008C105.057 337.667 104.972 337.395 104.801 337.192C104.631 336.979 104.247 336.771 103.649 336.568C103.063 336.365 102.145 336.099 100.897 335.768C99.4893 335.405 98.3639 335 97.5213 334.552C96.6786 334.104 96.0706 333.571 95.6973 332.952C95.3239 332.323 95.1373 331.565 95.1373 330.68C95.1373 329.571 95.4199 328.611 95.9853 327.8C96.5506 326.979 97.3453 326.349 98.3693 325.912C99.4039 325.464 100.62 325.24 102.017 325.24C103.372 325.24 104.572 325.448 105.617 325.864C106.663 326.28 107.505 326.872 108.145 327.64C108.796 328.408 109.196 329.315 109.345 330.36L104.897 331.16C104.823 330.52 104.545 330.013 104.065 329.64C103.585 329.267 102.935 329.048 102.113 328.984C101.313 328.931 100.668 329.037 100.177 329.304C99.6973 329.571 99.4573 329.955 99.4573 330.456C99.4573 330.755 99.5586 331.005 99.7613 331.208C99.9746 331.411 100.407 331.619 101.057 331.832C101.719 332.045 102.721 332.323 104.065 332.664C105.377 333.005 106.428 333.405 107.217 333.864C108.017 334.312 108.599 334.856 108.961 335.496C109.324 336.125 109.505 336.888 109.505 337.784C109.505 339.555 108.865 340.947 107.585 341.96C106.305 342.973 104.535 343.48 102.273 343.48ZM123.389 343C122.195 343.224 121.021 343.32 119.869 343.288C118.728 343.267 117.704 343.069 116.797 342.696C115.901 342.312 115.219 341.699 114.749 340.856C114.323 340.067 114.099 339.267 114.077 338.456C114.056 337.635 114.045 336.707 114.045 335.672V320.92H118.397V335.416C118.397 336.088 118.403 336.696 118.413 337.24C118.435 337.773 118.547 338.2 118.749 338.52C119.133 339.128 119.747 339.459 120.589 339.512C121.432 339.565 122.365 339.523 123.389 339.384V343ZM111.101 329.08V325.72H123.389V329.08H111.101ZM127.24 343V325.72H131.08V329.944L130.664 329.4C130.888 328.803 131.187 328.259 131.56 327.768C131.933 327.277 132.392 326.872 132.936 326.552C133.352 326.296 133.805 326.099 134.296 325.96C134.787 325.811 135.293 325.72 135.816 325.688C136.339 325.645 136.861 325.656 137.384 325.72V329.784C136.904 329.635 136.344 329.587 135.704 329.64C135.075 329.683 134.504 329.827 133.992 330.072C133.48 330.307 133.048 330.621 132.696 331.016C132.344 331.4 132.077 331.859 131.896 332.392C131.715 332.915 131.624 333.507 131.624 334.168V343H127.24ZM146.86 343.512C145.505 343.512 144.401 343.283 143.548 342.824C142.694 342.365 142.028 341.784 141.548 341.08C141.078 340.376 140.742 339.645 140.539 338.888C140.337 338.12 140.214 337.421 140.172 336.792C140.129 336.163 140.108 335.704 140.108 335.416V325.72H144.524V333.88C144.524 334.275 144.545 334.781 144.588 335.4C144.63 336.008 144.764 336.621 144.988 337.24C145.212 337.859 145.574 338.376 146.076 338.792C146.588 339.208 147.308 339.416 148.236 339.416C148.609 339.416 149.009 339.357 149.436 339.24C149.862 339.123 150.262 338.899 150.636 338.568C151.009 338.227 151.313 337.731 151.548 337.08C151.793 336.419 151.916 335.555 151.916 334.488L154.412 335.672C154.412 337.037 154.134 338.317 153.58 339.512C153.025 340.707 152.188 341.672 151.068 342.408C149.958 343.144 148.556 343.512 146.86 343.512ZM152.46 343V337.272H151.916V325.72H156.3V343H152.46ZM168.387 343.48C166.595 343.48 165.059 343.08 163.779 342.28C162.499 341.48 161.518 340.392 160.835 339.016C160.153 337.64 159.811 336.088 159.811 334.36C159.811 332.611 160.163 331.048 160.867 329.672C161.582 328.296 162.585 327.213 163.875 326.424C165.166 325.635 166.691 325.24 168.451 325.24C170.489 325.24 172.195 325.757 173.571 326.792C174.958 327.816 175.843 329.219 176.227 331L171.875 332.152C171.619 331.256 171.171 330.557 170.531 330.056C169.902 329.555 169.187 329.304 168.387 329.304C167.47 329.304 166.718 329.528 166.131 329.976C165.545 330.413 165.113 331.016 164.835 331.784C164.558 332.541 164.419 333.4 164.419 334.36C164.419 335.864 164.75 337.085 165.411 338.024C166.083 338.952 167.075 339.416 168.387 339.416C169.369 339.416 170.115 339.192 170.627 338.744C171.139 338.296 171.523 337.656 171.779 336.824L176.227 337.752C175.737 339.587 174.809 341 173.443 341.992C172.078 342.984 170.393 343.48 168.387 343.48ZM189.796 343C188.601 343.224 187.428 343.32 186.276 343.288C185.134 343.267 184.11 343.069 183.204 342.696C182.308 342.312 181.625 341.699 181.156 340.856C180.729 340.067 180.505 339.267 180.484 338.456C180.462 337.635 180.452 336.707 180.452 335.672V320.92H184.804V335.416C184.804 336.088 184.809 336.696 184.82 337.24C184.841 337.773 184.953 338.2 185.156 338.52C185.54 339.128 186.153 339.459 186.996 339.512C187.838 339.565 188.772 339.523 189.796 339.384V343ZM177.508 329.08V325.72H189.796V329.08H177.508ZM193.966 323.32V319.48H198.318V323.32H193.966ZM193.966 343V325.72H198.318V343H193.966ZM210.891 343.48C209.152 343.48 207.627 343.091 206.315 342.312C205.003 341.533 203.979 340.461 203.243 339.096C202.518 337.72 202.155 336.141 202.155 334.36C202.155 332.557 202.528 330.973 203.275 329.608C204.022 328.232 205.051 327.16 206.363 326.392C207.675 325.624 209.184 325.24 210.891 325.24C212.63 325.24 214.155 325.629 215.467 326.408C216.79 327.187 217.819 328.264 218.555 329.64C219.291 331.005 219.659 332.579 219.659 334.36C219.659 336.152 219.286 337.736 218.539 339.112C217.803 340.477 216.774 341.549 215.451 342.328C214.139 343.096 212.619 343.48 210.891 343.48ZM210.891 339.416C212.288 339.416 213.328 338.947 214.011 338.008C214.704 337.059 215.051 335.843 215.051 334.36C215.051 332.824 214.699 331.597 213.995 330.68C213.302 329.763 212.267 329.304 210.891 329.304C209.942 329.304 209.163 329.517 208.555 329.944C207.947 330.371 207.494 330.963 207.195 331.72C206.907 332.477 206.763 333.357 206.763 334.36C206.763 335.907 207.11 337.139 207.803 338.056C208.507 338.963 209.536 339.416 210.891 339.416ZM234.954 343V334.84C234.954 334.445 234.932 333.944 234.89 333.336C234.847 332.717 234.714 332.099 234.49 331.48C234.266 330.861 233.898 330.344 233.386 329.928C232.884 329.512 232.17 329.304 231.242 329.304C230.868 329.304 230.468 329.363 230.042 329.48C229.615 329.597 229.215 329.827 228.842 330.168C228.468 330.499 228.159 330.989 227.914 331.64C227.679 332.291 227.562 333.155 227.562 334.232L225.066 333.048C225.066 331.683 225.343 330.403 225.898 329.208C226.452 328.013 227.284 327.048 228.394 326.312C229.514 325.576 230.922 325.208 232.618 325.208C233.972 325.208 235.076 325.437 235.93 325.896C236.783 326.355 237.444 326.936 237.914 327.64C238.394 328.344 238.735 329.08 238.938 329.848C239.14 330.605 239.263 331.299 239.306 331.928C239.348 332.557 239.37 333.016 239.37 333.304V343H234.954ZM223.146 343V325.72H227.018V331.448H227.562V343H223.146ZM36.584 387V368.024H29.32V363.96H48.2V368.024H40.936V387H36.584ZM53.3213 387.48C52.0839 387.48 51.0333 387.245 50.1693 386.776C49.3159 386.296 48.6653 385.661 48.2173 384.872C47.7799 384.072 47.5613 383.192 47.5613 382.232C47.5613 381.432 47.6839 380.701 47.9293 380.04C48.1746 379.379 48.5693 378.797 49.1133 378.296C49.6679 377.784 50.4093 377.357 51.3373 377.016C51.9773 376.781 52.7399 376.573 53.6253 376.392C54.5106 376.211 55.5133 376.04 56.6333 375.88C57.7533 375.709 58.9853 375.523 60.3293 375.32L58.7613 376.184C58.7613 375.16 58.5159 374.408 58.0253 373.928C57.5346 373.448 56.7133 373.208 55.5613 373.208C54.9213 373.208 54.2546 373.363 53.5613 373.672C52.8679 373.981 52.3826 374.531 52.1053 375.32L48.1693 374.072C48.6066 372.643 49.4279 371.48 50.6333 370.584C51.8386 369.688 53.4813 369.24 55.5613 369.24C57.0866 369.24 58.4413 369.475 59.6253 369.944C60.8093 370.413 61.7053 371.224 62.3133 372.376C62.6546 373.016 62.8573 373.656 62.9213 374.296C62.9853 374.936 63.0173 375.651 63.0173 376.44V387H59.2093V383.448L59.7533 384.184C58.9106 385.347 57.9986 386.189 57.0173 386.712C56.0466 387.224 54.8146 387.48 53.3213 387.48ZM54.2493 384.056C55.0493 384.056 55.7213 383.917 56.2653 383.64C56.8199 383.352 57.2573 383.027 57.5773 382.664C57.9079 382.301 58.1319 381.997 58.2493 381.752C58.4733 381.283 58.6013 380.739 58.6333 380.12C58.6759 379.491 58.6973 378.968 58.6973 378.552L59.9773 378.872C58.6866 379.085 57.6413 379.267 56.8413 379.416C56.0413 379.555 55.3959 379.683 54.9053 379.8C54.4146 379.917 53.9826 380.045 53.6093 380.184C53.1826 380.355 52.8359 380.541 52.5693 380.744C52.3133 380.936 52.1213 381.149 51.9933 381.384C51.8759 381.619 51.8173 381.88 51.8173 382.168C51.8173 382.563 51.9133 382.904 52.1053 383.192C52.3079 383.469 52.5906 383.683 52.9533 383.832C53.3159 383.981 53.7479 384.056 54.2493 384.056ZM67.1455 387L67.1775 363.96H71.5935V378.04L77.4495 369.72H82.8255L76.5855 378.36L83.2415 387H77.5775L71.5935 378.68V387H67.1455ZM92.5533 387.48C90.7826 387.48 89.2199 387.101 87.8653 386.344C86.5213 385.576 85.4653 384.525 84.6973 383.192C83.9399 381.848 83.5613 380.312 83.5613 378.584C83.5613 376.696 83.9346 375.053 84.6813 373.656C85.4279 372.259 86.4573 371.176 87.7693 370.408C89.0813 369.629 90.5906 369.24 92.2973 369.24C94.1106 369.24 95.6519 369.667 96.9213 370.52C98.1906 371.373 99.1293 372.573 99.7373 374.12C100.345 375.667 100.559 377.485 100.377 379.576H96.0733V377.976C96.0733 376.216 95.7906 374.952 95.2253 374.184C94.6706 373.405 93.7586 373.016 92.4893 373.016C91.0066 373.016 89.9133 373.469 89.2093 374.376C88.5159 375.272 88.1693 376.6 88.1693 378.36C88.1693 379.971 88.5159 381.219 89.2093 382.104C89.9133 382.979 90.9426 383.416 92.2973 383.416C93.1506 383.416 93.8813 383.229 94.4893 382.856C95.0973 382.483 95.5613 381.944 95.8813 381.24L100.233 382.488C99.5826 384.067 98.5533 385.293 97.1453 386.168C95.7479 387.043 94.2173 387.48 92.5533 387.48ZM86.8253 379.576V376.344H98.2812V379.576H86.8253ZM111.766 387.48C110.027 387.48 108.502 387.091 107.19 386.312C105.878 385.533 104.854 384.461 104.118 383.096C103.393 381.72 103.03 380.141 103.03 378.36C103.03 376.557 103.403 374.973 104.15 373.608C104.897 372.232 105.926 371.16 107.238 370.392C108.55 369.624 110.059 369.24 111.766 369.24C113.505 369.24 115.03 369.629 116.342 370.408C117.665 371.187 118.694 372.264 119.43 373.64C120.166 375.005 120.534 376.579 120.534 378.36C120.534 380.152 120.161 381.736 119.414 383.112C118.678 384.477 117.649 385.549 116.326 386.328C115.014 387.096 113.494 387.48 111.766 387.48ZM111.766 383.416C113.163 383.416 114.203 382.947 114.886 382.008C115.579 381.059 115.926 379.843 115.926 378.36C115.926 376.824 115.574 375.597 114.87 374.68C114.177 373.763 113.142 373.304 111.766 373.304C110.817 373.304 110.038 373.517 109.43 373.944C108.822 374.371 108.369 374.963 108.07 375.72C107.782 376.477 107.638 377.357 107.638 378.36C107.638 379.907 107.985 381.139 108.678 382.056C109.382 382.963 110.411 383.416 111.766 383.416ZM125.493 387V369.784C125.493 369.347 125.503 368.851 125.525 368.296C125.546 367.741 125.631 367.181 125.781 366.616C125.941 366.051 126.229 365.539 126.645 365.08C127.178 364.483 127.754 364.077 128.373 363.864C129.002 363.64 129.61 363.523 130.197 363.512C130.783 363.491 131.285 363.48 131.701 363.48H133.845V367H131.861C131.178 367 130.671 367.176 130.341 367.528C130.01 367.869 129.845 368.28 129.845 368.76V387H125.493ZM122.773 373.08V369.72H133.845V373.08H122.773ZM136.565 387V369.784C136.565 369.347 136.575 368.851 136.597 368.296C136.618 367.741 136.703 367.181 136.853 366.616C137.013 366.051 137.301 365.539 137.717 365.08C138.25 364.483 138.826 364.077 139.444 363.864C140.074 363.64 140.682 363.523 141.269 363.512C141.855 363.491 142.357 363.48 142.773 363.48H144.917V367H142.933C142.25 367 141.743 367.176 141.413 367.528C141.082 367.869 140.917 368.28 140.917 368.76V387H136.565ZM133.845 373.08V369.72H144.917V373.08H133.845Z" fill="white"/>
<path d="M108.505 128.353H98.5201V147.448H78.7639V135.841L64.1873 127.444L54.9499 136.697L41.7614 123.486L51.2657 114.018L42.6158 100.112L29 99.2025V81.0169L44.6448 80.5355C46.3534 75.1868 48.0087 70.1055 49.6639 64.8638L40.5867 55.771L54.0956 42.3457L62.3717 50.6362L77.9631 45.9828V32.0762H98.1463V45.5014L111.548 50.8501L123.509 38.9225L130.557 47.8014" stroke="white" stroke-width="3" stroke-miterlimit="10"/>
<path d="M98.9457 65.9879C95.3847 65.2159 91.7037 65.1822 88.1292 65.8889C84.5547 66.5956 81.1625 68.0277 78.1613 70.0971C75.1602 72.1665 72.6136 74.8293 70.6785 77.9217C68.7433 81.014 67.4603 84.4704 66.9088 88.0781C66.6632 94.6826 68.9124 101.137 73.2077 106.154C77.503 111.17 83.5286 114.38 90.0821 115.143" stroke="white" stroke-width="3" stroke-miterlimit="10"/>
<path d="M101.459 93.9615C100.823 88.5105 101.413 82.9859 103.187 77.7934C104.961 72.6009 107.874 67.8724 111.711 63.9552C118.976 57.2972 128.57 53.7798 138.409 54.1671C148.039 53.5596 157.551 56.5517 165.106 62.5646C169.404 66.5001 172.789 71.3319 175.021 76.7195C177.254 82.1072 178.28 87.9197 178.027 93.7476L101.459 93.9615Z" stroke="white" stroke-width="3" stroke-miterlimit="10"/>
<path d="M183.527 94.0156H93.9844V104.499H183.527V94.0156Z" stroke="white" stroke-width="3" stroke-miterlimit="10"/>
<path d="M101.246 105.569C102.343 116.222 106.902 126.219 114.221 134.025C120.33 140.497 128.112 145.144 136.7 147.45C147.382 145.994 157.264 140.984 164.76 133.223C172.255 125.462 176.928 115.402 178.028 104.66L101.246 105.569Z" stroke="white" stroke-width="3" stroke-miterlimit="10"/>
<path d="M155.544 140.547V154.186C158.855 153.491 180.533 149.372 196.925 163.493C201.702 167.694 205.494 172.899 208.031 178.737V221.526H65.5742V177.079C70.039 169.825 76.346 163.889 83.8508 159.876C91.3556 155.863 99.7892 153.918 108.29 154.24C112.283 154.401 116.243 155.029 120.09 156.112V140.547" stroke="white" stroke-width="3" stroke-miterlimit="10"/>
<path d="M138.727 220.565V193.929L171.671 154.562L172.792 153.332" stroke="white" stroke-width="3" stroke-miterlimit="10"/>
<path d="M107.117 154.242L138.727 193.93" stroke="white" stroke-width="3" stroke-miterlimit="10"/>
<path d="M79.6719 162.426C83.4163 165.298 86.435 169.011 88.4846 173.266C90.5342 177.521 91.5575 182.199 91.4721 186.923V220.513H186.408C186.408 209.245 186.266 197.941 185.981 186.602C185.953 181.463 187.279 176.408 189.825 171.946C191.742 168.621 194.301 165.711 197.354 163.389" stroke="white" stroke-width="3" stroke-miterlimit="10"/>
<path d="M138.516 54.166L138.355 68.0727" stroke="white" stroke-width="3" stroke-miterlimit="10"/>
</g>
<defs>
<clipPath id="clip0_5_8088">
<rect width="353" height="420" fill="white"/>
</clipPath>
</defs>
</svg>
