<svg width="353" height="420" viewBox="0 0 353 420" fill="none" xmlns="http://www.w3.org/2000/svg">
<g clip-path="url(#clip0_5_8005)">
<rect width="353" height="420" rx="22" fill="white" fill-opacity="0.03"/>
<rect x="1.5" y="1.5" width="350" height="417" rx="20.5" stroke="white" stroke-opacity="0.59" stroke-width="3"/>
<path d="M41.128 387.48C38.824 387.48 36.8347 386.979 35.16 385.976C33.496 384.973 32.2107 383.571 31.304 381.768C30.408 379.965 29.96 377.869 29.96 375.48C29.96 373.091 30.408 370.995 31.304 369.192C32.2107 367.389 33.496 365.987 35.16 364.984C36.8347 363.981 38.824 363.48 41.128 363.48C43.7733 363.48 45.992 364.136 47.784 365.448C49.5867 366.76 50.856 368.536 51.592 370.776L47.208 371.992C46.7813 370.595 46.0613 369.512 45.048 368.744C44.0347 367.965 42.728 367.576 41.128 367.576C39.6667 367.576 38.4453 367.901 37.464 368.552C36.4933 369.203 35.7627 370.12 35.272 371.304C34.7813 372.488 34.536 373.88 34.536 375.48C34.536 377.08 34.7813 378.472 35.272 379.656C35.7627 380.84 36.4933 381.757 37.464 382.408C38.4453 383.059 39.6667 383.384 41.128 383.384C42.728 383.384 44.0347 382.995 45.048 382.216C46.0613 381.437 46.7813 380.355 47.208 378.968L51.592 380.184C50.856 382.424 49.5867 384.2 47.784 385.512C45.992 386.824 43.7733 387.48 41.128 387.48ZM62.891 387.48C61.1523 387.48 59.627 387.091 58.315 386.312C57.003 385.533 55.979 384.461 55.243 383.096C54.5177 381.72 54.155 380.141 54.155 378.36C54.155 376.557 54.5283 374.973 55.275 373.608C56.0217 372.232 57.051 371.16 58.363 370.392C59.675 369.624 61.1843 369.24 62.891 369.24C64.6297 369.24 66.155 369.629 67.467 370.408C68.7897 371.187 69.819 372.264 70.555 373.64C71.291 375.005 71.659 376.579 71.659 378.36C71.659 380.152 71.2857 381.736 70.539 383.112C69.803 384.477 68.7737 385.549 67.451 386.328C66.139 387.096 64.619 387.48 62.891 387.48ZM62.891 383.416C64.2883 383.416 65.3283 382.947 66.011 382.008C66.7043 381.059 67.051 379.843 67.051 378.36C67.051 376.824 66.699 375.597 65.995 374.68C65.3017 373.763 64.267 373.304 62.891 373.304C61.9417 373.304 61.163 373.517 60.555 373.944C59.947 374.371 59.4937 374.963 59.195 375.72C58.907 376.477 58.763 377.357 58.763 378.36C58.763 379.907 59.1097 381.139 59.803 382.056C60.507 382.963 61.5363 383.416 62.891 383.416ZM81.4608 387.48C79.2848 387.48 77.5248 386.989 76.1808 386.008C74.8474 385.016 74.0368 383.619 73.7488 381.816L78.1968 381.144C78.3781 381.955 78.7781 382.589 79.3968 383.048C80.0261 383.507 80.8208 383.736 81.7808 383.736C82.5701 383.736 83.1781 383.587 83.6048 383.288C84.0314 382.979 84.2448 382.552 84.2448 382.008C84.2448 381.667 84.1594 381.395 83.9888 381.192C83.8181 380.979 83.4341 380.771 82.8368 380.568C82.2501 380.365 81.3328 380.099 80.0848 379.768C78.6768 379.405 77.5514 379 76.7088 378.552C75.8661 378.104 75.2581 377.571 74.8848 376.952C74.5114 376.323 74.3248 375.565 74.3248 374.68C74.3248 373.571 74.6074 372.611 75.1728 371.8C75.7381 370.979 76.5328 370.349 77.5568 369.912C78.5914 369.464 79.8074 369.24 81.2048 369.24C82.5594 369.24 83.7594 369.448 84.8048 369.864C85.8501 370.28 86.6928 370.872 87.3328 371.64C87.9834 372.408 88.3834 373.315 88.5328 374.36L84.0848 375.16C84.0101 374.52 83.7328 374.013 83.2528 373.64C82.7728 373.267 82.1221 373.048 81.3008 372.984C80.5008 372.931 79.8554 373.037 79.3648 373.304C78.8848 373.571 78.6448 373.955 78.6448 374.456C78.6448 374.755 78.7461 375.005 78.9488 375.208C79.1621 375.411 79.5941 375.619 80.2448 375.832C80.9061 376.045 81.9088 376.323 83.2528 376.664C84.5648 377.005 85.6154 377.405 86.4048 377.864C87.2048 378.312 87.7861 378.856 88.1488 379.496C88.5114 380.125 88.6928 380.888 88.6928 381.784C88.6928 383.555 88.0528 384.947 86.7728 385.96C85.4928 386.973 83.7221 387.48 81.4608 387.48ZM102.577 387C101.382 387.224 100.209 387.32 99.0568 387.288C97.9154 387.267 96.8914 387.069 95.9848 386.696C95.0888 386.312 94.4061 385.699 93.9368 384.856C93.5101 384.067 93.2861 383.267 93.2648 382.456C93.2434 381.635 93.2328 380.707 93.2328 379.672V364.92H97.5848V379.416C97.5848 380.088 97.5901 380.696 97.6008 381.24C97.6221 381.773 97.7341 382.2 97.9368 382.52C98.3208 383.128 98.9341 383.459 99.7768 383.512C100.619 383.565 101.553 383.523 102.577 383.384V387ZM90.2888 373.08V369.72H102.577V373.08H90.2888ZM112.834 387V363.96H127.874V368.024H117.186V372.952H125.954V377.016H117.186V382.936H127.874V387H112.834ZM138.461 387.48C136.285 387.48 134.525 386.989 133.181 386.008C131.847 385.016 131.037 383.619 130.749 381.816L135.197 381.144C135.378 381.955 135.778 382.589 136.397 383.048C137.026 383.507 137.821 383.736 138.781 383.736C139.57 383.736 140.178 383.587 140.605 383.288C141.031 382.979 141.245 382.552 141.245 382.008C141.245 381.667 141.159 381.395 140.989 381.192C140.818 380.979 140.434 380.771 139.837 380.568C139.25 380.365 138.333 380.099 137.085 379.768C135.677 379.405 134.551 379 133.709 378.552C132.866 378.104 132.258 377.571 131.885 376.952C131.511 376.323 131.325 375.565 131.325 374.68C131.325 373.571 131.607 372.611 132.173 371.8C132.738 370.979 133.533 370.349 134.557 369.912C135.591 369.464 136.807 369.24 138.205 369.24C139.559 369.24 140.759 369.448 141.805 369.864C142.85 370.28 143.693 370.872 144.333 371.64C144.983 372.408 145.383 373.315 145.533 374.36L141.085 375.16C141.01 374.52 140.733 374.013 140.253 373.64C139.773 373.267 139.122 373.048 138.301 372.984C137.501 372.931 136.855 373.037 136.365 373.304C135.885 373.571 135.645 373.955 135.645 374.456C135.645 374.755 135.746 375.005 135.949 375.208C136.162 375.411 136.594 375.619 137.245 375.832C137.906 376.045 138.909 376.323 140.253 376.664C141.565 377.005 142.615 377.405 143.405 377.864C144.205 378.312 144.786 378.856 145.149 379.496C145.511 380.125 145.693 380.888 145.693 381.784C145.693 383.555 145.053 384.947 143.773 385.96C142.493 386.973 140.722 387.48 138.461 387.48ZM159.577 387C158.382 387.224 157.209 387.32 156.057 387.288C154.915 387.267 153.891 387.069 152.985 386.696C152.089 386.312 151.406 385.699 150.937 384.856C150.51 384.067 150.286 383.267 150.265 382.456C150.243 381.635 150.233 380.707 150.233 379.672V364.92H154.585V379.416C154.585 380.088 154.59 380.696 154.601 381.24C154.622 381.773 154.734 382.2 154.937 382.52C155.321 383.128 155.934 383.459 156.777 383.512C157.619 383.565 158.553 383.523 159.577 383.384V387ZM147.289 373.08V369.72H159.577V373.08H147.289ZM163.748 367.32V363.48H168.1V367.32H163.748ZM163.748 387V369.72H168.1V387H163.748ZM193.696 387V376.792C193.696 375.651 193.424 374.765 192.88 374.136C192.347 373.496 191.606 373.176 190.656 373.176C190.048 373.176 189.52 373.32 189.072 373.608C188.624 373.885 188.272 374.28 188.016 374.792C187.771 375.293 187.648 375.875 187.648 376.536L185.824 375.32C185.824 374.136 186.102 373.091 186.656 372.184C187.222 371.277 187.974 370.573 188.912 370.072C189.862 369.56 190.912 369.304 192.064 369.304C194.038 369.304 195.526 369.891 196.528 371.064C197.542 372.227 198.048 373.752 198.048 375.64V387H193.696ZM172.864 387V369.72H176.704V375.448H177.248V387H172.864ZM183.296 387V376.792C183.296 375.651 183.024 374.765 182.48 374.136C181.947 373.496 181.206 373.176 180.256 373.176C179.35 373.176 178.619 373.491 178.064 374.12C177.52 374.739 177.248 375.544 177.248 376.536L175.424 375.256C175.424 374.125 175.707 373.112 176.272 372.216C176.838 371.32 177.595 370.611 178.544 370.088C179.504 369.565 180.576 369.304 181.76 369.304C183.115 369.304 184.224 369.592 185.088 370.168C185.963 370.744 186.608 371.512 187.024 372.472C187.44 373.432 187.648 374.488 187.648 375.64V387H183.296ZM207.009 387.48C205.771 387.48 204.721 387.245 203.857 386.776C203.003 386.296 202.353 385.661 201.905 384.872C201.467 384.072 201.249 383.192 201.249 382.232C201.249 381.432 201.371 380.701 201.617 380.04C201.862 379.379 202.257 378.797 202.801 378.296C203.355 377.784 204.097 377.357 205.025 377.016C205.665 376.781 206.427 376.573 207.313 376.392C208.198 376.211 209.201 376.04 210.321 375.88C211.441 375.709 212.673 375.523 214.017 375.32L212.449 376.184C212.449 375.16 212.203 374.408 211.713 373.928C211.222 373.448 210.401 373.208 209.249 373.208C208.609 373.208 207.942 373.363 207.249 373.672C206.555 373.981 206.07 374.531 205.793 375.32L201.857 374.072C202.294 372.643 203.115 371.48 204.321 370.584C205.526 369.688 207.169 369.24 209.249 369.24C210.774 369.24 212.129 369.475 213.313 369.944C214.497 370.413 215.393 371.224 216.001 372.376C216.342 373.016 216.545 373.656 216.609 374.296C216.673 374.936 216.705 375.651 216.705 376.44V387H212.897V383.448L213.441 384.184C212.598 385.347 211.686 386.189 210.705 386.712C209.734 387.224 208.502 387.48 207.009 387.48ZM207.937 384.056C208.737 384.056 209.409 383.917 209.953 383.64C210.507 383.352 210.945 383.027 211.265 382.664C211.595 382.301 211.819 381.997 211.937 381.752C212.161 381.283 212.289 380.739 212.321 380.12C212.363 379.491 212.385 378.968 212.385 378.552L213.665 378.872C212.374 379.085 211.329 379.267 210.529 379.416C209.729 379.555 209.083 379.683 208.593 379.8C208.102 379.917 207.67 380.045 207.297 380.184C206.87 380.355 206.523 380.541 206.257 380.744C206.001 380.936 205.809 381.149 205.681 381.384C205.563 381.619 205.505 381.88 205.505 382.168C205.505 382.563 205.601 382.904 205.793 383.192C205.995 383.469 206.278 383.683 206.641 383.832C207.003 383.981 207.435 384.056 207.937 384.056ZM231.233 387C230.038 387.224 228.865 387.32 227.713 387.288C226.572 387.267 225.548 387.069 224.641 386.696C223.745 386.312 223.062 385.699 222.593 384.856C222.166 384.067 221.942 383.267 221.921 382.456C221.9 381.635 221.889 380.707 221.889 379.672V364.92H226.241V379.416C226.241 380.088 226.246 380.696 226.257 381.24C226.278 381.773 226.39 382.2 226.593 382.52C226.977 383.128 227.59 383.459 228.433 383.512C229.276 383.565 230.209 383.523 231.233 383.384V387ZM218.945 373.08V369.72H231.233V373.08H218.945ZM235.404 367.32V363.48H239.756V367.32H235.404ZM235.404 387V369.72H239.756V387H235.404ZM252.329 387.48C250.59 387.48 249.065 387.091 247.753 386.312C246.441 385.533 245.417 384.461 244.681 383.096C243.955 381.72 243.593 380.141 243.593 378.36C243.593 376.557 243.966 374.973 244.713 373.608C245.459 372.232 246.489 371.16 247.801 370.392C249.113 369.624 250.622 369.24 252.329 369.24C254.067 369.24 255.593 369.629 256.905 370.408C258.227 371.187 259.257 372.264 259.993 373.64C260.729 375.005 261.097 376.579 261.097 378.36C261.097 380.152 260.723 381.736 259.977 383.112C259.241 384.477 258.211 385.549 256.889 386.328C255.577 387.096 254.057 387.48 252.329 387.48ZM252.329 383.416C253.726 383.416 254.766 382.947 255.449 382.008C256.142 381.059 256.489 379.843 256.489 378.36C256.489 376.824 256.137 375.597 255.433 374.68C254.739 373.763 253.705 373.304 252.329 373.304C251.379 373.304 250.601 373.517 249.993 373.944C249.385 374.371 248.931 374.963 248.633 375.72C248.345 376.477 248.201 377.357 248.201 378.36C248.201 379.907 248.547 381.139 249.241 382.056C249.945 382.963 250.974 383.416 252.329 383.416ZM276.391 387V378.84C276.391 378.445 276.37 377.944 276.327 377.336C276.284 376.717 276.151 376.099 275.927 375.48C275.703 374.861 275.335 374.344 274.823 373.928C274.322 373.512 273.607 373.304 272.679 373.304C272.306 373.304 271.906 373.363 271.479 373.48C271.052 373.597 270.652 373.827 270.279 374.168C269.906 374.499 269.596 374.989 269.351 375.64C269.116 376.291 268.999 377.155 268.999 378.232L266.503 377.048C266.503 375.683 266.78 374.403 267.335 373.208C267.89 372.013 268.722 371.048 269.831 370.312C270.951 369.576 272.359 369.208 274.055 369.208C275.41 369.208 276.514 369.437 277.367 369.896C278.22 370.355 278.882 370.936 279.351 371.64C279.831 372.344 280.172 373.08 280.375 373.848C280.578 374.605 280.7 375.299 280.743 375.928C280.786 376.557 280.807 377.016 280.807 377.304V387H276.391ZM264.583 387V369.72H268.455V375.448H268.999V387H264.583Z" fill="white"/>
<rect x="44.4453" y="96.5547" width="17.3334" height="14.4445" rx="1" stroke="white" stroke-width="3"/>
<rect x="44.4453" y="131.223" width="17.3334" height="14.4445" rx="1" stroke="white" stroke-width="3"/>
<rect x="44.4453" y="165.891" width="17.3334" height="14.4445" rx="1" stroke="white" stroke-width="3"/>
<rect x="76.2188" y="96.5547" width="17.3334" height="14.4445" rx="1" stroke="white" stroke-width="3"/>
<rect x="76.2188" y="131.223" width="17.3334" height="14.4445" rx="1" stroke="white" stroke-width="3"/>
<rect x="76.2188" y="165.891" width="17.3334" height="14.4445" rx="1" stroke="white" stroke-width="3"/>
<rect x="107.996" y="96.5547" width="17.3334" height="14.4445" rx="1" stroke="white" stroke-width="3"/>
<rect x="107.996" y="131.223" width="17.3334" height="14.4445" rx="1" stroke="white" stroke-width="3"/>
<rect x="139.781" y="96.5547" width="17.3334" height="14.4445" rx="1" stroke="white" stroke-width="3"/>
<mask id="path-13-inside-1_5_8005" fill="white">
<rect x="41.5586" y="44.5547" width="118.445" height="34.6668" rx="2"/>
</mask>
<rect x="41.5586" y="44.5547" width="118.445" height="34.6668" rx="2" stroke="white" stroke-width="6" mask="url(#path-13-inside-1_5_8005)"/>
<rect x="31.5" y="34.5" width="141.445" height="164.556" rx="3.5" stroke="white" stroke-width="3"/>
<circle cx="162.889" cy="171.666" r="47.6114" fill="#525252" stroke="white" stroke-width="3"/>
<path d="M162.708 132.902C184.862 132.903 202.735 150.264 202.735 171.576C202.735 192.888 184.862 210.25 162.708 210.25C140.554 210.25 122.68 192.889 122.68 171.576C122.68 150.264 140.554 132.902 162.708 132.902Z" fill="white" fill-opacity="0.03" stroke="white" stroke-width="3"/>
<path d="M160.966 200.555V142.777H164.818V200.555H160.966ZM173.931 160.111C173.649 157.824 172.506 156.048 170.502 154.784C168.498 153.52 166.039 152.889 163.127 152.889C160.997 152.889 159.134 153.22 157.537 153.882C155.956 154.544 154.719 155.454 153.826 156.612C152.949 157.771 152.511 159.088 152.511 160.562C152.511 161.796 152.816 162.857 153.427 163.744C154.053 164.617 154.852 165.347 155.822 165.934C156.793 166.505 157.811 166.979 158.876 167.356C159.94 167.717 160.919 168.01 161.812 168.236L166.697 169.5C167.95 169.816 169.343 170.252 170.878 170.809C172.428 171.365 173.907 172.125 175.317 173.088C176.742 174.036 177.916 175.255 178.84 176.745C179.764 178.234 180.225 180.062 180.225 182.229C180.225 184.727 179.544 186.984 178.182 189C176.835 191.016 174.863 192.618 172.263 193.807C169.68 194.996 166.54 195.59 162.845 195.59C159.4 195.59 156.417 195.056 153.896 193.988C151.391 192.919 149.418 191.43 147.978 189.519C146.553 187.608 145.746 185.389 145.559 182.861H151.571C151.728 184.606 152.339 186.051 153.403 187.194C154.484 188.323 155.846 189.165 157.49 189.722C159.15 190.264 160.935 190.535 162.845 190.535C165.068 190.535 167.065 190.188 168.834 189.496C170.604 188.789 172.005 187.811 173.038 186.562C174.072 185.298 174.589 183.824 174.589 182.139C174.589 180.604 174.142 179.355 173.25 178.392C172.357 177.429 171.183 176.647 169.727 176.045C168.271 175.443 166.697 174.916 165.006 174.465L159.087 172.84C155.329 171.802 152.354 170.32 150.162 168.394C147.97 166.468 146.874 163.948 146.874 160.833C146.874 158.245 147.602 155.988 149.058 154.062C150.53 152.121 152.503 150.617 154.977 149.548C157.467 148.465 160.246 147.923 163.315 147.923C166.415 147.923 169.171 148.457 171.582 149.526C173.994 150.579 175.904 152.023 177.313 153.859C178.738 155.695 179.49 157.779 179.568 160.111H173.931Z" fill="white"/>
</g>
<defs>
<clipPath id="clip0_5_8005">
<rect width="353" height="420" fill="white"/>
</clipPath>
</defs>
</svg>
