<svg width="353" height="420" viewBox="0 0 353 420" fill="none" xmlns="http://www.w3.org/2000/svg">
<g clip-path="url(#clip0_5_8314)">
<rect width="353" height="420" rx="22" fill="white" fill-opacity="0.03"/>
<rect x="1.5" y="1.5" width="350" height="417" rx="20.5" stroke="white" stroke-opacity="0.6" stroke-width="3"/>
<path d="M41.128 387.48C38.824 387.48 36.8347 386.979 35.16 385.976C33.496 384.973 32.2107 383.571 31.304 381.768C30.408 379.965 29.96 377.869 29.96 375.48C29.96 373.091 30.408 370.995 31.304 369.192C32.2107 367.389 33.496 365.987 35.16 364.984C36.8347 363.981 38.824 363.48 41.128 363.48C43.7733 363.48 45.992 364.136 47.784 365.448C49.5867 366.76 50.856 368.536 51.592 370.776L47.208 371.992C46.7813 370.595 46.0613 369.512 45.048 368.744C44.0347 367.965 42.728 367.576 41.128 367.576C39.6667 367.576 38.4453 367.901 37.464 368.552C36.4933 369.203 35.7627 370.12 35.272 371.304C34.7813 372.488 34.536 373.88 34.536 375.48C34.536 377.08 34.7813 378.472 35.272 379.656C35.7627 380.84 36.4933 381.757 37.464 382.408C38.4453 383.059 39.6667 383.384 41.128 383.384C42.728 383.384 44.0347 382.995 45.048 382.216C46.0613 381.437 46.7813 380.355 47.208 378.968L51.592 380.184C50.856 382.424 49.5867 384.2 47.784 385.512C45.992 386.824 43.7733 387.48 41.128 387.48ZM55.115 387V363.96H64.843C65.067 363.96 65.3657 363.971 65.739 363.992C66.123 364.003 66.4643 364.035 66.763 364.088C68.139 364.301 69.2643 364.755 70.139 365.448C71.0243 366.141 71.675 367.016 72.091 368.072C72.507 369.117 72.715 370.285 72.715 371.576C72.715 372.867 72.5017 374.04 72.075 375.096C71.659 376.141 71.0083 377.011 70.123 377.704C69.2483 378.397 68.1283 378.851 66.763 379.064C66.4643 379.107 66.123 379.139 65.739 379.16C65.355 379.181 65.0563 379.192 64.843 379.192H59.467V387H55.115ZM59.467 375.128H64.651C64.875 375.128 65.1203 375.117 65.387 375.096C65.6537 375.075 65.899 375.032 66.123 374.968C66.7097 374.808 67.163 374.541 67.483 374.168C67.803 373.784 68.0217 373.363 68.139 372.904C68.267 372.435 68.331 371.992 68.331 371.576C68.331 371.16 68.267 370.723 68.139 370.264C68.0217 369.795 67.803 369.373 67.483 369C67.163 368.616 66.7097 368.344 66.123 368.184C65.899 368.12 65.6537 368.077 65.387 368.056C65.1203 368.035 64.875 368.024 64.651 368.024H59.467V375.128ZM75.9275 387V363.96H79.8315L87.4475 379.256L95.0635 363.96H98.9675V387H94.9035V373.24L88.2155 387H86.6795L79.9915 373.24V387H75.9275ZM118.569 387.48C116.862 387.48 115.321 387.181 113.945 386.584C112.58 385.976 111.454 385.112 110.569 383.992C109.694 382.861 109.14 381.517 108.905 379.96L113.449 379.288C113.769 380.611 114.43 381.629 115.433 382.344C116.436 383.059 117.577 383.416 118.857 383.416C119.572 383.416 120.265 383.304 120.937 383.08C121.609 382.856 122.158 382.525 122.585 382.088C123.022 381.651 123.241 381.112 123.241 380.472C123.241 380.237 123.204 380.013 123.129 379.8C123.065 379.576 122.953 379.368 122.793 379.176C122.633 378.984 122.404 378.803 122.105 378.632C121.817 378.461 121.449 378.307 121.001 378.168L115.017 376.408C114.569 376.28 114.046 376.099 113.449 375.864C112.862 375.629 112.292 375.293 111.737 374.856C111.182 374.419 110.718 373.843 110.345 373.128C109.982 372.403 109.801 371.491 109.801 370.392C109.801 368.845 110.19 367.56 110.969 366.536C111.748 365.512 112.788 364.749 114.089 364.248C115.39 363.747 116.83 363.501 118.409 363.512C119.998 363.533 121.417 363.805 122.665 364.328C123.913 364.851 124.958 365.613 125.801 366.616C126.644 367.608 127.252 368.824 127.625 370.264L122.921 371.064C122.75 370.317 122.436 369.688 121.977 369.176C121.518 368.664 120.969 368.275 120.329 368.008C119.7 367.741 119.038 367.597 118.345 367.576C117.662 367.555 117.017 367.651 116.409 367.864C115.812 368.067 115.321 368.365 114.937 368.76C114.564 369.155 114.377 369.624 114.377 370.168C114.377 370.669 114.532 371.08 114.841 371.4C115.15 371.709 115.54 371.96 116.009 372.152C116.478 372.344 116.958 372.504 117.449 372.632L121.449 373.72C122.046 373.88 122.708 374.093 123.433 374.36C124.158 374.616 124.852 374.979 125.513 375.448C126.185 375.907 126.734 376.515 127.161 377.272C127.598 378.029 127.817 378.989 127.817 380.152C127.817 381.389 127.556 382.472 127.033 383.4C126.521 384.317 125.828 385.08 124.953 385.688C124.078 386.285 123.086 386.733 121.977 387.032C120.878 387.331 119.742 387.48 118.569 387.48ZM138.95 387.48C137.158 387.48 135.622 387.08 134.342 386.28C133.062 385.48 132.08 384.392 131.398 383.016C130.715 381.64 130.374 380.088 130.374 378.36C130.374 376.611 130.726 375.048 131.43 373.672C132.144 372.296 133.147 371.213 134.438 370.424C135.728 369.635 137.254 369.24 139.014 369.24C141.051 369.24 142.758 369.757 144.134 370.792C145.52 371.816 146.406 373.219 146.79 375L142.438 376.152C142.182 375.256 141.734 374.557 141.094 374.056C140.464 373.555 139.75 373.304 138.95 373.304C138.032 373.304 137.28 373.528 136.694 373.976C136.107 374.413 135.675 375.016 135.398 375.784C135.12 376.541 134.982 377.4 134.982 378.36C134.982 379.864 135.312 381.085 135.974 382.024C136.646 382.952 137.638 383.416 138.95 383.416C139.931 383.416 140.678 383.192 141.19 382.744C141.702 382.296 142.086 381.656 142.342 380.824L146.79 381.752C146.299 383.587 145.371 385 144.006 385.992C142.64 386.984 140.955 387.48 138.95 387.48ZM161.766 387V378.84C161.766 378.445 161.745 377.944 161.702 377.336C161.659 376.717 161.526 376.099 161.302 375.48C161.078 374.861 160.71 374.344 160.198 373.928C159.697 373.512 158.982 373.304 158.054 373.304C157.681 373.304 157.281 373.363 156.854 373.48C156.427 373.597 156.027 373.827 155.654 374.168C155.281 374.499 154.971 374.989 154.726 375.64C154.491 376.291 154.374 377.155 154.374 378.232L151.878 377.048C151.878 375.683 152.155 374.403 152.71 373.208C153.265 372.013 154.097 371.048 155.206 370.312C156.326 369.576 157.734 369.208 159.43 369.208C160.785 369.208 161.889 369.437 162.742 369.896C163.595 370.355 164.257 370.936 164.726 371.64C165.206 372.344 165.547 373.08 165.75 373.848C165.953 374.605 166.075 375.299 166.118 375.928C166.161 376.557 166.182 377.016 166.182 377.304V387H161.766ZM149.958 387V363.96H153.83V375.8H154.374V387H149.958ZM178.366 387.48C176.595 387.48 175.032 387.101 173.678 386.344C172.334 385.576 171.278 384.525 170.51 383.192C169.752 381.848 169.374 380.312 169.374 378.584C169.374 376.696 169.747 375.053 170.494 373.656C171.24 372.259 172.27 371.176 173.582 370.408C174.894 369.629 176.403 369.24 178.11 369.24C179.923 369.24 181.464 369.667 182.734 370.52C184.003 371.373 184.942 372.573 185.55 374.12C186.158 375.667 186.371 377.485 186.19 379.576H181.886V377.976C181.886 376.216 181.603 374.952 181.038 374.184C180.483 373.405 179.571 373.016 178.302 373.016C176.819 373.016 175.726 373.469 175.022 374.376C174.328 375.272 173.982 376.6 173.982 378.36C173.982 379.971 174.328 381.219 175.022 382.104C175.726 382.979 176.755 383.416 178.11 383.416C178.963 383.416 179.694 383.229 180.302 382.856C180.91 382.483 181.374 381.944 181.694 381.24L186.046 382.488C185.395 384.067 184.366 385.293 182.958 386.168C181.56 387.043 180.03 387.48 178.366 387.48ZM172.638 379.576V376.344H184.094V379.576H172.638ZM196.811 387.48C195.221 387.48 193.829 387.08 192.635 386.28C191.44 385.48 190.507 384.392 189.835 383.016C189.173 381.64 188.843 380.088 188.843 378.36C188.843 376.6 189.179 375.037 189.851 373.672C190.533 372.296 191.488 371.213 192.715 370.424C193.941 369.635 195.381 369.24 197.035 369.24C198.677 369.24 200.059 369.64 201.179 370.44C202.299 371.24 203.147 372.328 203.722 373.704C204.299 375.08 204.587 376.632 204.587 378.36C204.587 380.088 204.293 381.64 203.707 383.016C203.131 384.392 202.267 385.48 201.115 386.28C199.963 387.08 198.528 387.48 196.811 387.48ZM197.515 383.608C198.485 383.608 199.259 383.389 199.835 382.952C200.421 382.515 200.843 381.901 201.099 381.112C201.355 380.323 201.483 379.405 201.483 378.36C201.483 377.315 201.355 376.397 201.099 375.608C200.843 374.819 200.432 374.205 199.867 373.768C199.312 373.331 198.581 373.112 197.675 373.112C196.704 373.112 195.904 373.352 195.275 373.832C194.656 374.301 194.197 374.936 193.899 375.736C193.6 376.525 193.451 377.4 193.451 378.36C193.451 379.331 193.595 380.216 193.883 381.016C194.171 381.805 194.613 382.435 195.211 382.904C195.808 383.373 196.576 383.608 197.515 383.608ZM201.483 387V375.16H200.939V363.96H205.323V387H201.483ZM216.235 387.512C214.88 387.512 213.776 387.283 212.923 386.824C212.069 386.365 211.403 385.784 210.923 385.08C210.453 384.376 210.117 383.645 209.914 382.888C209.712 382.12 209.589 381.421 209.547 380.792C209.504 380.163 209.483 379.704 209.483 379.416V369.72H213.899V377.88C213.899 378.275 213.92 378.781 213.963 379.4C214.005 380.008 214.139 380.621 214.363 381.24C214.587 381.859 214.949 382.376 215.451 382.792C215.963 383.208 216.683 383.416 217.611 383.416C217.984 383.416 218.384 383.357 218.811 383.24C219.237 383.123 219.637 382.899 220.011 382.568C220.384 382.227 220.688 381.731 220.923 381.08C221.168 380.419 221.291 379.555 221.291 378.488L223.787 379.672C223.787 381.037 223.509 382.317 222.955 383.512C222.4 384.707 221.563 385.672 220.443 386.408C219.333 387.144 217.931 387.512 216.235 387.512ZM221.835 387V381.272H221.291V369.72H225.675V387H221.835ZM230.466 387V363.48H234.818V387H230.466ZM239.935 367.32V363.48H244.287V367.32H239.935ZM239.935 387V369.72H244.287V387H239.935ZM260.86 387V378.84C260.86 378.445 260.838 377.944 260.796 377.336C260.753 376.717 260.62 376.099 260.396 375.48C260.172 374.861 259.804 374.344 259.292 373.928C258.79 373.512 258.076 373.304 257.148 373.304C256.774 373.304 256.374 373.363 255.948 373.48C255.521 373.597 255.121 373.827 254.748 374.168C254.374 374.499 254.065 374.989 253.82 375.64C253.585 376.291 253.468 377.155 253.468 378.232L250.972 377.048C250.972 375.683 251.249 374.403 251.804 373.208C252.358 372.013 253.19 371.048 254.3 370.312C255.42 369.576 256.828 369.208 258.524 369.208C259.878 369.208 260.982 369.437 261.836 369.896C262.689 370.355 263.35 370.936 263.82 371.64C264.3 372.344 264.641 373.08 264.844 373.848C265.046 374.605 265.169 375.299 265.212 375.928C265.254 376.557 265.276 377.016 265.276 377.304V387H260.86ZM249.052 387V369.72H252.924V375.448H253.468V387H249.052ZM276.82 395.16C275.838 395.16 274.905 395 274.02 394.68C273.134 394.371 272.34 393.933 271.636 393.368C270.942 392.813 270.377 392.163 269.94 391.416L273.972 389.464C274.249 389.976 274.644 390.365 275.156 390.632C275.678 390.899 276.244 391.032 276.852 391.032C277.502 391.032 278.116 390.92 278.692 390.696C279.268 390.483 279.726 390.157 280.068 389.72C280.42 389.293 280.585 388.76 280.564 388.12V383.096H281.108V369.72H284.916V388.184C284.916 388.611 284.894 389.011 284.852 389.384C284.82 389.768 284.756 390.147 284.66 390.52C284.382 391.576 283.865 392.445 283.108 393.128C282.361 393.811 281.444 394.317 280.356 394.648C279.268 394.989 278.089 395.16 276.82 395.16ZM276.436 387.48C274.846 387.48 273.454 387.08 272.26 386.28C271.065 385.48 270.132 384.392 269.46 383.016C268.798 381.64 268.468 380.088 268.468 378.36C268.468 376.6 268.804 375.037 269.476 373.672C270.158 372.296 271.113 371.213 272.34 370.424C273.566 369.635 275.006 369.24 276.66 369.24C278.302 369.24 279.684 369.64 280.804 370.44C281.924 371.24 282.772 372.328 283.347 373.704C283.924 375.08 284.212 376.632 284.212 378.36C284.212 380.088 283.918 381.64 283.332 383.016C282.756 384.392 281.892 385.48 280.74 386.28C279.588 387.08 278.153 387.48 276.436 387.48ZM277.14 383.608C278.11 383.608 278.884 383.389 279.46 382.952C280.046 382.515 280.468 381.901 280.724 381.112C280.98 380.323 281.108 379.405 281.108 378.36C281.108 377.315 280.98 376.397 280.724 375.608C280.468 374.819 280.057 374.205 279.492 373.768C278.937 373.331 278.206 373.112 277.3 373.112C276.329 373.112 275.529 373.352 274.9 373.832C274.281 374.301 273.822 374.936 273.524 375.736C273.225 376.525 273.076 377.4 273.076 378.36C273.076 379.331 273.22 380.216 273.508 381.016C273.796 381.805 274.238 382.435 274.836 382.904C275.433 383.373 276.201 383.608 277.14 383.608Z" fill="white"/>
<path d="M120.047 86.1875H155.342" stroke="white" stroke-width="3"/>
<path d="M135.438 96.8477L155.348 96.8477" stroke="white" stroke-width="3"/>
<rect x="62.2734" y="39.7188" width="117.366" height="165.782" stroke="white" stroke-width="3"/>
<path d="M77.9648 90.7734C103.653 90.7734 124.431 111.207 124.431 136.354C124.431 161.502 103.653 181.936 77.9648 181.936C52.2765 181.935 31.5 161.502 31.5 136.354C31.5001 111.207 52.2766 90.7737 77.9648 90.7734Z" fill="#525252" stroke="white" stroke-width="3"/>
<path d="M59.8672 158.586L77.5148 141.264V116.391" stroke="white" stroke-width="3"/>
<path d="M72.9922 90.1852V64.4238L91.0923 56.873H149.013L166.66 64.4238V180.35H91.0923" stroke="white" stroke-width="3"/>
<path d="M75.25 101.711H80.2275" stroke="white" stroke-width="3"/>
<path d="M106.016 136.355H110.993" stroke="white" stroke-width="3"/>
<path d="M44.4766 136.355H49.4541" stroke="white" stroke-width="3"/>
<path d="M75.25 172.777H80.2275" stroke="white" stroke-width="3"/>
<path d="M103 36.0701V56.8731H139.2V36.0701L132.176 32H111.105L103 36.0701Z" fill="#525252" stroke="white" stroke-width="4"/>
</g>
<defs>
<clipPath id="clip0_5_8314">
<rect width="353" height="420" fill="white"/>
</clipPath>
</defs>
</svg>
