<svg width="353" height="420" viewBox="0 0 353 420" fill="none" xmlns="http://www.w3.org/2000/svg">
<g clip-path="url(#clip0_5_8203)">
<rect width="353" height="420" rx="22" fill="white" fill-opacity="0.03"/>
<rect x="1.5" y="1.5" width="350" height="417" rx="20.5" stroke="white" stroke-opacity="0.6" stroke-width="3"/>
<path d="M30.56 343V319.96H34.912V343H30.56ZM51.4848 343V334.84C51.4848 334.445 51.4634 333.944 51.4208 333.336C51.3781 332.717 51.2448 332.099 51.0208 331.48C50.7968 330.861 50.4288 330.344 49.9168 329.928C49.4154 329.512 48.7008 329.304 47.7728 329.304C47.3994 329.304 46.9994 329.363 46.5728 329.48C46.1461 329.597 45.7461 329.827 45.3728 330.168C44.9994 330.499 44.6901 330.989 44.4448 331.64C44.2101 332.291 44.0928 333.155 44.0928 334.232L41.5968 333.048C41.5968 331.683 41.8741 330.403 42.4288 329.208C42.9834 328.013 43.8154 327.048 44.9248 326.312C46.0448 325.576 47.4528 325.208 49.1488 325.208C50.5034 325.208 51.6074 325.437 52.4608 325.896C53.3141 326.355 53.9754 326.936 54.4448 327.64C54.9248 328.344 55.2661 329.08 55.4688 329.848C55.6714 330.605 55.7941 331.299 55.8368 331.928C55.8794 332.557 55.9008 333.016 55.9008 333.304V343H51.4848ZM39.6768 343V325.72H43.5488V331.448H44.0928V343H39.6768ZM66.748 343.48C65.1587 343.48 63.7667 343.08 62.572 342.28C61.3773 341.48 60.444 340.392 59.772 339.016C59.1107 337.64 58.78 336.088 58.78 334.36C58.78 332.6 59.116 331.037 59.788 329.672C60.4707 328.296 61.4253 327.213 62.652 326.424C63.8787 325.635 65.3187 325.24 66.972 325.24C68.6147 325.24 69.996 325.64 71.116 326.44C72.236 327.24 73.084 328.328 73.66 329.704C74.236 331.08 74.524 332.632 74.524 334.36C74.524 336.088 74.2307 337.64 73.644 339.016C73.068 340.392 72.204 341.48 71.052 342.28C69.9 343.08 68.4653 343.48 66.748 343.48ZM67.452 339.608C68.4227 339.608 69.196 339.389 69.772 338.952C70.3587 338.515 70.78 337.901 71.036 337.112C71.292 336.323 71.42 335.405 71.42 334.36C71.42 333.315 71.292 332.397 71.036 331.608C70.78 330.819 70.3693 330.205 69.804 329.768C69.2493 329.331 68.5187 329.112 67.612 329.112C66.6413 329.112 65.8413 329.352 65.212 329.832C64.5933 330.301 64.1347 330.936 63.836 331.736C63.5373 332.525 63.388 333.4 63.388 334.36C63.388 335.331 63.532 336.216 63.82 337.016C64.108 337.805 64.5507 338.435 65.148 338.904C65.7453 339.373 66.5133 339.608 67.452 339.608ZM71.42 343V331.16H70.876V319.96H75.26V343H71.42ZM86.172 343.512C84.8173 343.512 83.7133 343.283 82.86 342.824C82.0067 342.365 81.34 341.784 80.86 341.08C80.3907 340.376 80.0547 339.645 79.852 338.888C79.6493 338.12 79.5267 337.421 79.484 336.792C79.4413 336.163 79.42 335.704 79.42 335.416V325.72H83.836V333.88C83.836 334.275 83.8573 334.781 83.9 335.4C83.9427 336.008 84.076 336.621 84.3 337.24C84.524 337.859 84.8867 338.376 85.388 338.792C85.9 339.208 86.62 339.416 87.548 339.416C87.9213 339.416 88.3213 339.357 88.748 339.24C89.1747 339.123 89.5747 338.899 89.948 338.568C90.3213 338.227 90.6253 337.731 90.86 337.08C91.1053 336.419 91.228 335.555 91.228 334.488L93.724 335.672C93.724 337.037 93.4467 338.317 92.892 339.512C92.3373 340.707 91.5 341.672 90.38 342.408C89.2707 343.144 87.868 343.512 86.172 343.512ZM91.772 343V337.272H91.228V325.72H95.612V343H91.772ZM106.836 343.48C104.66 343.48 102.9 342.989 101.556 342.008C100.222 341.016 99.4118 339.619 99.1238 337.816L103.572 337.144C103.753 337.955 104.153 338.589 104.772 339.048C105.401 339.507 106.196 339.736 107.156 339.736C107.945 339.736 108.553 339.587 108.98 339.288C109.406 338.979 109.62 338.552 109.62 338.008C109.62 337.667 109.534 337.395 109.364 337.192C109.193 336.979 108.809 336.771 108.212 336.568C107.625 336.365 106.708 336.099 105.46 335.768C104.052 335.405 102.926 335 102.084 334.552C101.241 334.104 100.633 333.571 100.26 332.952C99.8864 332.323 99.6998 331.565 99.6998 330.68C99.6998 329.571 99.9824 328.611 100.548 327.8C101.113 326.979 101.908 326.349 102.932 325.912C103.966 325.464 105.182 325.24 106.58 325.24C107.934 325.24 109.134 325.448 110.18 325.864C111.225 326.28 112.068 326.872 112.708 327.64C113.358 328.408 113.758 329.315 113.908 330.36L109.46 331.16C109.385 330.52 109.108 330.013 108.628 329.64C108.148 329.267 107.497 329.048 106.676 328.984C105.876 328.931 105.23 329.037 104.74 329.304C104.26 329.571 104.02 329.955 104.02 330.456C104.02 330.755 104.121 331.005 104.324 331.208C104.537 331.411 104.969 331.619 105.62 331.832C106.281 332.045 107.284 332.323 108.628 332.664C109.94 333.005 110.99 333.405 111.78 333.864C112.58 334.312 113.161 334.856 113.524 335.496C113.886 336.125 114.068 336.888 114.068 337.784C114.068 339.555 113.428 340.947 112.148 341.96C110.868 342.973 109.097 343.48 106.836 343.48ZM127.952 343C126.757 343.224 125.584 343.32 124.432 343.288C123.29 343.267 122.266 343.069 121.36 342.696C120.464 342.312 119.781 341.699 119.312 340.856C118.885 340.067 118.661 339.267 118.64 338.456C118.618 337.635 118.608 336.707 118.608 335.672V320.92H122.96V335.416C122.96 336.088 122.965 336.696 122.976 337.24C122.997 337.773 123.109 338.2 123.312 338.52C123.696 339.128 124.309 339.459 125.152 339.512C125.994 339.565 126.928 339.523 127.952 339.384V343ZM115.664 329.08V325.72H127.952V329.08H115.664ZM131.803 343V325.72H135.643V329.944L135.227 329.4C135.451 328.803 135.749 328.259 136.123 327.768C136.496 327.277 136.955 326.872 137.499 326.552C137.915 326.296 138.368 326.099 138.859 325.96C139.349 325.811 139.856 325.72 140.379 325.688C140.901 325.645 141.424 325.656 141.947 325.72V329.784C141.467 329.635 140.907 329.587 140.267 329.64C139.637 329.683 139.067 329.827 138.555 330.072C138.043 330.307 137.611 330.621 137.259 331.016C136.907 331.4 136.64 331.859 136.459 332.392C136.277 332.915 136.187 333.507 136.187 334.168V343H131.803ZM145.31 323.32V319.48H149.662V323.32H145.31ZM145.31 343V325.72H149.662V343H145.31ZM159.259 343.48C158.021 343.48 156.971 343.245 156.107 342.776C155.253 342.296 154.603 341.661 154.155 340.872C153.717 340.072 153.499 339.192 153.499 338.232C153.499 337.432 153.621 336.701 153.867 336.04C154.112 335.379 154.507 334.797 155.051 334.296C155.605 333.784 156.347 333.357 157.275 333.016C157.915 332.781 158.677 332.573 159.563 332.392C160.448 332.211 161.451 332.04 162.571 331.88C163.691 331.709 164.923 331.523 166.267 331.32L164.699 332.184C164.699 331.16 164.453 330.408 163.963 329.928C163.472 329.448 162.651 329.208 161.499 329.208C160.859 329.208 160.192 329.363 159.499 329.672C158.805 329.981 158.32 330.531 158.043 331.32L154.107 330.072C154.544 328.643 155.365 327.48 156.571 326.584C157.776 325.688 159.419 325.24 161.499 325.24C163.024 325.24 164.379 325.475 165.563 325.944C166.747 326.413 167.643 327.224 168.251 328.376C168.592 329.016 168.795 329.656 168.859 330.296C168.923 330.936 168.955 331.651 168.955 332.44V343H165.147V339.448L165.691 340.184C164.848 341.347 163.936 342.189 162.955 342.712C161.984 343.224 160.752 343.48 159.259 343.48ZM160.187 340.056C160.987 340.056 161.659 339.917 162.203 339.64C162.757 339.352 163.195 339.027 163.515 338.664C163.845 338.301 164.069 337.997 164.187 337.752C164.411 337.283 164.539 336.739 164.571 336.12C164.613 335.491 164.635 334.968 164.635 334.552L165.915 334.872C164.624 335.085 163.579 335.267 162.779 335.416C161.979 335.555 161.333 335.683 160.843 335.8C160.352 335.917 159.92 336.045 159.547 336.184C159.12 336.355 158.773 336.541 158.507 336.744C158.251 336.936 158.059 337.149 157.931 337.384C157.813 337.619 157.755 337.88 157.755 338.168C157.755 338.563 157.851 338.904 158.043 339.192C158.245 339.469 158.528 339.683 158.891 339.832C159.253 339.981 159.685 340.056 160.187 340.056ZM173.435 343V319.48H177.787V343H173.435ZM30.24 387V363.96H45.28V368.024H34.592V372.952H43.36V377.016H34.592V382.936H45.28V387H30.24ZM55.867 387.48C53.691 387.48 51.931 386.989 50.587 386.008C49.2537 385.016 48.443 383.619 48.155 381.816L52.603 381.144C52.7843 381.955 53.1843 382.589 53.803 383.048C54.4323 383.507 55.227 383.736 56.187 383.736C56.9763 383.736 57.5843 383.587 58.011 383.288C58.4377 382.979 58.651 382.552 58.651 382.008C58.651 381.667 58.5657 381.395 58.395 381.192C58.2243 380.979 57.8403 380.771 57.243 380.568C56.6563 380.365 55.739 380.099 54.491 379.768C53.083 379.405 51.9577 379 51.115 378.552C50.2723 378.104 49.6643 377.571 49.291 376.952C48.9177 376.323 48.731 375.565 48.731 374.68C48.731 373.571 49.0137 372.611 49.579 371.8C50.1443 370.979 50.939 370.349 51.963 369.912C52.9977 369.464 54.2137 369.24 55.611 369.24C56.9657 369.24 58.1657 369.448 59.211 369.864C60.2563 370.28 61.099 370.872 61.739 371.64C62.3897 372.408 62.7897 373.315 62.939 374.36L58.491 375.16C58.4163 374.52 58.139 374.013 57.659 373.64C57.179 373.267 56.5283 373.048 55.707 372.984C54.907 372.931 54.2617 373.037 53.771 373.304C53.291 373.571 53.051 373.955 53.051 374.456C53.051 374.755 53.1523 375.005 53.355 375.208C53.5683 375.411 54.0003 375.619 54.651 375.832C55.3123 376.045 56.315 376.323 57.659 376.664C58.971 377.005 60.0217 377.405 60.811 377.864C61.611 378.312 62.1923 378.856 62.555 379.496C62.9177 380.125 63.099 380.888 63.099 381.784C63.099 383.555 62.459 384.947 61.179 385.96C59.899 386.973 58.1283 387.48 55.867 387.48ZM76.983 387C75.7883 387.224 74.615 387.32 73.463 387.288C72.3217 387.267 71.2977 387.069 70.391 386.696C69.495 386.312 68.8123 385.699 68.343 384.856C67.9163 384.067 67.6923 383.267 67.671 382.456C67.6497 381.635 67.639 380.707 67.639 379.672V364.92H71.991V379.416C71.991 380.088 71.9963 380.696 72.007 381.24C72.0283 381.773 72.1403 382.2 72.343 382.52C72.727 383.128 73.3403 383.459 74.183 383.512C75.0257 383.565 75.959 383.523 76.983 383.384V387ZM64.695 373.08V369.72H76.983V373.08H64.695ZM81.1538 367.32V363.48H85.5058V367.32H81.1538ZM81.1538 387V369.72H85.5058V387H81.1538ZM111.103 387V376.792C111.103 375.651 110.831 374.765 110.287 374.136C109.753 373.496 109.012 373.176 108.062 373.176C107.455 373.176 106.927 373.32 106.479 373.608C106.031 373.885 105.679 374.28 105.423 374.792C105.177 375.293 105.055 375.875 105.055 376.536L103.231 375.32C103.231 374.136 103.508 373.091 104.062 372.184C104.628 371.277 105.38 370.573 106.319 370.072C107.268 369.56 108.319 369.304 109.471 369.304C111.444 369.304 112.932 369.891 113.935 371.064C114.948 372.227 115.455 373.752 115.455 375.64V387H111.103ZM90.2705 387V369.72H94.1105V375.448H94.6545V387H90.2705ZM100.703 387V376.792C100.703 375.651 100.431 374.765 99.8865 374.136C99.3532 373.496 98.6118 373.176 97.6625 373.176C96.7558 373.176 96.0252 373.491 95.4705 374.12C94.9265 374.739 94.6545 375.544 94.6545 376.536L92.8305 375.256C92.8305 374.125 93.1132 373.112 93.6785 372.216C94.2438 371.32 95.0012 370.611 95.9505 370.088C96.9105 369.565 97.9825 369.304 99.1665 369.304C100.521 369.304 101.631 369.592 102.495 370.168C103.369 370.744 104.015 371.512 104.431 372.472C104.847 373.432 105.055 374.488 105.055 375.64V387H100.703ZM124.415 387.48C123.178 387.48 122.127 387.245 121.263 386.776C120.41 386.296 119.759 385.661 119.311 384.872C118.874 384.072 118.655 383.192 118.655 382.232C118.655 381.432 118.778 380.701 119.023 380.04C119.268 379.379 119.663 378.797 120.207 378.296C120.762 377.784 121.503 377.357 122.431 377.016C123.071 376.781 123.834 376.573 124.719 376.392C125.604 376.211 126.607 376.04 127.727 375.88C128.847 375.709 130.079 375.523 131.423 375.32L129.855 376.184C129.855 375.16 129.61 374.408 129.119 373.928C128.628 373.448 127.807 373.208 126.655 373.208C126.015 373.208 125.348 373.363 124.655 373.672C123.962 373.981 123.476 374.531 123.199 375.32L119.263 374.072C119.7 372.643 120.522 371.48 121.727 370.584C122.932 369.688 124.575 369.24 126.655 369.24C128.18 369.24 129.535 369.475 130.719 369.944C131.903 370.413 132.799 371.224 133.407 372.376C133.748 373.016 133.951 373.656 134.015 374.296C134.079 374.936 134.111 375.651 134.111 376.44V387H130.303V383.448L130.847 384.184C130.004 385.347 129.092 386.189 128.111 386.712C127.14 387.224 125.908 387.48 124.415 387.48ZM125.343 384.056C126.143 384.056 126.815 383.917 127.359 383.64C127.914 383.352 128.351 383.027 128.671 382.664C129.002 382.301 129.226 381.997 129.343 381.752C129.567 381.283 129.695 380.739 129.727 380.12C129.77 379.491 129.791 378.968 129.791 378.552L131.071 378.872C129.78 379.085 128.735 379.267 127.935 379.416C127.135 379.555 126.49 379.683 125.999 379.8C125.508 379.917 125.076 380.045 124.703 380.184C124.276 380.355 123.93 380.541 123.663 380.744C123.407 380.936 123.215 381.149 123.087 381.384C122.97 381.619 122.911 381.88 122.911 382.168C122.911 382.563 123.007 382.904 123.199 383.192C123.402 383.469 123.684 383.683 124.047 383.832C124.41 383.981 124.842 384.056 125.343 384.056ZM148.639 387C147.445 387.224 146.271 387.32 145.119 387.288C143.978 387.267 142.954 387.069 142.047 386.696C141.151 386.312 140.469 385.699 139.999 384.856C139.573 384.067 139.349 383.267 139.327 382.456C139.306 381.635 139.295 380.707 139.295 379.672V364.92H143.647V379.416C143.647 380.088 143.653 380.696 143.663 381.24C143.685 381.773 143.797 382.2 143.999 382.52C144.383 383.128 144.997 383.459 145.839 383.512C146.682 383.565 147.615 383.523 148.639 383.384V387ZM136.351 373.08V369.72H148.639V373.08H136.351ZM152.81 367.32V363.48H157.162V367.32H152.81ZM152.81 387V369.72H157.162V387H152.81ZM173.735 387V378.84C173.735 378.445 173.713 377.944 173.671 377.336C173.628 376.717 173.495 376.099 173.271 375.48C173.047 374.861 172.679 374.344 172.167 373.928C171.665 373.512 170.951 373.304 170.023 373.304C169.649 373.304 169.249 373.363 168.823 373.48C168.396 373.597 167.996 373.827 167.623 374.168C167.249 374.499 166.94 374.989 166.695 375.64C166.46 376.291 166.343 377.155 166.343 378.232L163.847 377.048C163.847 375.683 164.124 374.403 164.679 373.208C165.233 372.013 166.065 371.048 167.175 370.312C168.295 369.576 169.703 369.208 171.399 369.208C172.753 369.208 173.857 369.437 174.711 369.896C175.564 370.355 176.225 370.936 176.695 371.64C177.175 372.344 177.516 373.08 177.719 373.848C177.921 374.605 178.044 375.299 178.087 375.928C178.129 376.557 178.151 377.016 178.151 377.304V387H173.735ZM161.927 387V369.72H165.799V375.448H166.343V387H161.927ZM189.695 395.16C188.713 395.16 187.78 395 186.895 394.68C186.009 394.371 185.215 393.933 184.511 393.368C183.817 392.813 183.252 392.163 182.815 391.416L186.847 389.464C187.124 389.976 187.519 390.365 188.031 390.632C188.553 390.899 189.119 391.032 189.727 391.032C190.377 391.032 190.991 390.92 191.567 390.696C192.143 390.483 192.601 390.157 192.943 389.72C193.295 389.293 193.46 388.76 193.439 388.12V383.096H193.983V369.72H197.791V388.184C197.791 388.611 197.769 389.011 197.727 389.384C197.695 389.768 197.631 390.147 197.535 390.52C197.257 391.576 196.74 392.445 195.983 393.128C195.236 393.811 194.319 394.317 193.231 394.648C192.143 394.989 190.964 395.16 189.695 395.16ZM189.311 387.48C187.721 387.48 186.329 387.08 185.135 386.28C183.94 385.48 183.007 384.392 182.335 383.016C181.673 381.64 181.343 380.088 181.343 378.36C181.343 376.6 181.679 375.037 182.351 373.672C183.033 372.296 183.988 371.213 185.215 370.424C186.441 369.635 187.881 369.24 189.535 369.24C191.177 369.24 192.559 369.64 193.679 370.44C194.799 371.24 195.647 372.328 196.222 373.704C196.799 375.08 197.087 376.632 197.087 378.36C197.087 380.088 196.793 381.64 196.207 383.016C195.631 384.392 194.767 385.48 193.615 386.28C192.463 387.08 191.028 387.48 189.311 387.48ZM190.015 383.608C190.985 383.608 191.759 383.389 192.335 382.952C192.921 382.515 193.343 381.901 193.599 381.112C193.855 380.323 193.983 379.405 193.983 378.36C193.983 377.315 193.855 376.397 193.599 375.608C193.343 374.819 192.932 374.205 192.367 373.768C191.812 373.331 191.081 373.112 190.175 373.112C189.204 373.112 188.404 373.352 187.775 373.832C187.156 374.301 186.697 374.936 186.399 375.736C186.1 376.525 185.951 377.4 185.951 378.36C185.951 379.331 186.095 380.216 186.383 381.016C186.671 381.805 187.113 382.435 187.711 382.904C188.308 383.373 189.076 383.608 190.015 383.608Z" fill="white"/>
<path d="M30 135.942V187.447H243.125V34.9902H211.771L203.933 56.6681H151.338V104.612C144.877 102.412 137.906 102.247 131.35 104.138C119.357 107.144 105.875 103.663 95.2934 111.179C84.7116 118.695 77.8139 100.103 66.2915 124.312C54.7691 148.522 52.0258 112.761 30 135.942Z" stroke="white" stroke-width="3" stroke-miterlimit="10"/>
<path d="M133.457 152.551H47.8867" stroke="white" stroke-width="3" stroke-miterlimit="10"/>
<path d="M182.121 187.446V157.625H208.951V187.446" stroke="white" stroke-width="3" stroke-miterlimit="10"/>
<path d="M242.92 67.0352H152.746" stroke="white" stroke-width="3" stroke-miterlimit="10"/>
<path d="M220.618 78.6328H167.91V93.3053H220.618V78.6328Z" stroke="white" stroke-width="3" stroke-miterlimit="10"/>
<path d="M133.656 101.641V32.0762H105.562V106.848" stroke="white" stroke-width="3" stroke-miterlimit="10"/>
<path d="M105.121 54.2832H135.047" stroke="white" stroke-width="3" stroke-miterlimit="10"/>
<path d="M105.562 73.832H124.937" stroke="white" stroke-width="3" stroke-miterlimit="10"/>
<path d="M43.8438 127.089V49.127H74.2459V85.5306H82.3425V111.386" stroke="white" stroke-width="3" stroke-miterlimit="10"/>
<path d="M43.5625 68.0039H64.875V93.2515H43.5625" stroke="white" stroke-width="3" stroke-miterlimit="10"/>
<path d="M167.91 110.992H188.231" stroke="white" stroke-width="3" stroke-miterlimit="10"/>
<path d="M197.836 110.992H220.618" stroke="white" stroke-width="3" stroke-miterlimit="10"/>
<path d="M167.91 136.848H188.231" stroke="white" stroke-width="3" stroke-miterlimit="10"/>
<path d="M197.836 136.848H220.618" stroke="white" stroke-width="3" stroke-miterlimit="10"/>
</g>
<defs>
<clipPath id="clip0_5_8203">
<rect width="353" height="420" fill="white"/>
</clipPath>
</defs>
</svg>
