<svg width="353" height="420" viewBox="0 0 353 420" fill="none" xmlns="http://www.w3.org/2000/svg">
<g clip-path="url(#clip0_5_8386)">
<rect width="353" height="420" rx="22" fill="white" fill-opacity="0.03"/>
<rect x="1.5" y="1.5" width="350" height="417" rx="20.5" stroke="white" stroke-opacity="0.6" stroke-width="3"/>
<path d="M31.56 383V359.96H35.912V383H31.56ZM52.4848 383V374.84C52.4848 374.445 52.4634 373.944 52.4208 373.336C52.3781 372.717 52.2448 372.099 52.0208 371.48C51.7968 370.861 51.4288 370.344 50.9168 369.928C50.4154 369.512 49.7008 369.304 48.7728 369.304C48.3994 369.304 47.9994 369.363 47.5728 369.48C47.1461 369.597 46.7461 369.827 46.3728 370.168C45.9994 370.499 45.6901 370.989 45.4448 371.64C45.2101 372.291 45.0928 373.155 45.0928 374.232L42.5968 373.048C42.5968 371.683 42.8741 370.403 43.4288 369.208C43.9834 368.013 44.8154 367.048 45.9248 366.312C47.0448 365.576 48.4528 365.208 50.1488 365.208C51.5034 365.208 52.6074 365.437 53.4608 365.896C54.3141 366.355 54.9754 366.936 55.4448 367.64C55.9248 368.344 56.2661 369.08 56.4688 369.848C56.6714 370.605 56.7941 371.299 56.8368 371.928C56.8794 372.557 56.9008 373.016 56.9008 373.304V383H52.4848ZM40.6768 383V365.72H44.5488V371.448H45.0928V383H40.6768ZM71.4205 383C70.2258 383.224 69.0525 383.32 67.9005 383.288C66.7592 383.267 65.7352 383.069 64.8285 382.696C63.9325 382.312 63.2498 381.699 62.7805 380.856C62.3538 380.067 62.1298 379.267 62.1085 378.456C62.0872 377.635 62.0765 376.707 62.0765 375.672V360.92H66.4285V375.416C66.4285 376.088 66.4338 376.696 66.4445 377.24C66.4658 377.773 66.5778 378.2 66.7805 378.52C67.1645 379.128 67.7778 379.459 68.6205 379.512C69.4632 379.565 70.3965 379.523 71.4205 379.384V383ZM59.1325 369.08V365.72H71.4205V369.08H59.1325ZM82.3658 383.48C80.5951 383.48 79.0324 383.101 77.6778 382.344C76.3338 381.576 75.2778 380.525 74.5098 379.192C73.7524 377.848 73.3738 376.312 73.3738 374.584C73.3738 372.696 73.7471 371.053 74.4938 369.656C75.2404 368.259 76.2698 367.176 77.5818 366.408C78.8938 365.629 80.4031 365.24 82.1098 365.24C83.9231 365.24 85.4644 365.667 86.7338 366.52C88.0031 367.373 88.9418 368.573 89.5498 370.12C90.1578 371.667 90.3711 373.485 90.1898 375.576H85.8858V373.976C85.8858 372.216 85.6031 370.952 85.0378 370.184C84.4831 369.405 83.5711 369.016 82.3018 369.016C80.8191 369.016 79.7258 369.469 79.0218 370.376C78.3284 371.272 77.9818 372.6 77.9818 374.36C77.9818 375.971 78.3284 377.219 79.0218 378.104C79.7258 378.979 80.7551 379.416 82.1098 379.416C82.9631 379.416 83.6938 379.229 84.3018 378.856C84.9098 378.483 85.3738 377.944 85.6938 377.24L90.0458 378.488C89.3951 380.067 88.3658 381.293 86.9578 382.168C85.5604 383.043 84.0298 383.48 82.3658 383.48ZM76.6378 375.576V372.344H88.0938V375.576H76.6378ZM93.8025 383V365.72H97.6425V369.944L97.2265 369.4C97.4505 368.803 97.7492 368.259 98.1225 367.768C98.4958 367.277 98.9545 366.872 99.4985 366.552C99.9145 366.296 100.368 366.099 100.859 365.96C101.349 365.811 101.856 365.72 102.379 365.688C102.901 365.645 103.424 365.656 103.947 365.72V369.784C103.467 369.635 102.907 369.587 102.267 369.64C101.637 369.683 101.067 369.827 100.555 370.072C100.043 370.307 99.6105 370.621 99.2585 371.016C98.9065 371.4 98.6398 371.859 98.4585 372.392C98.2772 372.915 98.1865 373.507 98.1865 374.168V383H93.8025ZM107.31 363.32V359.48H111.662V363.32H107.31ZM107.31 383V365.72H111.662V383H107.31ZM124.235 383.48C122.496 383.48 120.971 383.091 119.659 382.312C118.347 381.533 117.323 380.461 116.587 379.096C115.861 377.72 115.499 376.141 115.499 374.36C115.499 372.557 115.872 370.973 116.619 369.608C117.365 368.232 118.395 367.16 119.707 366.392C121.019 365.624 122.528 365.24 124.235 365.24C125.973 365.24 127.499 365.629 128.811 366.408C130.133 367.187 131.163 368.264 131.899 369.64C132.635 371.005 133.003 372.579 133.003 374.36C133.003 376.152 132.629 377.736 131.883 379.112C131.147 380.477 130.117 381.549 128.795 382.328C127.483 383.096 125.963 383.48 124.235 383.48ZM124.235 379.416C125.632 379.416 126.672 378.947 127.355 378.008C128.048 377.059 128.395 375.843 128.395 374.36C128.395 372.824 128.043 371.597 127.339 370.68C126.645 369.763 125.611 369.304 124.235 369.304C123.285 369.304 122.507 369.517 121.899 369.944C121.291 370.371 120.837 370.963 120.539 371.72C120.251 372.477 120.107 373.357 120.107 374.36C120.107 375.907 120.453 377.139 121.147 378.056C121.851 378.963 122.88 379.416 124.235 379.416ZM136.521 383V365.72H140.361V369.944L139.945 369.4C140.169 368.803 140.468 368.259 140.841 367.768C141.215 367.277 141.673 366.872 142.217 366.552C142.633 366.296 143.087 366.099 143.577 365.96C144.068 365.811 144.575 365.72 145.097 365.688C145.62 365.645 146.143 365.656 146.665 365.72V369.784C146.185 369.635 145.625 369.587 144.985 369.64C144.356 369.683 143.785 369.827 143.273 370.072C142.761 370.307 142.329 370.621 141.977 371.016C141.625 371.4 141.359 371.859 141.177 372.392C140.996 372.915 140.905 373.507 140.905 374.168V383H136.521ZM156.115 383V359.96H163.571C163.752 359.96 164.126 359.965 164.691 359.976C165.256 359.987 165.8 360.024 166.323 360.088C168.179 360.312 169.752 360.957 171.043 362.024C172.334 363.091 173.315 364.445 173.987 366.088C174.659 367.731 174.995 369.528 174.995 371.48C174.995 373.432 174.659 375.229 173.987 376.872C173.315 378.515 172.334 379.869 171.043 380.936C169.752 382.003 168.179 382.648 166.323 382.872C165.8 382.936 165.256 382.973 164.691 382.984C164.126 382.995 163.752 383 163.571 383H156.115ZM160.531 378.904H163.571C163.859 378.904 164.248 378.899 164.739 378.888C165.23 378.867 165.672 378.819 166.067 378.744C167.07 378.541 167.886 378.072 168.515 377.336C169.155 376.6 169.624 375.715 169.923 374.68C170.232 373.645 170.387 372.579 170.387 371.48C170.387 370.328 170.227 369.235 169.907 368.2C169.598 367.165 169.123 366.291 168.483 365.576C167.843 364.861 167.038 364.408 166.067 364.216C165.672 364.131 165.23 364.083 164.739 364.072C164.248 364.061 163.859 364.056 163.571 364.056H160.531V378.904ZM186.866 383.48C185.095 383.48 183.532 383.101 182.178 382.344C180.834 381.576 179.778 380.525 179.01 379.192C178.252 377.848 177.874 376.312 177.874 374.584C177.874 372.696 178.247 371.053 178.994 369.656C179.74 368.259 180.77 367.176 182.082 366.408C183.394 365.629 184.903 365.24 186.61 365.24C188.423 365.24 189.964 365.667 191.234 366.52C192.503 367.373 193.442 368.573 194.05 370.12C194.658 371.667 194.871 373.485 194.69 375.576H190.386V373.976C190.386 372.216 190.103 370.952 189.538 370.184C188.983 369.405 188.071 369.016 186.802 369.016C185.319 369.016 184.226 369.469 183.522 370.376C182.828 371.272 182.482 372.6 182.482 374.36C182.482 375.971 182.828 377.219 183.522 378.104C184.226 378.979 185.255 379.416 186.61 379.416C187.463 379.416 188.194 379.229 188.802 378.856C189.41 378.483 189.874 377.944 190.194 377.24L194.546 378.488C193.895 380.067 192.866 381.293 191.458 382.168C190.06 383.043 188.53 383.48 186.866 383.48ZM181.138 375.576V372.344H192.594V375.576H181.138ZM205.055 383.48C202.879 383.48 201.119 382.989 199.775 382.008C198.441 381.016 197.631 379.619 197.343 377.816L201.791 377.144C201.972 377.955 202.372 378.589 202.991 379.048C203.62 379.507 204.415 379.736 205.375 379.736C206.164 379.736 206.772 379.587 207.199 379.288C207.625 378.979 207.839 378.552 207.839 378.008C207.839 377.667 207.753 377.395 207.583 377.192C207.412 376.979 207.028 376.771 206.431 376.568C205.844 376.365 204.927 376.099 203.679 375.768C202.271 375.405 201.145 375 200.303 374.552C199.46 374.104 198.852 373.571 198.479 372.952C198.105 372.323 197.919 371.565 197.919 370.68C197.919 369.571 198.201 368.611 198.767 367.8C199.332 366.979 200.127 366.349 201.151 365.912C202.185 365.464 203.401 365.24 204.799 365.24C206.153 365.24 207.353 365.448 208.399 365.864C209.444 366.28 210.287 366.872 210.927 367.64C211.577 368.408 211.977 369.315 212.127 370.36L207.679 371.16C207.604 370.52 207.327 370.013 206.847 369.64C206.367 369.267 205.716 369.048 204.895 368.984C204.095 368.931 203.449 369.037 202.959 369.304C202.479 369.571 202.239 369.955 202.239 370.456C202.239 370.755 202.34 371.005 202.543 371.208C202.756 371.411 203.188 371.619 203.839 371.832C204.5 372.045 205.503 372.323 206.847 372.664C208.159 373.005 209.209 373.405 209.999 373.864C210.799 374.312 211.38 374.856 211.743 375.496C212.105 376.125 212.287 376.888 212.287 377.784C212.287 379.555 211.647 380.947 210.367 381.96C209.087 382.973 207.316 383.48 205.055 383.48ZM216.123 363.32V359.48H220.475V363.32H216.123ZM216.123 383V365.72H220.475V383H216.123ZM232.663 391.16C231.682 391.16 230.749 391 229.863 390.68C228.978 390.371 228.183 389.933 227.479 389.368C226.786 388.813 226.221 388.163 225.783 387.416L229.815 385.464C230.093 385.976 230.487 386.365 230.999 386.632C231.522 386.899 232.087 387.032 232.695 387.032C233.346 387.032 233.959 386.92 234.535 386.696C235.111 386.483 235.57 386.157 235.911 385.72C236.263 385.293 236.429 384.76 236.407 384.12V379.096H236.951V365.72H240.759V384.184C240.759 384.611 240.738 385.011 240.695 385.384C240.663 385.768 240.599 386.147 240.503 386.52C240.226 387.576 239.709 388.445 238.951 389.128C238.205 389.811 237.287 390.317 236.199 390.648C235.111 390.989 233.933 391.16 232.663 391.16ZM232.279 383.48C230.69 383.48 229.298 383.08 228.103 382.28C226.909 381.48 225.975 380.392 225.303 379.016C224.642 377.64 224.311 376.088 224.311 374.36C224.311 372.6 224.647 371.037 225.319 369.672C226.002 368.296 226.957 367.213 228.183 366.424C229.41 365.635 230.85 365.24 232.503 365.24C234.146 365.24 235.527 365.64 236.647 366.44C237.767 367.24 238.615 368.328 239.191 369.704C239.767 371.08 240.055 372.632 240.055 374.36C240.055 376.088 239.762 377.64 239.175 379.016C238.599 380.392 237.735 381.48 236.583 382.28C235.431 383.08 233.997 383.48 232.279 383.48ZM232.983 379.608C233.954 379.608 234.727 379.389 235.303 378.952C235.89 378.515 236.311 377.901 236.567 377.112C236.823 376.323 236.951 375.405 236.951 374.36C236.951 373.315 236.823 372.397 236.567 371.608C236.311 370.819 235.901 370.205 235.335 369.768C234.781 369.331 234.05 369.112 233.143 369.112C232.173 369.112 231.373 369.352 230.743 369.832C230.125 370.301 229.666 370.936 229.367 371.736C229.069 372.525 228.919 373.4 228.919 374.36C228.919 375.331 229.063 376.216 229.351 377.016C229.639 377.805 230.082 378.435 230.679 378.904C231.277 379.373 232.045 379.608 232.983 379.608ZM257.016 383V374.84C257.016 374.445 256.995 373.944 256.952 373.336C256.909 372.717 256.776 372.099 256.552 371.48C256.328 370.861 255.96 370.344 255.448 369.928C254.947 369.512 254.232 369.304 253.304 369.304C252.931 369.304 252.531 369.363 252.104 369.48C251.677 369.597 251.277 369.827 250.904 370.168C250.531 370.499 250.221 370.989 249.976 371.64C249.741 372.291 249.624 373.155 249.624 374.232L247.128 373.048C247.128 371.683 247.405 370.403 247.96 369.208C248.515 368.013 249.347 367.048 250.456 366.312C251.576 365.576 252.984 365.208 254.68 365.208C256.035 365.208 257.139 365.437 257.992 365.896C258.845 366.355 259.507 366.936 259.976 367.64C260.456 368.344 260.797 369.08 261 369.848C261.203 370.605 261.325 371.299 261.368 371.928C261.411 372.557 261.432 373.016 261.432 373.304V383H257.016ZM245.208 383V365.72H249.08V371.448H249.624V383H245.208Z" fill="white"/>
<g clip-path="url(#clip1_5_8386)">
<path d="M49.9431 96.5273H29.1328V184.219H148.607V99.0302H128.156V162.386H49.9431V96.5273Z" stroke="white" stroke-width="3" stroke-miterlimit="10"/>
<path d="M60.7067 128.262H117.145C119.809 128.262 122.364 129.318 124.248 131.197C126.132 133.076 127.19 135.625 127.19 138.283V150.693H50.6563V138.283C50.6562 136.967 50.9163 135.663 51.4214 134.447C51.9265 133.231 52.6669 132.126 53.6003 131.195C54.5336 130.264 55.6416 129.526 56.861 129.023C58.0803 128.52 59.3871 128.261 60.7067 128.262Z" stroke="white" stroke-width="3" stroke-miterlimit="10"/>
<path d="M128.151 151.172H49.9375V162.385H128.151V151.172Z" stroke="white" stroke-width="3" stroke-miterlimit="10"/>
<path d="M50.6573 136.852L49.9375 83.6433C61.7079 76.441 75.2466 72.6289 89.0546 72.6289C102.863 72.6289 116.401 76.441 128.172 83.6433V150.693" stroke="white" stroke-width="3" stroke-miterlimit="10"/>
<path d="M50.8969 184.336H38.9375V209.869H50.8969V184.336Z" stroke="white" stroke-width="3" stroke-miterlimit="10"/>
<path d="M137.956 184.297H124.562V208.877H137.956V184.297Z" stroke="white" stroke-width="3" stroke-miterlimit="10"/>
<path d="M211.869 26.1309H154.227V77.9144H211.869V26.1309Z" stroke="white" stroke-width="3" stroke-miterlimit="10"/>
<path d="M194.169 85.7852H172.164V96.5248H194.169V85.7852Z" stroke="white" stroke-width="3" stroke-miterlimit="10"/>
<path d="M183.008 97.0469V209.678" stroke="white" stroke-width="3" stroke-miterlimit="10"/>
<path d="M194.164 96.5273L211.866 209.393" stroke="white" stroke-width="3" stroke-miterlimit="10"/>
<path d="M172.163 96.5273L156.375 208.68" stroke="white" stroke-width="3" stroke-miterlimit="10"/>
</g>
</g>
<defs>
<clipPath id="clip0_5_8386">
<rect width="353" height="420" fill="white"/>
</clipPath>
<clipPath id="clip1_5_8386">
<rect width="183" height="184" fill="white" transform="translate(29 26)"/>
</clipPath>
</defs>
</svg>
