<svg width="353" height="420" viewBox="0 0 353 420" fill="none" xmlns="http://www.w3.org/2000/svg">
<g clip-path="url(#clip0_5_8246)">
<rect width="353" height="420" rx="22" fill="white" fill-opacity="0.03"/>
<rect x="1.5" y="1.5" width="350" height="417" rx="20.5" stroke="white" stroke-opacity="0.6" stroke-width="3"/>
<path d="M30.24 343V319.96H39.968C40.192 319.96 40.4907 319.971 40.864 319.992C41.248 320.003 41.5893 320.035 41.888 320.088C43.264 320.301 44.3893 320.755 45.264 321.448C46.1493 322.141 46.8 323.016 47.216 324.072C47.632 325.117 47.84 326.285 47.84 327.576C47.84 328.867 47.6267 330.04 47.2 331.096C46.784 332.141 46.1333 333.011 45.248 333.704C44.3733 334.397 43.2533 334.851 41.888 335.064C41.5893 335.107 41.248 335.139 40.864 335.16C40.48 335.181 40.1813 335.192 39.968 335.192H34.592V343H30.24ZM34.592 331.128H39.776C40 331.128 40.2453 331.117 40.512 331.096C40.7787 331.075 41.024 331.032 41.248 330.968C41.8347 330.808 42.288 330.541 42.608 330.168C42.928 329.784 43.1467 329.363 43.264 328.904C43.392 328.435 43.456 327.992 43.456 327.576C43.456 327.16 43.392 326.723 43.264 326.264C43.1467 325.795 42.928 325.373 42.608 325C42.288 324.616 41.8347 324.344 41.248 324.184C41.024 324.12 40.7787 324.077 40.512 324.056C40.2453 324.035 40 324.024 39.776 324.024H34.592V331.128ZM51.0525 343V325.72H54.8925V329.944L54.4765 329.4C54.7005 328.803 54.9992 328.259 55.3725 327.768C55.7458 327.277 56.2045 326.872 56.7485 326.552C57.1645 326.296 57.6178 326.099 58.1085 325.96C58.5992 325.811 59.1058 325.72 59.6285 325.688C60.1512 325.645 60.6738 325.656 61.1965 325.72V329.784C60.7165 329.635 60.1565 329.587 59.5165 329.64C58.8872 329.683 58.3165 329.827 57.8045 330.072C57.2925 330.307 56.8605 330.621 56.5085 331.016C56.1565 331.4 55.8898 331.859 55.7085 332.392C55.5272 332.915 55.4365 333.507 55.4365 334.168V343H51.0525ZM71.9595 343.48C70.1888 343.48 68.6262 343.101 67.2715 342.344C65.9275 341.576 64.8715 340.525 64.1035 339.192C63.3462 337.848 62.9675 336.312 62.9675 334.584C62.9675 332.696 63.3408 331.053 64.0875 329.656C64.8342 328.259 65.8635 327.176 67.1755 326.408C68.4875 325.629 69.9968 325.24 71.7035 325.24C73.5168 325.24 75.0582 325.667 76.3275 326.52C77.5968 327.373 78.5355 328.573 79.1435 330.12C79.7515 331.667 79.9648 333.485 79.7835 335.576H75.4795V333.976C75.4795 332.216 75.1968 330.952 74.6315 330.184C74.0768 329.405 73.1648 329.016 71.8955 329.016C70.4128 329.016 69.3195 329.469 68.6155 330.376C67.9222 331.272 67.5755 332.6 67.5755 334.36C67.5755 335.971 67.9222 337.219 68.6155 338.104C69.3195 338.979 70.3488 339.416 71.7035 339.416C72.5568 339.416 73.2875 339.229 73.8955 338.856C74.5035 338.483 74.9675 337.944 75.2875 337.24L79.6395 338.488C78.9888 340.067 77.9595 341.293 76.5515 342.168C75.1542 343.043 73.6235 343.48 71.9595 343.48ZM66.2315 335.576V332.344H77.6875V335.576H66.2315ZM83.7163 343V319.48H88.0683V343H83.7163ZM93.185 323.32V319.48H97.537V323.32H93.185ZM93.185 343V325.72H97.537V343H93.185ZM123.134 343V332.792C123.134 331.651 122.862 330.765 122.318 330.136C121.784 329.496 121.043 329.176 120.094 329.176C119.486 329.176 118.958 329.32 118.51 329.608C118.062 329.885 117.71 330.28 117.454 330.792C117.208 331.293 117.086 331.875 117.086 332.536L115.262 331.32C115.262 330.136 115.539 329.091 116.094 328.184C116.659 327.277 117.411 326.573 118.35 326.072C119.299 325.56 120.35 325.304 121.502 325.304C123.475 325.304 124.963 325.891 125.966 327.064C126.979 328.227 127.486 329.752 127.486 331.64V343H123.134ZM102.302 343V325.72H106.142V331.448H106.686V343H102.302ZM112.734 343V332.792C112.734 331.651 112.462 330.765 111.918 330.136C111.384 329.496 110.643 329.176 109.694 329.176C108.787 329.176 108.056 329.491 107.502 330.12C106.958 330.739 106.686 331.544 106.686 332.536L104.862 331.256C104.862 330.125 105.144 329.112 105.71 328.216C106.275 327.32 107.032 326.611 107.982 326.088C108.942 325.565 110.014 325.304 111.198 325.304C112.552 325.304 113.662 325.592 114.526 326.168C115.4 326.744 116.046 327.512 116.462 328.472C116.878 329.432 117.086 330.488 117.086 331.64V343H112.734ZM131.966 323.32V319.48H136.318V323.32H131.966ZM131.966 343V325.72H136.318V343H131.966ZM152.891 343V334.84C152.891 334.445 152.87 333.944 152.827 333.336C152.784 332.717 152.651 332.099 152.427 331.48C152.203 330.861 151.835 330.344 151.323 329.928C150.822 329.512 150.107 329.304 149.179 329.304C148.806 329.304 148.406 329.363 147.979 329.48C147.552 329.597 147.152 329.827 146.779 330.168C146.406 330.499 146.096 330.989 145.851 331.64C145.616 332.291 145.499 333.155 145.499 334.232L143.003 333.048C143.003 331.683 143.28 330.403 143.835 329.208C144.39 328.013 145.222 327.048 146.331 326.312C147.451 325.576 148.859 325.208 150.555 325.208C151.91 325.208 153.014 325.437 153.867 325.896C154.72 326.355 155.382 326.936 155.851 327.64C156.331 328.344 156.672 329.08 156.875 329.848C157.078 330.605 157.2 331.299 157.243 331.928C157.286 332.557 157.307 333.016 157.307 333.304V343H152.891ZM141.083 343V325.72H144.955V331.448H145.499V343H141.083ZM166.259 343.48C165.021 343.48 163.971 343.245 163.107 342.776C162.253 342.296 161.603 341.661 161.155 340.872C160.717 340.072 160.499 339.192 160.499 338.232C160.499 337.432 160.621 336.701 160.867 336.04C161.112 335.379 161.507 334.797 162.051 334.296C162.605 333.784 163.347 333.357 164.275 333.016C164.915 332.781 165.677 332.573 166.563 332.392C167.448 332.211 168.451 332.04 169.571 331.88C170.691 331.709 171.923 331.523 173.267 331.32L171.699 332.184C171.699 331.16 171.453 330.408 170.963 329.928C170.472 329.448 169.651 329.208 168.499 329.208C167.859 329.208 167.192 329.363 166.499 329.672C165.805 329.981 165.32 330.531 165.043 331.32L161.107 330.072C161.544 328.643 162.365 327.48 163.571 326.584C164.776 325.688 166.419 325.24 168.499 325.24C170.024 325.24 171.379 325.475 172.563 325.944C173.747 326.413 174.643 327.224 175.251 328.376C175.592 329.016 175.795 329.656 175.859 330.296C175.923 330.936 175.955 331.651 175.955 332.44V343H172.147V339.448L172.691 340.184C171.848 341.347 170.936 342.189 169.955 342.712C168.984 343.224 167.752 343.48 166.259 343.48ZM167.187 340.056C167.987 340.056 168.659 339.917 169.203 339.64C169.757 339.352 170.195 339.027 170.515 338.664C170.845 338.301 171.069 337.997 171.187 337.752C171.411 337.283 171.539 336.739 171.571 336.12C171.613 335.491 171.635 334.968 171.635 334.552L172.915 334.872C171.624 335.085 170.579 335.267 169.779 335.416C168.979 335.555 168.333 335.683 167.843 335.8C167.352 335.917 166.92 336.045 166.547 336.184C166.12 336.355 165.773 336.541 165.507 336.744C165.251 336.936 165.059 337.149 164.931 337.384C164.813 337.619 164.755 337.88 164.755 338.168C164.755 338.563 164.851 338.904 165.043 339.192C165.245 339.469 165.528 339.683 165.891 339.832C166.253 339.981 166.685 340.056 167.187 340.056ZM180.115 343V325.72H183.955V329.944L183.539 329.4C183.763 328.803 184.062 328.259 184.435 327.768C184.808 327.277 185.267 326.872 185.811 326.552C186.227 326.296 186.68 326.099 187.171 325.96C187.662 325.811 188.168 325.72 188.691 325.688C189.214 325.645 189.736 325.656 190.259 325.72V329.784C189.779 329.635 189.219 329.587 188.579 329.64C187.95 329.683 187.379 329.827 186.867 330.072C186.355 330.307 185.923 330.621 185.571 331.016C185.219 331.4 184.952 331.859 184.771 332.392C184.59 332.915 184.499 333.507 184.499 334.168V343H180.115ZM194.886 350.68L198.214 341.528L198.278 344.216L190.758 325.72H195.27L200.326 338.808H199.302L204.326 325.72H208.678L198.918 350.68H194.886ZM30.24 387V363.96H45.28V368.024H34.592V372.952H43.36V377.016H34.592V382.936H45.28V387H30.24ZM55.867 387.48C53.691 387.48 51.931 386.989 50.587 386.008C49.2537 385.016 48.443 383.619 48.155 381.816L52.603 381.144C52.7843 381.955 53.1843 382.589 53.803 383.048C54.4323 383.507 55.227 383.736 56.187 383.736C56.9763 383.736 57.5843 383.587 58.011 383.288C58.4377 382.979 58.651 382.552 58.651 382.008C58.651 381.667 58.5657 381.395 58.395 381.192C58.2243 380.979 57.8403 380.771 57.243 380.568C56.6563 380.365 55.739 380.099 54.491 379.768C53.083 379.405 51.9577 379 51.115 378.552C50.2723 378.104 49.6643 377.571 49.291 376.952C48.9177 376.323 48.731 375.565 48.731 374.68C48.731 373.571 49.0137 372.611 49.579 371.8C50.1443 370.979 50.939 370.349 51.963 369.912C52.9977 369.464 54.2137 369.24 55.611 369.24C56.9657 369.24 58.1657 369.448 59.211 369.864C60.2563 370.28 61.099 370.872 61.739 371.64C62.3897 372.408 62.7897 373.315 62.939 374.36L58.491 375.16C58.4163 374.52 58.139 374.013 57.659 373.64C57.179 373.267 56.5283 373.048 55.707 372.984C54.907 372.931 54.2617 373.037 53.771 373.304C53.291 373.571 53.051 373.955 53.051 374.456C53.051 374.755 53.1523 375.005 53.355 375.208C53.5683 375.411 54.0003 375.619 54.651 375.832C55.3123 376.045 56.315 376.323 57.659 376.664C58.971 377.005 60.0217 377.405 60.811 377.864C61.611 378.312 62.1923 378.856 62.555 379.496C62.9177 380.125 63.099 380.888 63.099 381.784C63.099 383.555 62.459 384.947 61.179 385.96C59.899 386.973 58.1283 387.48 55.867 387.48ZM76.983 387C75.7883 387.224 74.615 387.32 73.463 387.288C72.3217 387.267 71.2977 387.069 70.391 386.696C69.495 386.312 68.8123 385.699 68.343 384.856C67.9163 384.067 67.6923 383.267 67.671 382.456C67.6497 381.635 67.639 380.707 67.639 379.672V364.92H71.991V379.416C71.991 380.088 71.9963 380.696 72.007 381.24C72.0283 381.773 72.1403 382.2 72.343 382.52C72.727 383.128 73.3403 383.459 74.183 383.512C75.0257 383.565 75.959 383.523 76.983 383.384V387ZM64.695 373.08V369.72H76.983V373.08H64.695ZM81.1538 367.32V363.48H85.5058V367.32H81.1538ZM81.1538 387V369.72H85.5058V387H81.1538ZM111.103 387V376.792C111.103 375.651 110.831 374.765 110.287 374.136C109.753 373.496 109.012 373.176 108.062 373.176C107.455 373.176 106.927 373.32 106.479 373.608C106.031 373.885 105.679 374.28 105.423 374.792C105.177 375.293 105.055 375.875 105.055 376.536L103.231 375.32C103.231 374.136 103.508 373.091 104.062 372.184C104.628 371.277 105.38 370.573 106.319 370.072C107.268 369.56 108.319 369.304 109.471 369.304C111.444 369.304 112.932 369.891 113.935 371.064C114.948 372.227 115.455 373.752 115.455 375.64V387H111.103ZM90.2705 387V369.72H94.1105V375.448H94.6545V387H90.2705ZM100.703 387V376.792C100.703 375.651 100.431 374.765 99.8865 374.136C99.3532 373.496 98.6118 373.176 97.6625 373.176C96.7558 373.176 96.0252 373.491 95.4705 374.12C94.9265 374.739 94.6545 375.544 94.6545 376.536L92.8305 375.256C92.8305 374.125 93.1132 373.112 93.6785 372.216C94.2438 371.32 95.0012 370.611 95.9505 370.088C96.9105 369.565 97.9825 369.304 99.1665 369.304C100.521 369.304 101.631 369.592 102.495 370.168C103.369 370.744 104.015 371.512 104.431 372.472C104.847 373.432 105.055 374.488 105.055 375.64V387H100.703ZM124.415 387.48C123.178 387.48 122.127 387.245 121.263 386.776C120.41 386.296 119.759 385.661 119.311 384.872C118.874 384.072 118.655 383.192 118.655 382.232C118.655 381.432 118.778 380.701 119.023 380.04C119.268 379.379 119.663 378.797 120.207 378.296C120.762 377.784 121.503 377.357 122.431 377.016C123.071 376.781 123.834 376.573 124.719 376.392C125.604 376.211 126.607 376.04 127.727 375.88C128.847 375.709 130.079 375.523 131.423 375.32L129.855 376.184C129.855 375.16 129.61 374.408 129.119 373.928C128.628 373.448 127.807 373.208 126.655 373.208C126.015 373.208 125.348 373.363 124.655 373.672C123.962 373.981 123.476 374.531 123.199 375.32L119.263 374.072C119.7 372.643 120.522 371.48 121.727 370.584C122.932 369.688 124.575 369.24 126.655 369.24C128.18 369.24 129.535 369.475 130.719 369.944C131.903 370.413 132.799 371.224 133.407 372.376C133.748 373.016 133.951 373.656 134.015 374.296C134.079 374.936 134.111 375.651 134.111 376.44V387H130.303V383.448L130.847 384.184C130.004 385.347 129.092 386.189 128.111 386.712C127.14 387.224 125.908 387.48 124.415 387.48ZM125.343 384.056C126.143 384.056 126.815 383.917 127.359 383.64C127.914 383.352 128.351 383.027 128.671 382.664C129.002 382.301 129.226 381.997 129.343 381.752C129.567 381.283 129.695 380.739 129.727 380.12C129.77 379.491 129.791 378.968 129.791 378.552L131.071 378.872C129.78 379.085 128.735 379.267 127.935 379.416C127.135 379.555 126.49 379.683 125.999 379.8C125.508 379.917 125.076 380.045 124.703 380.184C124.276 380.355 123.93 380.541 123.663 380.744C123.407 380.936 123.215 381.149 123.087 381.384C122.97 381.619 122.911 381.88 122.911 382.168C122.911 382.563 123.007 382.904 123.199 383.192C123.402 383.469 123.684 383.683 124.047 383.832C124.41 383.981 124.842 384.056 125.343 384.056ZM148.639 387C147.445 387.224 146.271 387.32 145.119 387.288C143.978 387.267 142.954 387.069 142.047 386.696C141.151 386.312 140.469 385.699 139.999 384.856C139.573 384.067 139.349 383.267 139.327 382.456C139.306 381.635 139.295 380.707 139.295 379.672V364.92H143.647V379.416C143.647 380.088 143.653 380.696 143.663 381.24C143.685 381.773 143.797 382.2 143.999 382.52C144.383 383.128 144.997 383.459 145.839 383.512C146.682 383.565 147.615 383.523 148.639 383.384V387ZM136.351 373.08V369.72H148.639V373.08H136.351ZM152.81 367.32V363.48H157.162V367.32H152.81ZM152.81 387V369.72H157.162V387H152.81ZM173.735 387V378.84C173.735 378.445 173.713 377.944 173.671 377.336C173.628 376.717 173.495 376.099 173.271 375.48C173.047 374.861 172.679 374.344 172.167 373.928C171.665 373.512 170.951 373.304 170.023 373.304C169.649 373.304 169.249 373.363 168.823 373.48C168.396 373.597 167.996 373.827 167.623 374.168C167.249 374.499 166.94 374.989 166.695 375.64C166.46 376.291 166.343 377.155 166.343 378.232L163.847 377.048C163.847 375.683 164.124 374.403 164.679 373.208C165.233 372.013 166.065 371.048 167.175 370.312C168.295 369.576 169.703 369.208 171.399 369.208C172.753 369.208 173.857 369.437 174.711 369.896C175.564 370.355 176.225 370.936 176.695 371.64C177.175 372.344 177.516 373.08 177.719 373.848C177.921 374.605 178.044 375.299 178.087 375.928C178.129 376.557 178.151 377.016 178.151 377.304V387H173.735ZM161.927 387V369.72H165.799V375.448H166.343V387H161.927ZM189.695 395.16C188.713 395.16 187.78 395 186.895 394.68C186.009 394.371 185.215 393.933 184.511 393.368C183.817 392.813 183.252 392.163 182.815 391.416L186.847 389.464C187.124 389.976 187.519 390.365 188.031 390.632C188.553 390.899 189.119 391.032 189.727 391.032C190.377 391.032 190.991 390.92 191.567 390.696C192.143 390.483 192.601 390.157 192.943 389.72C193.295 389.293 193.46 388.76 193.439 388.12V383.096H193.983V369.72H197.791V388.184C197.791 388.611 197.769 389.011 197.727 389.384C197.695 389.768 197.631 390.147 197.535 390.52C197.257 391.576 196.74 392.445 195.983 393.128C195.236 393.811 194.319 394.317 193.231 394.648C192.143 394.989 190.964 395.16 189.695 395.16ZM189.311 387.48C187.721 387.48 186.329 387.08 185.135 386.28C183.94 385.48 183.007 384.392 182.335 383.016C181.673 381.64 181.343 380.088 181.343 378.36C181.343 376.6 181.679 375.037 182.351 373.672C183.033 372.296 183.988 371.213 185.215 370.424C186.441 369.635 187.881 369.24 189.535 369.24C191.177 369.24 192.559 369.64 193.679 370.44C194.799 371.24 195.647 372.328 196.222 373.704C196.799 375.08 197.087 376.632 197.087 378.36C197.087 380.088 196.793 381.64 196.207 383.016C195.631 384.392 194.767 385.48 193.615 386.28C192.463 387.08 191.028 387.48 189.311 387.48ZM190.015 383.608C190.985 383.608 191.759 383.389 192.335 382.952C192.921 382.515 193.343 381.901 193.599 381.112C193.855 380.323 193.983 379.405 193.983 378.36C193.983 377.315 193.855 376.397 193.599 375.608C193.343 374.819 192.932 374.205 192.367 373.768C191.812 373.331 191.081 373.112 190.175 373.112C189.204 373.112 188.404 373.352 187.775 373.832C187.156 374.301 186.697 374.936 186.399 375.736C186.1 376.525 185.951 377.4 185.951 378.36C185.951 379.331 186.095 380.216 186.383 381.016C186.671 381.805 187.113 382.435 187.711 382.904C188.308 383.373 189.076 383.608 190.015 383.608Z" fill="white"/>
<rect x="44.3633" y="95.207" width="17.2381" height="14.3651" rx="1" stroke="white" stroke-width="3"/>
<rect x="44.3633" y="129.684" width="17.2381" height="14.3651" rx="1" stroke="white" stroke-width="3"/>
<rect x="44.3633" y="164.16" width="17.2381" height="14.3651" rx="1" stroke="white" stroke-width="3"/>
<rect x="75.9648" y="95.207" width="17.2381" height="14.3651" rx="1" stroke="white" stroke-width="3"/>
<rect x="75.9648" y="129.684" width="17.2381" height="14.3651" rx="1" stroke="white" stroke-width="3"/>
<rect x="75.9648" y="164.16" width="17.2381" height="14.3651" rx="1" stroke="white" stroke-width="3"/>
<rect x="107.57" y="95.207" width="17.2381" height="14.3651" rx="1" stroke="white" stroke-width="3"/>
<rect x="107.57" y="129.684" width="17.2381" height="14.3651" rx="1" stroke="white" stroke-width="3"/>
<rect x="107.57" y="164.68" width="17.2381" height="14.3651" rx="1" stroke="white" stroke-width="3"/>
<rect x="139.57" y="129.68" width="17.2381" height="14.3651" rx="1" stroke="white" stroke-width="3"/>
<rect x="139.57" y="164.68" width="17.2381" height="14.3651" rx="1" stroke="white" stroke-width="3"/>
<rect x="139.176" y="95.207" width="17.2381" height="14.3651" rx="1" stroke="white" stroke-width="3"/>
<mask id="path-16-inside-1_5_8246" fill="white">
<rect x="41.4922" y="43.4922" width="117.794" height="34.4762" rx="2"/>
</mask>
<rect x="41.4922" y="43.4922" width="117.794" height="34.4762" rx="2" stroke="white" stroke-width="6" mask="url(#path-16-inside-1_5_8246)"/>
<rect x="31.5" y="33.5" width="140.651" height="163.635" rx="3.5" stroke="white" stroke-width="3"/>
<path d="M53.1289 67.0002V57.3202L50.9609 58.6402V56.7762L53.1289 55.4802H54.8329V67.0002H53.1289Z" fill="white"/>
<path d="M61.8869 67.2402C61.1029 67.2402 60.4096 67.0696 59.8069 66.7282C59.2043 66.3816 58.7296 65.9069 58.3829 65.3042C58.0416 64.7016 57.8709 64.0082 57.8709 63.2242V59.2562C57.8709 58.4722 58.0416 57.7789 58.3829 57.1762C58.7296 56.5736 59.2043 56.1016 59.8069 55.7602C60.4096 55.4136 61.1029 55.2402 61.8869 55.2402C62.6709 55.2402 63.3643 55.4136 63.9669 55.7602C64.5696 56.1016 65.0416 56.5736 65.3829 57.1762C65.7296 57.7789 65.9029 58.4722 65.9029 59.2562V63.2242C65.9029 64.0082 65.7296 64.7016 65.3829 65.3042C65.0416 65.9069 64.5696 66.3816 63.9669 66.7282C63.3643 67.0696 62.6709 67.2402 61.8869 67.2402ZM61.8869 65.6402C62.3136 65.6402 62.7003 65.5389 63.0469 65.3362C63.3989 65.1282 63.6789 64.8509 63.8869 64.5042C64.0949 64.1522 64.1989 63.7602 64.1989 63.3282V59.1362C64.1989 58.7096 64.0949 58.3229 63.8869 57.9762C63.6789 57.6242 63.3989 57.3469 63.0469 57.1442C62.7003 56.9362 62.3136 56.8322 61.8869 56.8322C61.4603 56.8322 61.0709 56.9362 60.7189 57.1442C60.3723 57.3469 60.0949 57.6242 59.8869 57.9762C59.6789 58.3229 59.5749 58.7096 59.5749 59.1362V63.3282C59.5749 63.7602 59.6789 64.1522 59.8869 64.5042C60.0949 64.8509 60.3723 65.1282 60.7189 65.3362C61.0709 65.5389 61.4603 65.6402 61.8869 65.6402Z" fill="white"/>
<path d="M72.1526 67.2402C71.3686 67.2402 70.6752 67.0696 70.0726 66.7282C69.4699 66.3816 68.9952 65.9069 68.6486 65.3042C68.3072 64.7016 68.1366 64.0082 68.1366 63.2242V59.2562C68.1366 58.4722 68.3072 57.7789 68.6486 57.1762C68.9952 56.5736 69.4699 56.1016 70.0726 55.7602C70.6752 55.4136 71.3686 55.2402 72.1526 55.2402C72.9366 55.2402 73.6299 55.4136 74.2326 55.7602C74.8352 56.1016 75.3072 56.5736 75.6486 57.1762C75.9952 57.7789 76.1686 58.4722 76.1686 59.2562V63.2242C76.1686 64.0082 75.9952 64.7016 75.6486 65.3042C75.3072 65.9069 74.8352 66.3816 74.2326 66.7282C73.6299 67.0696 72.9366 67.2402 72.1526 67.2402ZM72.1526 65.6402C72.5792 65.6402 72.9659 65.5389 73.3126 65.3362C73.6646 65.1282 73.9446 64.8509 74.1526 64.5042C74.3606 64.1522 74.4646 63.7602 74.4646 63.3282V59.1362C74.4646 58.7096 74.3606 58.3229 74.1526 57.9762C73.9446 57.6242 73.6646 57.3469 73.3126 57.1442C72.9659 56.9362 72.5792 56.8322 72.1526 56.8322C71.7259 56.8322 71.3366 56.9362 70.9846 57.1442C70.6379 57.3469 70.3606 57.6242 70.1526 57.9762C69.9446 58.3229 69.8406 58.7096 69.8406 59.1362V63.3282C69.8406 63.7602 69.9446 64.1522 70.1526 64.5042C70.3606 64.8509 70.6379 65.1282 70.9846 65.3362C71.3366 65.5389 71.7259 65.6402 72.1526 65.6402Z" fill="white"/>
<path d="M82.4182 67.2402C81.6342 67.2402 80.9409 67.0696 80.3382 66.7282C79.7355 66.3816 79.2609 65.9069 78.9142 65.3042C78.5729 64.7016 78.4022 64.0082 78.4022 63.2242V59.2562C78.4022 58.4722 78.5729 57.7789 78.9142 57.1762C79.2609 56.5736 79.7355 56.1016 80.3382 55.7602C80.9409 55.4136 81.6342 55.2402 82.4182 55.2402C83.2022 55.2402 83.8955 55.4136 84.4982 55.7602C85.1009 56.1016 85.5729 56.5736 85.9142 57.1762C86.2609 57.7789 86.4342 58.4722 86.4342 59.2562V63.2242C86.4342 64.0082 86.2609 64.7016 85.9142 65.3042C85.5729 65.9069 85.1009 66.3816 84.4982 66.7282C83.8955 67.0696 83.2022 67.2402 82.4182 67.2402ZM82.4182 65.6402C82.8449 65.6402 83.2315 65.5389 83.5782 65.3362C83.9302 65.1282 84.2102 64.8509 84.4182 64.5042C84.6262 64.1522 84.7302 63.7602 84.7302 63.3282V59.1362C84.7302 58.7096 84.6262 58.3229 84.4182 57.9762C84.2102 57.6242 83.9302 57.3469 83.5782 57.1442C83.2315 56.9362 82.8449 56.8322 82.4182 56.8322C81.9915 56.8322 81.6022 56.9362 81.2502 57.1442C80.9035 57.3469 80.6262 57.6242 80.4182 57.9762C80.2102 58.3229 80.1062 58.7096 80.1062 59.1362V63.3282C80.1062 63.7602 80.2102 64.1522 80.4182 64.5042C80.6262 64.8509 80.9035 65.1282 81.2502 65.3362C81.6022 65.5389 81.9915 65.6402 82.4182 65.6402Z" fill="white"/>
<path d="M92.6838 67.2402C91.8998 67.2402 91.2065 67.0696 90.6038 66.7282C90.0011 66.3816 89.5265 65.9069 89.1798 65.3042C88.8385 64.7016 88.6678 64.0082 88.6678 63.2242V59.2562C88.6678 58.4722 88.8385 57.7789 89.1798 57.1762C89.5265 56.5736 90.0011 56.1016 90.6038 55.7602C91.2065 55.4136 91.8998 55.2402 92.6838 55.2402C93.4678 55.2402 94.1611 55.4136 94.7638 55.7602C95.3665 56.1016 95.8385 56.5736 96.1798 57.1762C96.5265 57.7789 96.6998 58.4722 96.6998 59.2562V63.2242C96.6998 64.0082 96.5265 64.7016 96.1798 65.3042C95.8385 65.9069 95.3665 66.3816 94.7638 66.7282C94.1611 67.0696 93.4678 67.2402 92.6838 67.2402ZM92.6838 65.6402C93.1105 65.6402 93.4971 65.5389 93.8438 65.3362C94.1958 65.1282 94.4758 64.8509 94.6838 64.5042C94.8918 64.1522 94.9958 63.7602 94.9958 63.3282V59.1362C94.9958 58.7096 94.8918 58.3229 94.6838 57.9762C94.4758 57.6242 94.1958 57.3469 93.8438 57.1442C93.4971 56.9362 93.1105 56.8322 92.6838 56.8322C92.2571 56.8322 91.8678 56.9362 91.5158 57.1442C91.1691 57.3469 90.8918 57.6242 90.6838 57.9762C90.4758 58.3229 90.3718 58.7096 90.3718 59.1362V63.3282C90.3718 63.7602 90.4758 64.1522 90.6838 64.5042C90.8918 64.8509 91.1691 65.1282 91.5158 65.3362C91.8678 65.5389 92.2571 65.6402 92.6838 65.6402Z" fill="white"/>
<path d="M99.2214 67.0002V65.2322H100.989V67.0002H99.2214Z" fill="white"/>
</g>
<defs>
<clipPath id="clip0_5_8246">
<rect width="353" height="420" fill="white"/>
</clipPath>
</defs>
</svg>
