<svg width="353" height="420" viewBox="0 0 353 420" fill="none" xmlns="http://www.w3.org/2000/svg">
<g clip-path="url(#clip0_5_8123)">
<rect width="353" height="420" rx="22" fill="white" fill-opacity="0.03"/>
<rect x="1.5" y="1.5" width="350" height="417" rx="20.5" stroke="white" stroke-opacity="0.6" stroke-width="3"/>
<path d="M31.24 343V319.96H40.968C41.192 319.96 41.4907 319.971 41.864 319.992C42.248 320.003 42.5893 320.035 42.888 320.088C44.264 320.301 45.3893 320.755 46.264 321.448C47.1493 322.141 47.8 323.016 48.216 324.072C48.632 325.117 48.84 326.285 48.84 327.576C48.84 329.507 48.36 331.16 47.4 332.536C46.44 333.901 44.936 334.744 42.888 335.064L40.968 335.192H35.592V343H31.24ZM44.232 343L39.688 333.624L44.168 332.76L49.16 343H44.232ZM35.592 331.128H40.776C41 331.128 41.2453 331.117 41.512 331.096C41.7787 331.075 42.024 331.032 42.248 330.968C42.8347 330.808 43.288 330.541 43.608 330.168C43.928 329.784 44.1467 329.363 44.264 328.904C44.392 328.435 44.456 327.992 44.456 327.576C44.456 327.16 44.392 326.723 44.264 326.264C44.1467 325.795 43.928 325.373 43.608 325C43.288 324.616 42.8347 324.344 42.248 324.184C42.024 324.12 41.7787 324.077 41.512 324.056C41.2453 324.035 41 324.024 40.776 324.024H35.592V331.128ZM60.7095 343.48C58.9388 343.48 57.3762 343.101 56.0215 342.344C54.6775 341.576 53.6215 340.525 52.8535 339.192C52.0962 337.848 51.7175 336.312 51.7175 334.584C51.7175 332.696 52.0908 331.053 52.8375 329.656C53.5842 328.259 54.6135 327.176 55.9255 326.408C57.2375 325.629 58.7468 325.24 60.4535 325.24C62.2668 325.24 63.8082 325.667 65.0775 326.52C66.3468 327.373 67.2855 328.573 67.8935 330.12C68.5015 331.667 68.7148 333.485 68.5335 335.576H64.2295V333.976C64.2295 332.216 63.9468 330.952 63.3815 330.184C62.8268 329.405 61.9148 329.016 60.6455 329.016C59.1628 329.016 58.0695 329.469 57.3655 330.376C56.6722 331.272 56.3255 332.6 56.3255 334.36C56.3255 335.971 56.6722 337.219 57.3655 338.104C58.0695 338.979 59.0988 339.416 60.4535 339.416C61.3068 339.416 62.0375 339.229 62.6455 338.856C63.2535 338.483 63.7175 337.944 64.0375 337.24L68.3895 338.488C67.7388 340.067 66.7095 341.293 65.3015 342.168C63.9042 343.043 62.3735 343.48 60.7095 343.48ZM54.9815 335.576V332.344H66.4375V335.576H54.9815ZM78.8983 343.48C76.7223 343.48 74.9623 342.989 73.6183 342.008C72.2849 341.016 71.4743 339.619 71.1863 337.816L75.6343 337.144C75.8156 337.955 76.2156 338.589 76.8343 339.048C77.4636 339.507 78.2583 339.736 79.2183 339.736C80.0076 339.736 80.6156 339.587 81.0423 339.288C81.4689 338.979 81.6823 338.552 81.6823 338.008C81.6823 337.667 81.5969 337.395 81.4263 337.192C81.2556 336.979 80.8716 336.771 80.2743 336.568C79.6876 336.365 78.7703 336.099 77.5223 335.768C76.1143 335.405 74.9889 335 74.1463 334.552C73.3036 334.104 72.6956 333.571 72.3223 332.952C71.9489 332.323 71.7623 331.565 71.7623 330.68C71.7623 329.571 72.0449 328.611 72.6103 327.8C73.1756 326.979 73.9703 326.349 74.9943 325.912C76.0289 325.464 77.2449 325.24 78.6423 325.24C79.9969 325.24 81.1969 325.448 82.2423 325.864C83.2876 326.28 84.1303 326.872 84.7703 327.64C85.4209 328.408 85.8209 329.315 85.9703 330.36L81.5223 331.16C81.4476 330.52 81.1703 330.013 80.6903 329.64C80.2103 329.267 79.5596 329.048 78.7383 328.984C77.9383 328.931 77.2929 329.037 76.8023 329.304C76.3223 329.571 76.0823 329.955 76.0823 330.456C76.0823 330.755 76.1836 331.005 76.3863 331.208C76.5996 331.411 77.0316 331.619 77.6823 331.832C78.3436 332.045 79.3463 332.323 80.6903 332.664C82.0023 333.005 83.0529 333.405 83.8423 333.864C84.6423 334.312 85.2236 334.856 85.5863 335.496C85.9489 336.125 86.1303 336.888 86.1303 337.784C86.1303 339.555 85.4903 340.947 84.2103 341.96C82.9303 342.973 81.1596 343.48 78.8983 343.48ZM89.9663 323.32V319.48H94.3183V323.32H89.9663ZM89.9663 343V325.72H94.3183V343H89.9663ZM106.123 343.48C104.534 343.48 103.142 343.08 101.947 342.28C100.752 341.48 99.819 340.392 99.147 339.016C98.4857 337.64 98.155 336.088 98.155 334.36C98.155 332.6 98.491 331.037 99.163 329.672C99.8457 328.296 100.8 327.213 102.027 326.424C103.254 325.635 104.694 325.24 106.347 325.24C107.99 325.24 109.371 325.64 110.491 326.44C111.611 327.24 112.459 328.328 113.035 329.704C113.611 331.08 113.899 332.632 113.899 334.36C113.899 336.088 113.606 337.64 113.019 339.016C112.443 340.392 111.579 341.48 110.427 342.28C109.275 343.08 107.84 343.48 106.123 343.48ZM106.827 339.608C107.798 339.608 108.571 339.389 109.147 338.952C109.734 338.515 110.155 337.901 110.411 337.112C110.667 336.323 110.795 335.405 110.795 334.36C110.795 333.315 110.667 332.397 110.411 331.608C110.155 330.819 109.744 330.205 109.179 329.768C108.624 329.331 107.894 329.112 106.987 329.112C106.016 329.112 105.216 329.352 104.587 329.832C103.968 330.301 103.51 330.936 103.211 331.736C102.912 332.525 102.763 333.4 102.763 334.36C102.763 335.331 102.907 336.216 103.195 337.016C103.483 337.805 103.926 338.435 104.523 338.904C105.12 339.373 105.888 339.608 106.827 339.608ZM110.795 343V331.16H110.251V319.96H114.635V343H110.795ZM127.147 343.48C125.376 343.48 123.814 343.101 122.459 342.344C121.115 341.576 120.059 340.525 119.291 339.192C118.534 337.848 118.155 336.312 118.155 334.584C118.155 332.696 118.528 331.053 119.275 329.656C120.022 328.259 121.051 327.176 122.363 326.408C123.675 325.629 125.184 325.24 126.891 325.24C128.704 325.24 130.246 325.667 131.515 326.52C132.784 327.373 133.723 328.573 134.331 330.12C134.939 331.667 135.152 333.485 134.971 335.576H130.667V333.976C130.667 332.216 130.384 330.952 129.819 330.184C129.264 329.405 128.352 329.016 127.083 329.016C125.6 329.016 124.507 329.469 123.803 330.376C123.11 331.272 122.763 332.6 122.763 334.36C122.763 335.971 123.11 337.219 123.803 338.104C124.507 338.979 125.536 339.416 126.891 339.416C127.744 339.416 128.475 339.229 129.083 338.856C129.691 338.483 130.155 337.944 130.475 337.24L134.827 338.488C134.176 340.067 133.147 341.293 131.739 342.168C130.342 343.043 128.811 343.48 127.147 343.48ZM121.419 335.576V332.344H132.875V335.576H121.419ZM149.891 343V334.84C149.891 334.445 149.87 333.944 149.827 333.336C149.784 332.717 149.651 332.099 149.427 331.48C149.203 330.861 148.835 330.344 148.323 329.928C147.822 329.512 147.107 329.304 146.179 329.304C145.806 329.304 145.406 329.363 144.979 329.48C144.552 329.597 144.152 329.827 143.779 330.168C143.406 330.499 143.096 330.989 142.851 331.64C142.616 332.291 142.499 333.155 142.499 334.232L140.003 333.048C140.003 331.683 140.28 330.403 140.835 329.208C141.39 328.013 142.222 327.048 143.331 326.312C144.451 325.576 145.859 325.208 147.555 325.208C148.91 325.208 150.014 325.437 150.867 325.896C151.72 326.355 152.382 326.936 152.851 327.64C153.331 328.344 153.672 329.08 153.875 329.848C154.078 330.605 154.2 331.299 154.243 331.928C154.286 332.557 154.307 333.016 154.307 333.304V343H149.891ZM138.083 343V325.72H141.955V331.448H142.499V343H138.083ZM168.827 343C167.632 343.224 166.459 343.32 165.307 343.288C164.165 343.267 163.141 343.069 162.235 342.696C161.339 342.312 160.656 341.699 160.187 340.856C159.76 340.067 159.536 339.267 159.515 338.456C159.493 337.635 159.483 336.707 159.483 335.672V320.92H163.835V335.416C163.835 336.088 163.84 336.696 163.851 337.24C163.872 337.773 163.984 338.2 164.187 338.52C164.571 339.128 165.184 339.459 166.027 339.512C166.869 339.565 167.803 339.523 168.827 339.384V343ZM156.539 329.08V325.72H168.827V329.08H156.539ZM172.998 323.32V319.48H177.35V323.32H172.998ZM172.998 343V325.72H177.35V343H172.998ZM186.946 343.48C185.709 343.48 184.658 343.245 183.794 342.776C182.941 342.296 182.29 341.661 181.842 340.872C181.405 340.072 181.186 339.192 181.186 338.232C181.186 337.432 181.309 336.701 181.554 336.04C181.8 335.379 182.194 334.797 182.738 334.296C183.293 333.784 184.034 333.357 184.962 333.016C185.602 332.781 186.365 332.573 187.25 332.392C188.136 332.211 189.138 332.04 190.258 331.88C191.378 331.709 192.61 331.523 193.954 331.32L192.386 332.184C192.386 331.16 192.141 330.408 191.65 329.928C191.16 329.448 190.338 329.208 189.186 329.208C188.546 329.208 187.88 329.363 187.186 329.672C186.493 329.981 186.008 330.531 185.73 331.32L181.794 330.072C182.232 328.643 183.053 327.48 184.258 326.584C185.464 325.688 187.106 325.24 189.186 325.24C190.712 325.24 192.066 325.475 193.25 325.944C194.434 326.413 195.33 327.224 195.938 328.376C196.28 329.016 196.482 329.656 196.546 330.296C196.61 330.936 196.642 331.651 196.642 332.44V343H192.834V339.448L193.378 340.184C192.536 341.347 191.624 342.189 190.642 342.712C189.672 343.224 188.44 343.48 186.946 343.48ZM187.874 340.056C188.674 340.056 189.346 339.917 189.89 339.64C190.445 339.352 190.882 339.027 191.202 338.664C191.533 338.301 191.757 337.997 191.874 337.752C192.098 337.283 192.226 336.739 192.258 336.12C192.301 335.491 192.322 334.968 192.322 334.552L193.602 334.872C192.312 335.085 191.266 335.267 190.466 335.416C189.666 335.555 189.021 335.683 188.53 335.8C188.04 335.917 187.608 336.045 187.234 336.184C186.808 336.355 186.461 336.541 186.194 336.744C185.938 336.936 185.746 337.149 185.618 337.384C185.501 337.619 185.442 337.88 185.442 338.168C185.442 338.563 185.538 338.904 185.73 339.192C185.933 339.469 186.216 339.683 186.578 339.832C186.941 339.981 187.373 340.056 187.874 340.056ZM201.123 343V319.48H205.475V343H201.123ZM31.24 387V363.96H46.28V368.024H35.592V372.952H44.36V377.016H35.592V382.936H46.28V387H31.24ZM56.867 387.48C54.691 387.48 52.931 386.989 51.587 386.008C50.2537 385.016 49.443 383.619 49.155 381.816L53.603 381.144C53.7843 381.955 54.1843 382.589 54.803 383.048C55.4323 383.507 56.227 383.736 57.187 383.736C57.9763 383.736 58.5843 383.587 59.011 383.288C59.4377 382.979 59.651 382.552 59.651 382.008C59.651 381.667 59.5657 381.395 59.395 381.192C59.2243 380.979 58.8403 380.771 58.243 380.568C57.6563 380.365 56.739 380.099 55.491 379.768C54.083 379.405 52.9577 379 52.115 378.552C51.2723 378.104 50.6643 377.571 50.291 376.952C49.9177 376.323 49.731 375.565 49.731 374.68C49.731 373.571 50.0137 372.611 50.579 371.8C51.1443 370.979 51.939 370.349 52.963 369.912C53.9977 369.464 55.2137 369.24 56.611 369.24C57.9657 369.24 59.1657 369.448 60.211 369.864C61.2563 370.28 62.099 370.872 62.739 371.64C63.3897 372.408 63.7897 373.315 63.939 374.36L59.491 375.16C59.4163 374.52 59.139 374.013 58.659 373.64C58.179 373.267 57.5283 373.048 56.707 372.984C55.907 372.931 55.2617 373.037 54.771 373.304C54.291 373.571 54.051 373.955 54.051 374.456C54.051 374.755 54.1523 375.005 54.355 375.208C54.5683 375.411 55.0003 375.619 55.651 375.832C56.3123 376.045 57.315 376.323 58.659 376.664C59.971 377.005 61.0217 377.405 61.811 377.864C62.611 378.312 63.1923 378.856 63.555 379.496C63.9177 380.125 64.099 380.888 64.099 381.784C64.099 383.555 63.459 384.947 62.179 385.96C60.899 386.973 59.1283 387.48 56.867 387.48ZM77.983 387C76.7883 387.224 75.615 387.32 74.463 387.288C73.3217 387.267 72.2977 387.069 71.391 386.696C70.495 386.312 69.8123 385.699 69.343 384.856C68.9163 384.067 68.6923 383.267 68.671 382.456C68.6497 381.635 68.639 380.707 68.639 379.672V364.92H72.991V379.416C72.991 380.088 72.9963 380.696 73.007 381.24C73.0283 381.773 73.1403 382.2 73.343 382.52C73.727 383.128 74.3403 383.459 75.183 383.512C76.0257 383.565 76.959 383.523 77.983 383.384V387ZM65.695 373.08V369.72H77.983V373.08H65.695ZM82.1538 367.32V363.48H86.5058V367.32H82.1538ZM82.1538 387V369.72H86.5058V387H82.1538ZM112.103 387V376.792C112.103 375.651 111.831 374.765 111.287 374.136C110.753 373.496 110.012 373.176 109.062 373.176C108.455 373.176 107.927 373.32 107.479 373.608C107.031 373.885 106.679 374.28 106.423 374.792C106.177 375.293 106.055 375.875 106.055 376.536L104.231 375.32C104.231 374.136 104.508 373.091 105.062 372.184C105.628 371.277 106.38 370.573 107.319 370.072C108.268 369.56 109.319 369.304 110.471 369.304C112.444 369.304 113.932 369.891 114.935 371.064C115.948 372.227 116.455 373.752 116.455 375.64V387H112.103ZM91.2705 387V369.72H95.1105V375.448H95.6545V387H91.2705ZM101.703 387V376.792C101.703 375.651 101.431 374.765 100.887 374.136C100.353 373.496 99.6118 373.176 98.6625 373.176C97.7558 373.176 97.0252 373.491 96.4705 374.12C95.9265 374.739 95.6545 375.544 95.6545 376.536L93.8305 375.256C93.8305 374.125 94.1132 373.112 94.6785 372.216C95.2438 371.32 96.0012 370.611 96.9505 370.088C97.9105 369.565 98.9825 369.304 100.167 369.304C101.521 369.304 102.631 369.592 103.495 370.168C104.369 370.744 105.015 371.512 105.431 372.472C105.847 373.432 106.055 374.488 106.055 375.64V387H101.703ZM125.415 387.48C124.178 387.48 123.127 387.245 122.263 386.776C121.41 386.296 120.759 385.661 120.311 384.872C119.874 384.072 119.655 383.192 119.655 382.232C119.655 381.432 119.778 380.701 120.023 380.04C120.268 379.379 120.663 378.797 121.207 378.296C121.762 377.784 122.503 377.357 123.431 377.016C124.071 376.781 124.834 376.573 125.719 376.392C126.604 376.211 127.607 376.04 128.727 375.88C129.847 375.709 131.079 375.523 132.423 375.32L130.855 376.184C130.855 375.16 130.61 374.408 130.119 373.928C129.628 373.448 128.807 373.208 127.655 373.208C127.015 373.208 126.348 373.363 125.655 373.672C124.962 373.981 124.476 374.531 124.199 375.32L120.263 374.072C120.7 372.643 121.522 371.48 122.727 370.584C123.932 369.688 125.575 369.24 127.655 369.24C129.18 369.24 130.535 369.475 131.719 369.944C132.903 370.413 133.799 371.224 134.407 372.376C134.748 373.016 134.951 373.656 135.015 374.296C135.079 374.936 135.111 375.651 135.111 376.44V387H131.303V383.448L131.847 384.184C131.004 385.347 130.092 386.189 129.111 386.712C128.14 387.224 126.908 387.48 125.415 387.48ZM126.343 384.056C127.143 384.056 127.815 383.917 128.359 383.64C128.914 383.352 129.351 383.027 129.671 382.664C130.002 382.301 130.226 381.997 130.343 381.752C130.567 381.283 130.695 380.739 130.727 380.12C130.77 379.491 130.791 378.968 130.791 378.552L132.071 378.872C130.78 379.085 129.735 379.267 128.935 379.416C128.135 379.555 127.49 379.683 126.999 379.8C126.508 379.917 126.076 380.045 125.703 380.184C125.276 380.355 124.93 380.541 124.663 380.744C124.407 380.936 124.215 381.149 124.087 381.384C123.97 381.619 123.911 381.88 123.911 382.168C123.911 382.563 124.007 382.904 124.199 383.192C124.402 383.469 124.684 383.683 125.047 383.832C125.41 383.981 125.842 384.056 126.343 384.056ZM149.639 387C148.445 387.224 147.271 387.32 146.119 387.288C144.978 387.267 143.954 387.069 143.047 386.696C142.151 386.312 141.469 385.699 140.999 384.856C140.573 384.067 140.349 383.267 140.327 382.456C140.306 381.635 140.295 380.707 140.295 379.672V364.92H144.647V379.416C144.647 380.088 144.653 380.696 144.663 381.24C144.685 381.773 144.797 382.2 144.999 382.52C145.383 383.128 145.997 383.459 146.839 383.512C147.682 383.565 148.615 383.523 149.639 383.384V387ZM137.351 373.08V369.72H149.639V373.08H137.351ZM153.81 367.32V363.48H158.162V367.32H153.81ZM153.81 387V369.72H158.162V387H153.81ZM174.735 387V378.84C174.735 378.445 174.713 377.944 174.671 377.336C174.628 376.717 174.495 376.099 174.271 375.48C174.047 374.861 173.679 374.344 173.167 373.928C172.665 373.512 171.951 373.304 171.023 373.304C170.649 373.304 170.249 373.363 169.823 373.48C169.396 373.597 168.996 373.827 168.623 374.168C168.249 374.499 167.94 374.989 167.695 375.64C167.46 376.291 167.343 377.155 167.343 378.232L164.847 377.048C164.847 375.683 165.124 374.403 165.679 373.208C166.233 372.013 167.065 371.048 168.175 370.312C169.295 369.576 170.703 369.208 172.399 369.208C173.753 369.208 174.857 369.437 175.711 369.896C176.564 370.355 177.225 370.936 177.695 371.64C178.175 372.344 178.516 373.08 178.719 373.848C178.921 374.605 179.044 375.299 179.087 375.928C179.129 376.557 179.151 377.016 179.151 377.304V387H174.735ZM162.927 387V369.72H166.799V375.448H167.343V387H162.927ZM190.695 395.16C189.713 395.16 188.78 395 187.895 394.68C187.009 394.371 186.215 393.933 185.511 393.368C184.817 392.813 184.252 392.163 183.815 391.416L187.847 389.464C188.124 389.976 188.519 390.365 189.031 390.632C189.553 390.899 190.119 391.032 190.727 391.032C191.377 391.032 191.991 390.92 192.567 390.696C193.143 390.483 193.601 390.157 193.943 389.72C194.295 389.293 194.46 388.76 194.439 388.12V383.096H194.983V369.72H198.791V388.184C198.791 388.611 198.769 389.011 198.727 389.384C198.695 389.768 198.631 390.147 198.535 390.52C198.257 391.576 197.74 392.445 196.983 393.128C196.236 393.811 195.319 394.317 194.231 394.648C193.143 394.989 191.964 395.16 190.695 395.16ZM190.311 387.48C188.721 387.48 187.329 387.08 186.135 386.28C184.94 385.48 184.007 384.392 183.335 383.016C182.673 381.64 182.343 380.088 182.343 378.36C182.343 376.6 182.679 375.037 183.351 373.672C184.033 372.296 184.988 371.213 186.215 370.424C187.441 369.635 188.881 369.24 190.535 369.24C192.177 369.24 193.559 369.64 194.679 370.44C195.799 371.24 196.647 372.328 197.222 373.704C197.799 375.08 198.087 376.632 198.087 378.36C198.087 380.088 197.793 381.64 197.207 383.016C196.631 384.392 195.767 385.48 194.615 386.28C193.463 387.08 192.028 387.48 190.311 387.48ZM191.015 383.608C191.985 383.608 192.759 383.389 193.335 382.952C193.921 382.515 194.343 381.901 194.599 381.112C194.855 380.323 194.983 379.405 194.983 378.36C194.983 377.315 194.855 376.397 194.599 375.608C194.343 374.819 193.932 374.205 193.367 373.768C192.812 373.331 192.081 373.112 191.175 373.112C190.204 373.112 189.404 373.352 188.775 373.832C188.156 374.301 187.697 374.936 187.399 375.736C187.1 376.525 186.951 377.4 186.951 378.36C186.951 379.331 187.095 380.216 187.383 381.016C187.671 381.805 188.113 382.435 188.711 382.904C189.308 383.373 190.076 383.608 191.015 383.608Z" fill="white"/>
<path d="M171.039 107.477V214.781H189.038V226.54H36.8722V46.2002H32V35.084H119.378V45.9246H113.982V87.2658M161.538 120.66L171.04 130.353L183.885 122.452M161.538 135.589L171.04 145.281L183.885 137.38M155.094 110.922C155.094 110.922 171.2 85.7037 173.858 86.0252C176.515 86.3468 235.827 141.147 173.858 162.552C170.183 162.201 166.613 160.972 163.381 158.946C160.149 156.921 157.325 154.143 155.094 150.793M113.984 74.6335H159.203V87.2655H113.984V214.78H172.693M155.094 87.7248V215.285M123.486 127.412H141.485V154.973L123.244 155.03M35.5862 214.781H114.468M56.926 214.826L57.1676 181.386H93.1656V214.826H75.1666V181.386M35.5862 46.2H113.984M123.486 97.2334H141.485V184.601H123.486V97.2334ZM46.375 66.7327H70.7763V93.6964H46.375V66.7327ZM79.757 138.061H104.158V165.025H79.757V138.061ZM46.375 103.389H70.7763V130.353H46.375V103.389ZM46.375 138.023H70.7763V164.987H46.375V138.023ZM79.757 66.3066H103.917V93.457H79.757V66.3066ZM79.757 103.154H104.158V130.117H79.757V103.154Z" stroke="white" stroke-width="3" stroke-miterlimit="10"/>
</g>
<defs>
<clipPath id="clip0_5_8123">
<rect width="353" height="420" fill="white"/>
</clipPath>
</defs>
</svg>
