<svg width="80" height="80" viewBox="0 0 80 80" fill="none" xmlns="http://www.w3.org/2000/svg">
  <rect width="80" height="80" rx="16" fill="#000000" />
  <g transform="translate(20.6, 9.67) scale(0.667)">
    <g transform="translate(0, 8)">
      <path
        d="M58 54C46 61 35 68 23 75C15 70 8 66 0 61V53C8 58 15 62 23 67C35 60 46 53 58 46V54Z"
        fill="#FFFFFF"
        fill-opacity="0.75"
      />
      <path
        d="M58 42C46 49 35 56 23 63C15 58 8 54 0 49V41C8 46 15 50 23 55C35 48 46 41 58 34V42Z"
        fill="#FFFFFF"
        fill-opacity="0.75"
      />
      <path
        d="M58 30C46 37 35 44 23 51C15 46 8 42 0 37V29C8 34 15 38 23 43C35 36 46 29 58 22V30Z"
        fill="#FFFFFF"
        fill-opacity="0.75"
      />
      <path
        d="M0 18C12 11 23 4 35 0C43 5 50 9 58 14V22C50 17 43 13 35 8C23 15 12 22 0 29V18Z"
        fill="#FFFFFF"
      />
    </g>
  </g>
</svg>
